<?xml version="1.0" encoding="utf-8"?>
<!-- Generator: Adobe Illustrator 26.0.2, SVG Export Plug-In . SVG Version: 6.00 Build 0)  -->
<svg version="1.1" id="Layer_1" xmlns="http://www.w3.org/2000/svg" xmlns:xlink="http://www.w3.org/1999/xlink" x="0px" y="0px"
	 viewBox="0 0 212.6 56.69" style="enable-background:new 0 0 212.6 56.69;" xml:space="preserve">
<style type="text/css">
	.st0{fill:#003DA6;}
</style>
<g>
	<path class="st0" d="M170.65,9.09v10.09c4.5,0,8.15-3.67,8.15-8.21V0.88C174.3,0.88,170.65,4.56,170.65,9.09z"/>
	<g>
		<path class="st0" d="M16.13,23.32c1.79,0,3.07,0.58,3.84,1.73c0.77,1.15,1.15,3.13,1.15,5.94H32.1c0-5.01-1.36-8.69-4.07-11.05
			c-2.72-2.35-6.68-3.53-11.9-3.53c-6.63,0-11.15,1.94-13.55,5.83C0.86,25.06,0,29.67,0,36.06c0,6.95,0.91,11.92,2.73,14.88
			c2.39,3.83,6.83,5.75,13.32,5.75c5.25,0,9.23-1.21,11.96-3.64c2.73-2.43,4.09-6.23,4.09-11.39H21.12c0,2.61-0.43,4.62-1.29,6.02
			c-0.86,1.41-2.12,2.11-3.78,2.11c-2.03,0-3.38-0.93-4.05-2.8c-0.68-1.87-1.01-5.71-1.01-11.54C10.99,27.36,12.7,23.32,16.13,23.32
			z"/>
		<path class="st0" d="M38.89,0v56.15h10.99V11.06C49.88,4.95,44.96,0,38.89,0z"/>
		<path class="st0" d="M201.61,11.95v4.04c-1.53-0.32-3.2-0.49-5.06-0.49c-6.6,0-11.09,1.99-13.48,5.96
			c-1.72,2.88-2.57,7.59-2.57,14.13c0,7.11,0.91,12.19,2.73,15.22c2.39,3.92,6.83,5.89,13.32,5.89c6.6,0,11.06-1.96,13.4-5.89
			c1.58-2.63,2.45-7,2.61-13.08h0.03V0.88C206.53,0.88,201.61,5.84,201.61,11.95z M196.55,49.63c-2.03,0-3.38-0.95-4.05-2.87
			c-0.68-1.91-1.01-5.85-1.01-11.81c0-8.27,1.69-12.4,5.06-12.4c2.18,0,3.61,1.05,4.28,3.14c0.52,1.62,0.78,4.71,0.78,9.26
			c0,6.07-0.34,10.03-1.01,11.89C199.92,48.7,198.57,49.63,196.55,49.63z"/>
		<path class="st0" d="M86.28,22.63c-2.29-4.14-6.8-6.21-13.56-6.21c-6.6,0-11.09,1.94-13.48,5.83c-1.72,2.81-2.57,7.42-2.57,13.81
			c0,6.95,0.91,11.92,2.73,14.88c2.39,3.83,6.83,5.75,13.32,5.75c5.04,0,8.93-1.25,11.69-3.76c2.75-2.51,4.13-5.86,4.13-10.05H77.39
			c0,2.05-0.29,3.61-0.86,4.68c-0.78,1.48-2.07,2.23-3.85,2.23c-2.2,0-3.67-1.36-4.4-4.07c-0.42-1.48-0.63-3.96-0.63-7.44h21.12
			C88.77,30.87,87.94,25.65,86.28,22.63z M67.65,32.22c0-2.61,0.21-4.55,0.63-5.83c0.73-2.2,2.2-3.3,4.4-3.3
			c2.31,0,3.82,1.05,4.56,3.14c0.37,1.07,0.55,3.07,0.55,5.98H67.65z"/>
		<path class="st0" d="M148.95,15.88c-6.6,0-11.09,1.94-13.48,5.83c-1.46,2.4-2.3,6.12-2.51,11.13v23.31h10.98V32.84
			c0.28-6.68,1.65-9.8,5.46-9.8c2.55,0,4.58,1.5,4.58,9.8v23.31h10.96V32.84c-0.21-5.05-1.05-8.77-2.51-11.13
			C160.04,17.82,155.55,15.88,148.95,15.88z"/>
		<path class="st0" d="M122.25,19.41c-2.72-2.35-6.68-3.53-11.9-3.53c-6.63,0-11.15,1.94-13.55,5.83
			c-1.72,2.81-2.58,7.42-2.58,13.81c0,6.95,0.91,12.68,2.73,15.64c0.81,1.31,1.88,2.54,3.17,3.4c8.15,4.77,11.87-2.69,12.67-5.39
			c-0.71,0.51-1.52,0.83-2.52,0.83c-2.03,0-3.38-0.93-4.05-2.8c-0.68-1.87-1.01-6.48-1.01-12.31c0-8.08,1.72-12.12,5.14-12.12
			c1.79,0,3.07,0.58,3.84,1.73c0.77,1.15,1.15,3.13,1.15,5.94v14.63c0,6.11,4.92,11.06,10.99,11.06V30.25h-0.01
			C126.27,25.35,124.93,21.73,122.25,19.41z"/>
	</g>
</g>
</svg>
