<?xml version="1.0" encoding="utf-8"?>
<!-- Generator: Adobe Illustrator 26.0.3, SVG Export Plug-In . SVG Version: 6.00 Build 0)  -->
<svg version="1.1" id="Layer_1" xmlns="http://www.w3.org/2000/svg" xmlns:xlink="http://www.w3.org/1999/xlink" x="0px" y="0px"
	 viewBox="0 0 127 139" style="enable-background:new 0 0 127 139;" xml:space="preserve">
<style type="text/css">
	.st0{opacity:0.5;}
	.st1{fill:#FFFFFF;}
	.st2{fill:#010101;}
	.st3{fill:#1B449C;}
</style>
<g>
	<g class="st0">
		<g>
			<g>
				<g>
					<g>
						<g>
							<path class="st1" d="M69.586,112.799c1.083-0.012,2.176,0.523,3.16,1.547c1.213,1.262,1.94,2.634,2.643,3.961l0.085,0.16
								c1.118,2.109,2.275,4.29,2.559,6.546c0.036,0.283,0.043,0.703-0.125,1.093c-0.575,1.338-2.541,2.114-3.715,2.578
								l-0.136,0.054c-0.988,0.391-1.887,0.678-2.749,0.875c-0.833,0.117-1.93,0.252-3.054,0.264
								c-1.394,0.015-2.549-0.16-3.531-0.535c-0.166-0.064-0.566-0.252-0.683-0.626c-0.053-0.167-0.054-0.385-0.052-0.632
								c0.049-4.125,0.901-9.117,1.663-11.376c0.545-1.618,1.529-2.994,2.165-3.389c0.509-0.317,1.07-0.49,1.667-0.516
								C69.517,112.801,69.552,112.8,69.586,112.799z"/>
							<path class="st2" d="M68.091,130.17c-1.357,0-2.494-0.182-3.471-0.555c-0.206-0.08-0.702-0.316-0.858-0.81
								c-0.066-0.21-0.068-0.452-0.064-0.725c0.049-4.154,0.909-9.186,1.678-11.466c0.587-1.742,1.617-3.127,2.288-3.545
								c0.553-0.344,1.161-0.532,1.808-0.559l0.112-0.003c1.148-0.038,2.332,0.553,3.373,1.636c1.24,1.29,1.977,2.679,2.689,4.023
								l0.087,0.163c1.131,2.133,2.3,4.338,2.59,6.648c0.04,0.319,0.047,0.795-0.147,1.245c-0.623,1.451-2.659,2.254-3.876,2.734
								l-0.135,0.054c-1.003,0.397-1.916,0.688-2.791,0.888c-0.861,0.122-1.968,0.259-3.115,0.271
								C68.201,130.169,68.146,130.17,68.091,130.17z M69.589,113.091l-0.091,0.003c-0.549,0.023-1.062,0.182-1.529,0.472
								c-0.58,0.361-1.526,1.701-2.043,3.235c-0.755,2.238-1.599,7.189-1.648,11.287c-0.002,0.213-0.001,0.415,0.038,0.541
								c0.082,0.258,0.411,0.403,0.51,0.44c0.947,0.363,2.058,0.53,3.424,0.516c1.114-0.013,2.197-0.147,3.016-0.262
								c0.822-0.189,1.707-0.471,2.682-0.857l0.135-0.054c1.133-0.447,3.027-1.194,3.555-2.422c0.142-0.329,0.134-0.693,0.103-0.941
								c-0.277-2.202-1.421-4.359-2.526-6.445l-0.085-0.159c-0.695-1.313-1.412-2.665-2.596-3.896
								c-0.917-0.954-1.924-1.458-2.915-1.458C69.611,113.091,69.6,113.091,69.589,113.091z"/>
						</g>
						<g>
							<path class="st1" d="M80.449,109.303c0.956-0.35,2.039-0.22,3.129,0.378c1.345,0.736,2.283,1.723,3.191,2.677l0.109,0.115
								c1.444,1.516,2.936,3.084,3.672,4.991c0.092,0.239,0.189,0.608,0.124,1.007c-0.221,1.364-1.794,2.668-2.734,3.447
								l-0.108,0.09c-0.79,0.656-1.525,1.192-2.244,1.637c-0.712,0.365-1.654,0.828-2.646,1.192c-1.23,0.45-2.29,0.658-3.24,0.634
								c-0.161-0.004-0.555-0.045-0.739-0.339c-0.082-0.131-0.131-0.324-0.182-0.543c-0.844-3.666-1.163-8.352-0.975-10.59
								c0.135-1.603,0.709-3.129,1.187-3.679c0.382-0.44,0.841-0.77,1.364-0.979C80.389,109.325,80.419,109.314,80.449,109.303z"/>
							<path class="st2" d="M79.85,125.763c-0.052,0-0.104-0.001-0.155-0.002c-0.208-0.006-0.72-0.063-0.978-0.476
								c-0.107-0.169-0.162-0.387-0.219-0.633c-0.85-3.695-1.171-8.42-0.981-10.681c0.145-1.725,0.756-3.269,1.258-3.846
								c0.413-0.475,0.91-0.832,1.476-1.059l0.098-0.038c1.038-0.382,2.202-0.244,3.37,0.396c1.383,0.757,2.338,1.76,3.26,2.729
								l0.111,0.118c1.463,1.536,2.976,3.124,3.733,5.086c0.106,0.272,0.216,0.694,0.14,1.159c-0.238,1.472-1.862,2.818-2.833,3.623
								l-0.111,0.092c-0.798,0.664-1.544,1.207-2.276,1.66c-0.733,0.377-1.682,0.845-2.699,1.217
								C81.843,125.548,80.797,125.763,79.85,125.763z M81.544,109.403c-0.344,0-0.678,0.058-0.995,0.174l-0.082,0.032
								c-0.479,0.192-0.901,0.495-1.252,0.899c-0.438,0.503-0.989,1.989-1.116,3.511c-0.187,2.216,0.13,6.861,0.968,10.5
								c0.042,0.187,0.086,0.361,0.144,0.453c0.112,0.179,0.412,0.201,0.501,0.204c0.915,0.026,1.937-0.178,3.132-0.616
								c0.987-0.362,1.915-0.82,2.614-1.177c0.689-0.427,1.412-0.955,2.19-1.601l0.109-0.09c0.91-0.755,2.428-2.014,2.632-3.269
								c0.054-0.334-0.029-0.649-0.109-0.854c-0.715-1.854-2.188-3.4-3.611-4.895l-0.11-0.116c-0.893-0.938-1.816-1.908-3.12-2.621
								C82.791,109.582,82.15,109.403,81.544,109.403z"/>
						</g>
						<g>
							<path class="st1" d="M90.658,99.834c0.711,0,1.433,0.193,1.982,0.361c1.507,0.461,2.981,1.138,4.381,2.011
								c1.543,0.963,2.697,2.637,3.166,4.594c1.189,4.958-2.53,9.176-6.333,9.781c-0.886,0.141-1.85,0.124-2.637-0.452
								c-0.756-0.554-1.199-1.63-1.566-2.709c-0.921-2.717-1.553-5.556-1.879-8.438c-0.148-1.312-0.225-2.953,0.503-4.007
								c0.422-0.611,1.129-1.017,1.94-1.114C90.358,99.842,90.507,99.834,90.658,99.834z"/>
							<path class="st2" d="M92.996,116.946c-0.778,0-1.421-0.193-1.952-0.582c-0.821-0.601-1.288-1.725-1.67-2.851
								c-0.928-2.737-1.564-5.597-1.892-8.499c-0.154-1.363-0.229-3.073,0.553-4.206c0.47-0.679,1.251-1.13,2.145-1.238
								c0.86-0.101,1.852,0.133,2.545,0.346c1.531,0.468,3.029,1.155,4.45,2.043c1.607,1.004,2.809,2.744,3.295,4.774
								c0.54,2.256,0.126,4.568-1.168,6.51c-1.291,1.939-3.311,3.295-5.404,3.628C93.58,116.921,93.279,116.946,92.996,116.946z
								 M90.659,100.126c-0.14,0-0.278,0.008-0.409,0.023c-0.728,0.088-1.361,0.449-1.735,0.991
								c-0.673,0.973-0.595,2.546-0.453,3.808c0.323,2.861,0.95,5.679,1.865,8.377c0.351,1.035,0.772,2.062,1.462,2.567
								c0.592,0.434,1.383,0.564,2.419,0.4c1.935-0.308,3.808-1.57,5.011-3.375c1.202-1.805,1.587-3.953,1.084-6.049
								c-0.45-1.882-1.557-3.491-3.036-4.414c-1.379-0.86-2.829-1.527-4.312-1.98C92.025,100.312,91.33,100.126,90.659,100.126z"/>
						</g>
						<g>
							<path class="st1" d="M98.676,87.134c0.597,0,1.219,0.106,1.85,0.317c1.286,0.428,2.49,1.243,3.395,1.904
								c1.065,0.779,2.153,1.671,2.895,2.916c0.692,1.162,1.043,2.589,0.988,4.019c-0.055,1.43-0.514,2.812-1.292,3.892
								c-1.04,1.442-2.694,2.304-4.425,2.304c-0.444,0-0.884-0.057-1.308-0.169c-1.996-0.527-3.835-2.248-4.92-4.605
								c-0.837-1.816-1.252-4.002-1.2-6.321c0.038-1.702,0.867-3.206,2.112-3.831c0.075-0.037,0.151-0.072,0.228-0.104
								C97.513,87.243,98.077,87.134,98.676,87.134z"/>
							<path class="st2" d="M102.087,102.778c-0.469,0-0.935-0.06-1.383-0.178c-2.078-0.549-3.989-2.33-5.111-4.764
								c-0.855-1.857-1.279-4.088-1.226-6.451c0.041-1.809,0.933-3.413,2.272-4.086c0.082-0.041,0.164-0.078,0.247-0.113
								c1.094-0.455,2.401-0.455,3.731-0.013c1.326,0.441,2.554,1.272,3.475,1.946c1.09,0.797,2.205,1.712,2.974,3.002
								c0.72,1.209,1.086,2.693,1.028,4.18c-0.056,1.486-0.535,2.925-1.347,4.051C105.653,101.872,103.911,102.778,102.087,102.778z
								 M98.675,87.427c-0.56,0-1.086,0.1-1.566,0.299c-0.071,0.029-0.141,0.062-0.211,0.096c-1.147,0.576-1.913,1.98-1.949,3.575
								c-0.051,2.275,0.355,4.416,1.173,6.193c1.049,2.278,2.817,3.939,4.73,4.444c0.4,0.106,0.816,0.159,1.234,0.159
								c1.637,0,3.203-0.816,4.189-2.182c0.745-1.034,1.184-2.359,1.237-3.732c0.052-1.375-0.284-2.745-0.946-3.858
								c-0.715-1.2-1.777-2.069-2.817-2.829c-0.887-0.649-2.067-1.447-3.315-1.863C99.833,87.528,99.241,87.427,98.675,87.427z"/>
						</g>
						<g>
							<path class="st1" d="M103.738,73.355c0.809,0,1.713,0.135,2.764,0.414c1.923,0.51,3.446,1.228,4.656,2.195
								c1.469,1.175,2.515,2.776,2.945,4.508c0.362,1.46,0.292,3.103-0.194,4.509c-0.486,1.406-1.403,2.624-2.517,3.34
								c-0.845,0.544-1.85,0.831-2.904,0.831c-0.856,0-1.748-0.19-2.581-0.549c-1.643-0.708-3.224-2.071-4.7-4.05
								c-0.91-1.22-1.561-2.378-1.991-3.542c-0.225-0.609-0.392-1.243-0.497-1.886c-0.238-1.461,0.11-2.924,0.932-3.914
								c0.453-0.546,0.973-0.975,1.545-1.277C101.936,73.545,102.768,73.355,103.738,73.355z"/>
							<path class="st2" d="M108.488,89.445c-0.895,0-1.827-0.198-2.696-0.572c-1.69-0.728-3.312-2.123-4.818-4.144
								c-0.926-1.241-1.59-2.423-2.031-3.615c-0.232-0.627-0.404-1.279-0.512-1.94c-0.252-1.543,0.121-3.094,0.995-4.148
								c0.479-0.576,1.029-1.03,1.634-1.348c1.427-0.75,3.134-0.822,5.517-0.189c1.963,0.52,3.521,1.256,4.763,2.249
								c1.519,1.216,2.601,2.873,3.046,4.666c0.375,1.513,0.302,3.217-0.201,4.675c-0.507,1.467-1.467,2.74-2.635,3.491
								C110.657,89.142,109.598,89.445,108.488,89.445z M103.738,73.648c-0.922,0-1.71,0.179-2.408,0.546
								c-0.538,0.283-1.028,0.688-1.457,1.205c-0.768,0.926-1.092,2.302-0.868,3.68c0.102,0.623,0.264,1.239,0.483,1.831
								c0.421,1.139,1.059,2.273,1.952,3.468c1.445,1.939,2.986,3.27,4.582,3.957c1.772,0.765,3.763,0.673,5.213-0.259
								c1.059-0.681,1.934-1.844,2.399-3.19c0.467-1.354,0.535-2.936,0.186-4.342c-0.414-1.67-1.424-3.215-2.844-4.35
								c-1.178-0.942-2.666-1.642-4.548-2.141C105.402,73.78,104.523,73.648,103.738,73.648z"/>
						</g>
						<g>
							<path class="st1" d="M111.671,50.206c1.719,0.226,3.403,0.891,4.742,1.874c2.089,1.533,3.51,4.042,3.8,6.711
								c0.153,1.405,0.003,2.842-0.435,4.156c-0.183,0.551-0.374,0.926-0.6,1.181l-0.039,0.042
								c-0.795,0.823-1.252,2.057-1.253,3.383c-0.001,1.293-0.116,2.686-0.94,4.113c-1.012,1.755-2.967,2.717-4.98,2.453
								c-0.062-0.008-0.124-0.017-0.186-0.028c-1.69-0.288-3.435-1.353-5.335-3.257c-1.217-1.219-1.995-2.273-2.522-3.416
								c-0.751-1.628-1.338-3.007-1.497-4.698c-0.114-1.214-0.078-2.535,0.116-4.283c0.178-1.609,0.471-3.449,1.291-4.903
								c0.605-1.073,1.504-1.941,2.601-2.51C107.925,50.248,109.786,49.958,111.671,50.206z"/>
							<path class="st2" d="M112.625,74.454c-0.231,0-0.464-0.015-0.698-0.046l-0.197-0.03c-1.752-0.299-3.548-1.391-5.492-3.338
								c-1.243-1.246-2.039-2.325-2.581-3.5c-0.763-1.654-1.36-3.057-1.522-4.793c-0.116-1.235-0.08-2.574,0.116-4.343
								c0.182-1.638,0.482-3.514,1.328-5.014c0.633-1.122,1.574-2.03,2.72-2.625c1.546-0.803,3.469-1.102,5.411-0.849
								c1.767,0.233,3.498,0.917,4.876,1.929c2.154,1.581,3.619,4.166,3.918,6.914c0.157,1.447,0.002,2.927-0.447,4.28
								c-0.197,0.591-0.407,0.998-0.66,1.283c-0.79,0.821-1.218,1.98-1.219,3.231c-0.001,1.333-0.121,2.772-0.978,4.26
								C116.243,73.465,114.499,74.454,112.625,74.454z M110.362,50.412c-1.376,0-2.691,0.298-3.795,0.872
								c-1.046,0.544-1.903,1.371-2.481,2.395c-0.794,1.408-1.081,3.212-1.256,4.791c-0.192,1.727-0.227,3.029-0.116,4.223
								c0.154,1.645,0.732,3.001,1.471,4.603c0.512,1.11,1.272,2.137,2.464,3.332c1.855,1.859,3.548,2.898,5.178,3.175l0.177,0.027
								c1.895,0.251,3.734-0.658,4.688-2.31c0.79-1.368,0.9-2.715,0.901-3.967c0.001-1.402,0.488-2.708,1.335-3.585
								c0.23-0.257,0.402-0.601,0.573-1.113c0.424-1.274,0.569-2.668,0.42-4.032c-0.281-2.588-1.657-5.021-3.683-6.507
								c-1.299-0.954-2.936-1.6-4.607-1.82C111.207,50.439,110.781,50.412,110.362,50.412z"/>
						</g>
						<g>
							<path class="st1" d="M115.82,7.446c0.86,0,1.72,0.065,2.674,0.144c1.855,0.153,3.614,0.403,4.75,1.758
								c0.78,0.929,1.173,2.323,1.52,3.553c0.284,1.006,0.556,1.671,0.819,2.315c0.259,0.634,0.504,1.233,0.766,2.159
								c0.181,0.641,0.362,2.637,0.36,3.389c-0.002,0.746-0.17,1.54-0.531,2.5c-0.367,0.976-0.713,1.84-1.237,2.527
								c-0.944,1.237-2.491,1.906-4.599,1.986c-0.159,0.006-0.318,0.009-0.477,0.009c-3.281,0-6.289-1.258-8.471-3.543
								c-2.287-2.395-3.679-5.987-3.722-9.61c-0.032-2.633,1.047-3.933,2.251-5.139c1.001-1.003,2.387-1.665,4.01-1.915
								C114.508,7.489,115.126,7.446,115.82,7.446z"/>
							<path class="st2" d="M119.865,28.077c-3.361,0-6.444-1.29-8.682-3.633c-2.337-2.447-3.759-6.114-3.803-9.809
								c-0.034-2.747,1.086-4.098,2.336-5.349c1.045-1.046,2.488-1.737,4.172-1.997c0.591-0.091,1.223-0.135,1.932-0.135
								c0.873,0,1.739,0.065,2.698,0.145c1.919,0.159,3.741,0.42,4.95,1.861c0.821,0.978,1.223,2.404,1.577,3.661
								c0.282,0.996,0.55,1.651,0.809,2.284c0.262,0.641,0.51,1.246,0.776,2.19c0.19,0.673,0.373,2.683,0.37,3.469
								c-0.001,0.782-0.176,1.609-0.549,2.603c-0.375,0.998-0.73,1.882-1.278,2.601c-1,1.31-2.621,2.017-4.82,2.101
								C120.191,28.074,120.028,28.077,119.865,28.077z M115.82,7.738c-0.679,0-1.282,0.043-1.843,0.129
								c-1.561,0.241-2.892,0.875-3.848,1.833c-1.159,1.16-2.196,2.409-2.166,4.928c0.042,3.551,1.404,7.07,3.641,9.412
								c2.127,2.227,5.061,3.454,8.261,3.454c0.156,0,0.31-0.003,0.465-0.009c2.017-0.078,3.49-0.707,4.379-1.872
								c0.5-0.656,0.838-1.499,1.196-2.452c0.349-0.926,0.512-1.688,0.513-2.398c0.001-0.72-0.177-2.7-0.349-3.308
								c-0.257-0.912-0.499-1.502-0.755-2.127c-0.265-0.648-0.54-1.318-0.83-2.347c-0.339-1.201-0.723-2.562-1.462-3.444
								c-1.064-1.268-2.76-1.506-4.551-1.655C117.523,7.803,116.671,7.738,115.82,7.738z"/>
						</g>
						<g>
							<path class="st1" d="M110.182,29.221c-1.685,1.63-2.986,3.545-3.43,6.263c-0.374,2.287-0.304,4.492,0.063,6.505
								c0.461,2.534,1.777,4.703,3.666,5.777c0.012,0.007,0.024,0.014,0.036,0.021c1.116,0.626,2.337,1.057,3.591,1.479l0.443,0.15
								c1.44,0.489,2.925,0.994,4.368,0.994c0.259,0,0.514-0.017,0.756-0.049c1.554-0.21,3.601-1.194,4.255-3.29
								c0.259-0.83,0.099-2.06-0.044-3.152c-0.059-0.457-0.116-0.89-0.146-1.3c-0.083-1.14-0.044-2.354-0.007-3.534
								c0.082-2.609,0.161-5.104-0.953-6.908c-0.832-1.348-2.675-1.996-4.306-2.569c-0.439-0.154-0.854-0.3-1.239-0.456
								c-1.27-0.513-2.839-0.884-4.285-0.884C111.504,28.265,110.958,28.716,110.182,29.221z"/>
							<path class="st2" d="M118.919,50.701c-1.491,0-2.999-0.512-4.457-1.007l-0.448-0.152c-1.269-0.427-2.502-0.863-3.64-1.501
								c-1.967-1.118-3.355-3.298-3.846-6c-0.4-2.194-0.421-4.416-0.063-6.605c0.4-2.452,1.517-4.494,3.515-6.426l0.044-0.034
								l0.192-0.127c0.682-0.451,1.324-0.876,2.734-0.876c1.369,0,2.97,0.33,4.394,0.905c0.373,0.151,0.775,0.292,1.201,0.442
								c1.701,0.599,3.597,1.266,4.483,2.7c1.159,1.878,1.08,4.399,0.996,7.068c-0.037,1.17-0.075,2.378,0.007,3.507
								c0.029,0.406,0.085,0.833,0.144,1.284c0.146,1.118,0.311,2.387,0.033,3.276c-0.694,2.224-2.855,3.271-4.495,3.493
								C119.456,50.684,119.189,50.701,118.919,50.701z M110.365,29.45c-1.917,1.859-2.943,3.736-3.326,6.08
								c-0.347,2.123-0.325,4.278,0.062,6.406c0.46,2.532,1.745,4.564,3.523,5.575c1.129,0.633,2.334,1.059,3.576,1.477l0.444,0.15
								c1.669,0.567,3.438,1.139,4.993,0.932c1.47-0.199,3.403-1.127,4.016-3.088c0.239-0.768,0.083-1.968-0.055-3.027
								c-0.061-0.463-0.117-0.901-0.147-1.318c-0.085-1.159-0.046-2.382-0.008-3.565c0.081-2.581,0.157-5.017-0.91-6.745
								c-0.777-1.26-2.571-1.891-4.152-2.447c-0.462-0.163-0.873-0.307-1.254-0.461c-1.357-0.549-2.879-0.864-4.176-0.864
								c-1.235,0-1.755,0.344-2.413,0.78L110.365,29.45z"/>
						</g>
					</g>
					<g>
						<g>
							<path class="st1" d="M57.414,112.799c-1.083-0.012-2.176,0.523-3.16,1.547c-1.213,1.262-1.94,2.634-2.643,3.961l-0.085,0.16
								c-1.118,2.109-2.275,4.29-2.559,6.546c-0.036,0.283-0.043,0.703,0.125,1.093c0.575,1.338,2.541,2.114,3.715,2.578
								l0.136,0.054c0.988,0.391,1.887,0.678,2.749,0.875c0.833,0.117,1.93,0.252,3.054,0.264c1.394,0.015,2.549-0.16,3.531-0.535
								c0.166-0.064,0.566-0.252,0.683-0.626c0.053-0.167,0.054-0.385,0.052-0.632c-0.049-4.125-0.901-9.117-1.663-11.376
								c-0.545-1.618-1.529-2.994-2.165-3.389c-0.509-0.317-1.07-0.49-1.667-0.516C57.483,112.801,57.449,112.8,57.414,112.799z"/>
							<path class="st2" d="M58.911,130.17c-0.056,0-0.111-0.001-0.167-0.001c-1.146-0.013-2.255-0.149-3.092-0.267
								c-0.901-0.205-1.814-0.496-2.814-0.892l-0.136-0.054c-1.216-0.48-3.252-1.284-3.875-2.735
								c-0.194-0.451-0.187-0.926-0.147-1.244c0.29-2.311,1.46-4.515,2.591-6.647l0.084-0.159c0.714-1.348,1.451-2.738,2.691-4.027
								c1.041-1.083,2.2-1.663,3.373-1.636l0.115,0.003c0.643,0.027,1.252,0.215,1.805,0.559c0.671,0.418,1.7,1.803,2.288,3.545
								c0.769,2.282,1.629,7.314,1.677,11.466c0.004,0.272,0.001,0.514-0.064,0.723c-0.155,0.494-0.651,0.731-0.857,0.811
								C61.404,129.988,60.267,130.17,58.911,130.17z M57.379,113.091c-0.991,0-1.998,0.503-2.914,1.458
								c-1.184,1.231-1.901,2.583-2.594,3.891l-0.086,0.163c-1.106,2.086-2.25,4.242-2.527,6.446
								c-0.031,0.247-0.038,0.611,0.104,0.941c0.527,1.228,2.423,1.976,3.555,2.422l0.136,0.054
								c0.973,0.386,1.858,0.668,2.706,0.862c0.795,0.111,1.879,0.245,2.992,0.257c1.376,0.013,2.478-0.154,3.424-0.516
								c0.099-0.038,0.428-0.182,0.509-0.44c0.039-0.127,0.041-0.328,0.038-0.541c-0.048-4.095-0.892-9.047-1.647-11.287
								c-0.517-1.534-1.463-2.874-2.043-3.235c-0.467-0.29-0.98-0.448-1.526-0.472l-0.094-0.003
								C57.399,113.091,57.389,113.091,57.379,113.091z"/>
						</g>
						<g>
							<path class="st1" d="M46.552,109.303c-0.956-0.35-2.039-0.22-3.129,0.378c-1.345,0.736-2.284,1.723-3.191,2.677l-0.109,0.115
								c-1.444,1.516-2.936,3.084-3.672,4.991c-0.092,0.239-0.189,0.608-0.124,1.007c0.221,1.364,1.794,2.668,2.734,3.447
								l0.108,0.09c0.79,0.656,1.525,1.192,2.244,1.637c0.712,0.365,1.654,0.828,2.646,1.192c1.23,0.45,2.29,0.658,3.24,0.634
								c0.161-0.004,0.555-0.045,0.739-0.339c0.082-0.131,0.131-0.324,0.182-0.543c0.844-3.666,1.163-8.352,0.975-10.59
								c-0.135-1.603-0.71-3.129-1.187-3.679c-0.382-0.44-0.841-0.77-1.364-0.979C46.612,109.325,46.582,109.314,46.552,109.303z"/>
							<path class="st2" d="M47.151,125.763c-0.948,0-1.994-0.214-3.193-0.653c-1.015-0.372-1.965-0.84-2.678-1.206
								c-0.753-0.463-1.497-1.006-2.298-1.671l-0.108-0.09c-0.972-0.805-2.597-2.152-2.835-3.625
								c-0.076-0.463,0.034-0.886,0.14-1.16c0.758-1.963,2.27-3.551,3.733-5.086l0.109-0.115c0.925-0.972,1.879-1.975,3.263-2.732
								c1.168-0.639,2.333-0.775,3.368-0.396l0.097,0.037c0.568,0.228,1.064,0.584,1.477,1.06c0.502,0.577,1.113,2.121,1.258,3.846
								c0.19,2.261-0.131,6.988-0.981,10.681c-0.057,0.247-0.113,0.465-0.219,0.634c-0.259,0.412-0.77,0.47-0.978,0.475
								C47.254,125.762,47.202,125.763,47.151,125.763z M45.456,109.403c-0.606,0-1.247,0.179-1.894,0.534
								c-1.305,0.714-2.227,1.683-3.119,2.621l-0.111,0.116c-1.424,1.495-2.895,3.04-3.611,4.895
								c-0.079,0.206-0.163,0.521-0.109,0.855c0.204,1.256,1.723,2.515,2.63,3.268l0.11,0.091c0.78,0.647,1.503,1.174,2.212,1.613
								c0.679,0.347,1.608,0.805,2.593,1.166c1.195,0.438,2.231,0.644,3.133,0.616c0.089-0.003,0.388-0.024,0.5-0.204
								c0.062-0.098,0.109-0.304,0.144-0.453c0.838-3.638,1.155-8.283,0.969-10.5c-0.128-1.522-0.68-3.008-1.117-3.511
								c-0.351-0.405-0.772-0.707-1.253-0.9l-0.082-0.031C46.134,109.461,45.801,109.403,45.456,109.403z"/>
						</g>
						<g>
							<path class="st1" d="M36.342,99.834c-0.711,0-1.433,0.193-1.982,0.361c-1.507,0.461-2.981,1.138-4.381,2.011
								c-1.543,0.963-2.697,2.637-3.166,4.594c-1.189,4.958,2.53,9.176,6.333,9.781c0.886,0.141,1.85,0.124,2.637-0.452
								c0.756-0.554,1.199-1.63,1.566-2.709c0.921-2.717,1.553-5.556,1.879-8.438c0.148-1.312,0.225-2.953-0.503-4.007
								c-0.422-0.611-1.129-1.017-1.94-1.114C36.642,99.842,36.493,99.834,36.342,99.834z"/>
							<path class="st2" d="M34.004,116.946c-0.283,0-0.583-0.026-0.903-0.076c-2.093-0.333-4.112-1.69-5.404-3.628
								c-1.294-1.942-1.708-4.254-1.168-6.51c0.487-2.03,1.688-3.771,3.295-4.774c1.422-0.887,2.919-1.575,4.45-2.043
								c0.692-0.212,1.685-0.445,2.544-0.346c0.895,0.108,1.676,0.559,2.146,1.238c0.783,1.135,0.707,2.844,0.553,4.206
								c-0.328,2.904-0.965,5.763-1.893,8.499c-0.382,1.125-0.848,2.248-1.67,2.851C35.425,116.753,34.782,116.946,34.004,116.946z
								 M36.342,100.126c-0.672,0-1.367,0.185-1.897,0.348c-1.482,0.453-2.932,1.12-4.311,1.98
								c-1.479,0.923-2.586,2.532-3.037,4.414c-0.503,2.095-0.117,4.244,1.084,6.049c1.203,1.805,3.076,3.067,5.011,3.375
								c1.036,0.165,1.828,0.034,2.42-0.4c0.691-0.507,1.111-1.533,1.461-2.567c0.915-2.697,1.542-5.515,1.865-8.377
								c0.142-1.261,0.219-2.834-0.454-3.808c-0.374-0.542-1.006-0.904-1.735-0.991C36.619,100.134,36.481,100.126,36.342,100.126z"
								/>
						</g>
						<g>
							<path class="st1" d="M28.325,87.134c-0.597,0-1.219,0.106-1.85,0.317c-1.286,0.428-2.49,1.243-3.395,1.904
								c-1.065,0.779-2.153,1.671-2.895,2.916c-0.692,1.162-1.043,2.589-0.988,4.019c0.055,1.43,0.514,2.812,1.292,3.892
								c1.04,1.442,2.694,2.304,4.425,2.304c0.444,0,0.884-0.057,1.308-0.169c1.996-0.527,3.835-2.248,4.92-4.605
								c0.837-1.816,1.252-4.002,1.2-6.321c-0.038-1.702-0.867-3.206-2.112-3.831c-0.075-0.037-0.151-0.072-0.228-0.104
								C29.487,87.243,28.923,87.134,28.325,87.134z"/>
							<path class="st2" d="M24.914,102.778c-1.825,0-3.567-0.906-4.662-2.425c-0.811-1.125-1.29-2.564-1.347-4.051
								c-0.057-1.486,0.309-2.97,1.03-4.18c0.767-1.29,1.882-2.206,2.972-3.002c0.921-0.674,2.15-1.504,3.475-1.946
								c1.329-0.442,2.637-0.442,3.731,0.013c0.084,0.034,0.166,0.072,0.246,0.112c1.341,0.673,2.233,2.277,2.273,4.086
								c0.053,2.363-0.371,4.593-1.226,6.45c-1.122,2.435-3.032,4.216-5.111,4.764C25.848,102.718,25.382,102.778,24.914,102.778z
								 M28.325,87.427c-0.566,0-1.158,0.101-1.759,0.302c-1.249,0.416-2.428,1.214-3.315,1.863c-1.04,0.76-2.101,1.629-2.816,2.829
								c-0.664,1.114-1,2.484-0.948,3.858c0.053,1.373,0.492,2.698,1.237,3.732c0.985,1.366,2.551,2.182,4.189,2.182
								c0.419,0,0.833-0.053,1.234-0.159c1.912-0.505,3.681-2.166,4.73-4.444c0.818-1.776,1.224-3.918,1.173-6.193
								c-0.036-1.595-0.801-2.998-1.951-3.576c-0.067-0.033-0.137-0.066-0.208-0.095C29.411,87.527,28.884,87.427,28.325,87.427z"/>
						</g>
						<g>
							<path class="st1" d="M23.262,73.355c-0.809,0-1.713,0.135-2.764,0.414c-1.923,0.51-3.446,1.228-4.656,2.195
								c-1.469,1.175-2.515,2.776-2.945,4.508c-0.362,1.46-0.292,3.103,0.194,4.509c0.486,1.406,1.403,2.624,2.517,3.34
								c0.845,0.544,1.85,0.831,2.904,0.831c0.856,0,1.748-0.19,2.581-0.549c1.643-0.708,3.224-2.071,4.7-4.05
								c0.91-1.22,1.561-2.378,1.991-3.542c0.225-0.609,0.392-1.243,0.497-1.886c0.238-1.461-0.11-2.924-0.932-3.914
								c-0.453-0.546-0.973-0.975-1.545-1.277C25.064,73.545,24.232,73.355,23.262,73.355z"/>
							<path class="st2" d="M18.512,89.445c-1.11,0-2.168-0.303-3.061-0.877c-1.168-0.751-2.128-2.024-2.635-3.491
								c-0.504-1.459-0.577-3.163-0.202-4.675c0.445-1.793,1.527-3.45,3.046-4.666c1.243-0.993,2.801-1.728,4.763-2.249
								c2.386-0.633,4.091-0.56,5.517,0.189c0.605,0.319,1.155,0.772,1.634,1.348c0.875,1.056,1.248,2.606,0.995,4.149
								c-0.107,0.661-0.28,1.313-0.512,1.94c-0.439,1.19-1.103,2.372-2.03,3.615c-1.507,2.022-3.129,3.416-4.819,4.144
								C20.34,89.247,19.408,89.445,18.512,89.445z M23.262,73.648c-0.784,0-1.664,0.133-2.689,0.405
								c-1.883,0.499-3.371,1.199-4.548,2.141c-1.42,1.136-2.429,2.681-2.844,4.35c-0.349,1.405-0.281,2.988,0.187,4.342
								c0.464,1.346,1.339,2.508,2.399,3.19c1.451,0.934,3.443,1.023,5.213,0.26c1.595-0.688,3.137-2.019,4.582-3.957
								c0.893-1.197,1.532-2.332,1.951-3.469c0.219-0.592,0.382-1.208,0.484-1.831c0.225-1.378-0.099-2.754-0.868-3.681
								c-0.429-0.516-0.919-0.921-1.457-1.204C24.972,73.827,24.184,73.648,23.262,73.648z"/>
						</g>
						<g>
							<path class="st1" d="M15.329,50.206c-1.719,0.226-3.403,0.891-4.741,1.874c-2.089,1.533-3.51,4.042-3.8,6.711
								c-0.153,1.405-0.003,2.842,0.435,4.156c0.183,0.551,0.374,0.926,0.6,1.181l0.039,0.042c0.795,0.823,1.252,2.057,1.253,3.383
								c0.001,1.293,0.116,2.686,0.94,4.113c1.012,1.755,2.967,2.717,4.98,2.453c0.062-0.008,0.124-0.017,0.186-0.028
								c1.69-0.288,3.435-1.353,5.335-3.257c1.217-1.219,1.995-2.273,2.522-3.416c0.751-1.628,1.338-3.007,1.497-4.698
								c0.114-1.214,0.078-2.535-0.116-4.283c-0.178-1.609-0.471-3.449-1.291-4.903c-0.605-1.073-1.505-1.941-2.601-2.51
								C19.075,50.248,17.214,49.958,15.329,50.206z"/>
							<path class="st2" d="M14.376,74.454c-1.875,0-3.619-0.989-4.573-2.641c-0.858-1.487-0.977-2.926-0.978-4.26
								c-0.002-1.251-0.429-2.41-1.172-3.179c-0.301-0.336-0.51-0.743-0.707-1.334c-0.45-1.354-0.605-2.834-0.448-4.281
								c0.299-2.749,1.764-5.333,3.918-6.914c1.378-1.011,3.109-1.696,4.876-1.929c1.941-0.256,3.864,0.046,5.411,0.849
								c1.146,0.596,2.087,1.504,2.72,2.625c0.846,1.501,1.146,3.377,1.327,5.015c0.196,1.768,0.232,3.107,0.116,4.342
								c-0.163,1.739-0.76,3.141-1.522,4.793c-0.542,1.175-1.337,2.255-2.58,3.5c-1.944,1.947-3.741,3.039-5.493,3.338l-0.194,0.029
								C14.842,74.438,14.608,74.454,14.376,74.454z M15.329,50.206l0.038,0.29c-1.671,0.22-3.308,0.866-4.607,1.82
								c-2.024,1.485-3.401,3.918-3.683,6.507c-0.149,1.363-0.003,2.757,0.422,4.032c0.17,0.513,0.342,0.856,0.541,1.08
								c0.878,0.911,1.365,2.218,1.367,3.618c0.001,1.252,0.111,2.6,0.901,3.967c0.954,1.651,2.794,2.56,4.69,2.31l0.174-0.026
								c1.63-0.277,3.323-1.316,5.179-3.175c1.192-1.194,1.952-2.222,2.464-3.332c0.739-1.601,1.316-2.956,1.471-4.603
								c0.111-1.194,0.076-2.496-0.116-4.223c-0.174-1.578-0.46-3.382-1.255-4.791c-0.577-1.023-1.436-1.851-2.481-2.395
								c-1.44-0.748-3.238-1.028-5.066-0.788L15.329,50.206z"/>
						</g>
						<g>
							<path class="st1" d="M11.181,7.446c-0.86,0-1.72,0.065-2.674,0.144c-1.855,0.153-3.613,0.403-4.75,1.758
								c-0.78,0.929-1.173,2.323-1.52,3.553c-0.284,1.006-0.556,1.671-0.819,2.315c-0.259,0.634-0.504,1.233-0.766,2.159
								c-0.181,0.641-0.362,2.637-0.36,3.389c0.002,0.746,0.17,1.54,0.531,2.5c0.367,0.976,0.713,1.84,1.237,2.527
								c0.944,1.237,2.491,1.906,4.599,1.986c0.159,0.006,0.318,0.009,0.477,0.009c3.281,0,6.289-1.258,8.471-3.543
								c2.287-2.395,3.679-5.987,3.722-9.61c0.032-2.633-1.047-3.933-2.251-5.139c-1.001-1.003-2.387-1.665-4.01-1.915
								C12.492,7.489,11.874,7.446,11.181,7.446z"/>
							<path class="st2" d="M7.135,28.077c-0.162,0-0.325-0.003-0.488-0.009c-2.199-0.084-3.82-0.791-4.82-2.101
								c-0.548-0.72-0.903-1.604-1.278-2.601C0.176,22.372,0.002,21.545,0,20.764c-0.002-0.783,0.181-2.794,0.37-3.469
								c0.265-0.939,0.512-1.544,0.775-2.184c0.264-0.646,0.532-1.303,0.81-2.29c0.357-1.262,0.759-2.685,1.578-3.661
								c1.208-1.44,3.03-1.702,4.95-1.861c0.96-0.08,1.825-0.145,2.697-0.145c0.709,0,1.341,0.044,1.932,0.135
								c1.685,0.26,3.127,0.951,4.172,1.997c1.249,1.251,2.369,2.603,2.336,5.349c-0.044,3.695-1.466,7.362-3.803,9.809
								C13.579,26.787,10.496,28.077,7.135,28.077z M11.18,7.738c-0.85,0-1.703,0.065-2.65,0.143
								C6.739,8.03,5.043,8.268,3.979,9.536c-0.738,0.88-1.123,2.239-1.461,3.438c-0.289,1.025-0.563,1.696-0.829,2.347
								c-0.261,0.637-0.502,1.227-0.758,2.134c-0.172,0.611-0.35,2.591-0.349,3.308c0.002,0.71,0.165,1.472,0.513,2.398
								c0.358,0.953,0.695,1.795,1.196,2.452c0.888,1.165,2.361,1.794,4.379,1.872c3.348,0.13,6.496-1.11,8.726-3.444
								c2.238-2.342,3.599-5.86,3.642-9.412c0.029-2.519-1.008-3.769-2.166-4.928c-0.956-0.958-2.287-1.592-3.848-1.833
								C12.462,7.78,11.859,7.738,11.18,7.738z"/>
						</g>
						<g>
							<path class="st1" d="M16.818,29.221c1.685,1.63,2.986,3.545,3.43,6.263c0.374,2.287,0.304,4.492-0.063,6.505
								c-0.461,2.534-1.777,4.703-3.666,5.777c-0.012,0.007-0.024,0.014-0.036,0.021c-1.116,0.626-2.337,1.057-3.591,1.479
								l-0.443,0.15c-1.44,0.489-2.925,0.994-4.368,0.994c-0.259,0-0.514-0.017-0.756-0.049c-1.554-0.21-3.601-1.194-4.255-3.29
								c-0.259-0.83-0.099-2.06,0.044-3.152c0.059-0.457,0.116-0.89,0.146-1.3c0.083-1.14,0.044-2.354,0.007-3.534
								c-0.082-2.609-0.161-5.104,0.953-6.908c0.832-1.348,2.675-1.996,4.306-2.569c0.439-0.154,0.854-0.3,1.239-0.456
								c1.27-0.513,2.839-0.884,4.285-0.884S16.043,28.716,16.818,29.221z"/>
							<path class="st2" d="M8.082,50.701c-0.27,0-0.537-0.017-0.795-0.052c-1.64-0.221-3.801-1.269-4.495-3.493
								c-0.279-0.89-0.113-2.158,0.032-3.276c0.059-0.451,0.114-0.878,0.144-1.284c0.081-1.129,0.043-2.336,0.006-3.504
								c-0.084-2.672-0.163-5.193,0.996-7.071c0.886-1.435,2.784-2.102,4.457-2.691c0.444-0.156,0.85-0.299,1.228-0.452
								c1.423-0.575,3.024-0.905,4.394-0.905c1.409,0,2.053,0.425,2.733,0.875l0.237,0.162c1.998,1.932,3.115,3.974,3.515,6.426
								c0.357,2.187,0.336,4.409-0.063,6.605c-0.492,2.703-1.88,4.882-3.809,5.979c-1.176,0.66-2.409,1.096-3.679,1.522l-0.442,0.15
								C11.082,50.189,9.573,50.701,8.082,50.701z M14.05,28.557c-1.298,0-2.819,0.315-4.176,0.864
								c-0.385,0.155-0.8,0.301-1.239,0.456c-1.596,0.562-3.39,1.192-4.167,2.452c-1.068,1.728-0.991,4.163-0.91,6.742
								c0.037,1.185,0.077,2.408-0.007,3.568c-0.03,0.416-0.087,0.854-0.147,1.316c-0.139,1.06-0.295,2.259-0.055,3.027
								c0.613,1.962,2.546,2.89,4.016,3.089c1.557,0.209,3.328-0.366,4.99-0.931l0.445-0.15c1.243-0.418,2.448-0.844,3.542-1.457
								c1.812-1.031,3.097-3.063,3.558-5.595c0.387-2.13,0.408-4.285,0.062-6.406c-0.384-2.345-1.409-4.221-3.326-6.08l-0.173-0.114
								C15.804,28.901,15.285,28.557,14.05,28.557z"/>
						</g>
					</g>
				</g>
			</g>
		</g>
	</g>
	<g>
		<g>
			<g>
				<rect x="62.861" y="137.717" class="st3" width="1.279" height="1.283"/>
			</g>
			<g>
				<path class="st3" d="M64.14,135.143h-1.279v-2.574h1.279V135.143z M64.14,129.995h-1.279v-2.574h1.279V129.995z M64.14,124.846
					h-1.279v-2.574h1.279V124.846z M64.14,119.697h-1.279v-2.574h1.279V119.697z M64.14,114.549h-1.279v-2.574h1.279V114.549z
					 M64.14,109.401h-1.279v-2.574h1.279V109.401z M64.14,104.252h-1.279v-2.574h1.279V104.252z M64.14,99.104h-1.279v-2.574h1.279
					V99.104z M64.14,93.955h-1.279v-2.574h1.279V93.955z M64.14,88.806h-1.279v-2.574h1.279V88.806z M64.14,83.658h-1.279v-2.574
					h1.279V83.658z M64.14,78.51h-1.279v-2.574h1.279V78.51z M64.14,73.361h-1.279v-2.574h1.279V73.361z M64.14,68.212h-1.279
					v-2.574h1.279V68.212z M64.14,63.064h-1.279V60.49h1.279V63.064z M64.14,57.916h-1.279v-2.574h1.279V57.916z M64.14,52.767
					h-1.279v-2.574h1.279V52.767z M64.14,47.619h-1.279v-2.574h1.279V47.619z M64.14,42.47h-1.279v-2.574h1.279V42.47z
					 M64.14,37.322h-1.279v-2.574h1.279V37.322z M64.14,32.173h-1.279v-2.574h1.279V32.173z M64.14,27.025h-1.279V24.45h1.279
					V27.025z M64.14,21.876h-1.279v-2.574h1.279V21.876z M64.14,16.727h-1.279v-2.574h1.279V16.727z M64.14,11.579h-1.279V9.005
					h1.279V11.579z M64.14,6.431h-1.279V3.856h1.279V6.431z"/>
			</g>
			<g>
				<rect x="62.861" class="st3" width="1.279" height="1.283"/>
			</g>
		</g>
	</g>
	<g>
		<g>
			<g>
				<rect x="22.875" y="20.744" class="st3" width="81.251" height="1.283"/>
			</g>
			<g>
				<g>
					<path class="st3" d="M19.014,21.385c1.817,0.676,4.071,1.829,5.468,3.05l-1.1-3.05l1.1-3.049
						C23.084,19.557,20.831,20.71,19.014,21.385z"/>
				</g>
			</g>
			<g>
				<g>
					<path class="st3" d="M107.986,21.385c-1.817,0.676-4.071,1.829-5.468,3.05l1.1-3.05l-1.1-3.049
						C103.916,19.557,106.17,20.71,107.986,21.385z"/>
				</g>
			</g>
		</g>
	</g>
	<g>
		<g>
			<g>
				<rect x="41.019" y="91.823" class="st3" width="44.963" height="1.283"/>
			</g>
			<g>
				<g>
					<path class="st3" d="M37.158,92.464c1.817,0.676,4.071,1.829,5.468,3.05l-1.1-3.05l1.1-3.049
						C41.229,90.636,38.975,91.789,37.158,92.464z"/>
				</g>
			</g>
			<g>
				<g>
					<path class="st3" d="M89.842,92.464c-1.817,0.676-4.071,1.829-5.468,3.05l1.1-3.05l-1.1-3.049
						C85.772,90.636,88.025,91.789,89.842,92.464z"/>
				</g>
			</g>
		</g>
	</g>
	<g>
		<g>
			<path class="st3" d="M78.165,68.591h-29.33c-6.836,0-12.378-5.542-12.378-12.378v-0.03c0-6.836,5.542-12.378,12.378-12.378h29.33
				c6.836,0,12.378,5.542,12.378,12.378v0.03C90.543,63.049,85.001,68.591,78.165,68.591z"/>
		</g>
		<g>
			<g>
				<path class="st1" d="M63.681,55.904v1.115H52.726v-1.115h4.768v-1.544h1.392v1.544H63.681z M53.261,53.917
					c2.196-0.202,3.736-1.115,3.977-2.162h-3.495v-1.115h8.946v1.115h-3.535c0.241,1.047,1.808,1.96,3.977,2.162l-0.469,1.087
					c-2.143-0.228-3.803-1.087-4.459-2.336c-0.657,1.249-2.317,2.12-4.446,2.336L53.261,53.917z M60.922,57.69h1.366v4.536h-8.209
					V57.69h1.366v1.127h5.477V57.69z M60.922,59.89h-5.477v1.236h5.477V59.89z"/>
			</g>
			<g>
				<path class="st1" d="M74.984,56.038v1.101H64.043v-1.101H74.984z M73.832,52.829c0,1.437-1.674,2.323-4.312,2.323
					s-4.312-0.887-4.312-2.323c0-1.449,1.674-2.322,4.312-2.322S73.832,51.38,73.832,52.829z M73.658,58.172v4.054h-8.303v-4.054
					H73.658z M66.627,52.829c0,0.793,1.098,1.235,2.893,1.235c1.794,0,2.879-0.442,2.879-1.235c0-0.805-1.085-1.249-2.879-1.249
					C67.725,51.58,66.627,52.024,66.627,52.829z M66.721,59.273v1.854h5.585v-1.854H66.721z"/>
			</g>
		</g>
	</g>
</g>
</svg>
