<?xml version="1.0" encoding="utf-8"?>
<!-- Generator: Adobe Illustrator 26.0.3, SVG Export Plug-In . SVG Version: 6.00 Build 0)  -->
<svg version="1.1" id="Layer_1" xmlns="http://www.w3.org/2000/svg" xmlns:xlink="http://www.w3.org/1999/xlink" x="0px" y="0px"
	 viewBox="0 0 148 109" style="enable-background:new 0 0 148 109;" xml:space="preserve">
<style type="text/css">
	.st0{opacity:0.5;}
	.st1{fill:#FFFFFF;stroke:#010101;stroke-width:0.5561;stroke-miterlimit:10;}
	.st2{fill:#FFFFFF;}
	.st3{fill:none;stroke:#1B449C;stroke-miterlimit:10;}
	.st4{fill:none;stroke:#1B449C;stroke-miterlimit:10;stroke-dasharray:2.0189,2.0189;}
	.st5{fill:#1B449C;}
	.st6{font-family:'NotoSansCJKkr-Medium-KSCpc-EUC-H';}
	.st7{font-size:10.5276px;}
</style>
<g>
	<g class="st0">
		<g>
			<g>
				<g>
					<g>
						<path class="st1" d="M81.125,88.454c1.268-0.009,2.548,0.41,3.7,1.213c1.42,0.989,2.271,2.066,3.094,3.106l0.099,0.125
							c1.309,1.654,2.663,3.364,2.995,5.133c0.042,0.222,0.05,0.551-0.147,0.857c-0.673,1.049-2.974,1.658-4.349,2.022l-0.159,0.042
							c-1.157,0.307-2.209,0.531-3.218,0.686c-0.975,0.092-2.259,0.198-3.575,0.207c-1.631,0.012-2.984-0.125-4.134-0.42
							c-0.195-0.05-0.662-0.197-0.8-0.491c-0.062-0.131-0.064-0.302-0.06-0.496c0.057-3.235,1.055-7.149,1.947-8.921
							c0.638-1.268,1.79-2.347,2.535-2.658c0.596-0.248,1.252-0.385,1.952-0.405C81.045,88.455,81.085,88.455,81.125,88.454z"/>
						<path class="st1" d="M93.842,85.712c1.12-0.275,2.387-0.172,3.664,0.296c1.574,0.577,2.673,1.351,3.736,2.099l0.128,0.09
							c1.69,1.189,3.437,2.418,4.299,3.914c0.108,0.188,0.221,0.477,0.145,0.789c-0.259,1.07-2.1,2.092-3.2,2.703l-0.127,0.071
							c-0.925,0.515-1.785,0.935-2.628,1.283c-0.834,0.286-1.936,0.649-3.098,0.934c-1.44,0.353-2.681,0.516-3.793,0.497
							c-0.188-0.003-0.65-0.036-0.866-0.266c-0.096-0.103-0.153-0.254-0.213-0.426c-0.988-2.875-1.362-6.549-1.141-8.305
							c0.158-1.257,0.831-2.454,1.39-2.885c0.448-0.345,0.985-0.603,1.597-0.768C93.772,85.73,93.807,85.721,93.842,85.712z"/>
						<path class="st1" d="M105.795,78.287c0.833,0,1.677,0.151,2.32,0.283c1.764,0.362,3.49,0.892,5.129,1.577
							c1.806,0.755,3.157,2.068,3.706,3.603c1.391,3.888-2.962,7.195-7.415,7.67c-1.037,0.111-2.166,0.097-3.088-0.355
							c-0.885-0.434-1.404-1.278-1.833-2.125c-1.078-2.13-1.818-4.357-2.199-6.617c-0.173-1.029-0.263-2.316,0.589-3.142
							c0.494-0.479,1.321-0.797,2.272-0.874C105.443,78.294,105.617,78.287,105.795,78.287z"/>
						<path class="st1" d="M115.181,68.328c0.699,0,1.428,0.083,2.166,0.248c1.506,0.336,2.915,0.975,3.975,1.493
							c1.247,0.611,2.521,1.31,3.389,2.286c0.81,0.911,1.221,2.03,1.157,3.152c-0.064,1.121-0.601,2.205-1.512,3.052
							c-1.217,1.131-3.154,1.806-5.181,1.806c-0.52,0-1.035-0.044-1.532-0.132c-2.336-0.413-4.49-1.763-5.76-3.611
							c-0.98-1.424-1.465-3.138-1.404-4.957c0.045-1.335,1.015-2.514,2.472-3.004c0.087-0.029,0.177-0.057,0.267-0.082
							C113.819,68.413,114.48,68.328,115.181,68.328z"/>
						<path class="st1" d="M121.107,57.523c0.947,0,2.006,0.106,3.236,0.325c2.252,0.4,4.035,0.963,5.451,1.722
							c1.72,0.922,2.944,2.177,3.448,3.535c0.424,1.145,0.341,2.433-0.227,3.536c-0.569,1.103-1.643,2.058-2.946,2.619
							c-0.99,0.426-2.165,0.652-3.4,0.652c-1.002,0-2.047-0.149-3.022-0.431c-1.923-0.555-3.774-1.624-5.502-3.176
							c-1.065-0.956-1.827-1.865-2.331-2.778c-0.263-0.477-0.459-0.975-0.582-1.479c-0.279-1.145,0.129-2.293,1.091-3.069
							c0.531-0.428,1.139-0.765,1.809-1.001C118.998,57.672,119.972,57.523,121.107,57.523z"/>
						<path class="st1" d="M130.394,39.37c2.012,0.177,3.984,0.699,5.551,1.469c2.446,1.202,4.109,3.17,4.449,5.262
							c0.179,1.102,0.003,2.229-0.509,3.259c-0.214,0.432-0.438,0.726-0.703,0.926l-0.046,0.033
							c-0.93,0.646-1.466,1.613-1.467,2.653c-0.002,1.014-0.136,2.106-1.1,3.225c-1.185,1.376-3.474,2.131-5.831,1.923
							c-0.073-0.006-0.145-0.014-0.217-0.022c-1.978-0.226-4.021-1.061-6.246-2.554c-1.425-0.956-2.335-1.782-2.953-2.679
							c-0.879-1.276-1.567-2.358-1.752-3.684c-0.133-0.952-0.091-1.988,0.136-3.358c0.209-1.261,0.552-2.705,1.512-3.845
							c0.708-0.841,1.761-1.522,3.045-1.968C126.009,39.403,128.187,39.176,130.394,39.37z"/>
						<path class="st1" d="M135.252,5.839c1.006,0,2.013,0.051,3.131,0.113c2.171,0.12,4.231,0.316,5.561,1.379
							c0.913,0.729,1.373,1.822,1.78,2.786c0.332,0.789,0.651,1.31,0.959,1.815c0.304,0.497,0.59,0.967,0.896,1.693
							c0.212,0.502,0.423,2.068,0.421,2.658c-0.002,0.585-0.199,1.207-0.622,1.96c-0.429,0.765-0.835,1.443-1.448,1.981
							c-1.105,0.97-2.917,1.494-5.384,1.558c-0.186,0.005-0.372,0.007-0.558,0.007c-3.841,0-7.363-0.987-9.918-2.778
							c-2.678-1.878-4.307-4.695-4.358-7.536c-0.037-2.065,1.225-3.084,2.635-4.03c1.172-0.786,2.795-1.305,4.695-1.502
							C133.716,5.873,134.439,5.839,135.252,5.839z"/>
						<path class="st1" d="M128.652,22.914c-1.973,1.278-3.496,2.78-4.016,4.911c-0.437,1.793-0.356,3.522,0.073,5.101
							c0.54,1.987,2.081,3.688,4.291,4.53c0.014,0.005,0.028,0.011,0.042,0.016c1.306,0.491,2.735,0.829,4.204,1.16l0.518,0.118
							c1.685,0.384,3.424,0.779,5.114,0.779c0.303,0,0.601-0.013,0.885-0.039c1.819-0.165,4.216-0.936,4.982-2.58
							c0.303-0.651,0.115-1.616-0.051-2.472c-0.07-0.358-0.136-0.698-0.17-1.02c-0.097-0.894-0.052-1.846-0.008-2.772
							c0.096-2.046,0.188-4.003-1.116-5.417c-0.974-1.057-3.132-1.565-5.042-2.015c-0.514-0.121-1-0.236-1.451-0.358
							c-1.487-0.402-3.323-0.693-5.016-0.693C130.199,22.165,129.559,22.518,128.652,22.914z"/>
					</g>
					<g>
						<path class="st1" d="M66.875,88.454c-1.268-0.009-2.548,0.41-3.699,1.213c-1.42,0.989-2.271,2.066-3.094,3.106l-0.099,0.125
							c-1.309,1.654-2.663,3.364-2.995,5.133c-0.042,0.222-0.05,0.551,0.147,0.857c0.673,1.049,2.974,1.658,4.349,2.022l0.159,0.042
							c1.157,0.307,2.21,0.531,3.218,0.686c0.975,0.092,2.259,0.198,3.575,0.207c1.631,0.012,2.984-0.125,4.134-0.42
							c0.194-0.05,0.662-0.197,0.8-0.491c0.062-0.131,0.064-0.302,0.06-0.496c-0.057-3.235-1.055-7.149-1.947-8.921
							c-0.638-1.268-1.79-2.347-2.535-2.658c-0.596-0.248-1.252-0.385-1.952-0.405C66.955,88.455,66.915,88.455,66.875,88.454z"/>
						<path class="st1" d="M54.158,85.712c-1.12-0.275-2.387-0.172-3.664,0.296c-1.574,0.577-2.673,1.351-3.736,2.099l-0.128,0.09
							c-1.69,1.189-3.437,2.418-4.299,3.914c-0.108,0.188-0.221,0.477-0.145,0.789c0.259,1.07,2.1,2.092,3.2,2.703l0.127,0.071
							c0.925,0.515,1.785,0.935,2.628,1.283c0.834,0.286,1.936,0.649,3.098,0.934c1.44,0.353,2.681,0.516,3.793,0.497
							c0.188-0.003,0.649-0.036,0.866-0.266c0.096-0.103,0.153-0.254,0.213-0.426c0.988-2.875,1.362-6.549,1.141-8.305
							c-0.158-1.257-0.831-2.454-1.39-2.885c-0.447-0.345-0.985-0.603-1.597-0.768C54.228,85.73,54.193,85.721,54.158,85.712z"/>
						<path class="st1" d="M42.205,78.287c-0.833,0-1.677,0.151-2.32,0.283c-1.764,0.362-3.49,0.892-5.129,1.577
							c-1.806,0.755-3.157,2.068-3.706,3.603c-1.391,3.888,2.962,7.195,7.414,7.67c1.037,0.111,2.166,0.097,3.088-0.355
							c0.885-0.434,1.404-1.278,1.833-2.125c1.078-2.13,1.818-4.357,2.199-6.617c0.173-1.029,0.263-2.316-0.589-3.142
							c-0.494-0.479-1.321-0.797-2.272-0.874C42.557,78.294,42.383,78.287,42.205,78.287z"/>
						<path class="st1" d="M32.819,68.328c-0.699,0-1.428,0.083-2.166,0.248c-1.506,0.336-2.915,0.975-3.975,1.493
							c-1.247,0.611-2.521,1.31-3.389,2.286c-0.81,0.911-1.221,2.03-1.157,3.152c0.064,1.121,0.601,2.205,1.512,3.052
							c1.217,1.131,3.154,1.806,5.181,1.806c0.52,0,1.035-0.044,1.531-0.132c2.336-0.413,4.49-1.763,5.76-3.611
							c0.98-1.424,1.465-3.138,1.404-4.957c-0.045-1.335-1.015-2.514-2.472-3.004c-0.087-0.029-0.177-0.057-0.267-0.082
							C34.181,68.413,33.52,68.328,32.819,68.328z"/>
						<path class="st1" d="M26.893,57.523c-0.947,0-2.006,0.106-3.236,0.325c-2.252,0.4-4.035,0.963-5.451,1.722
							c-1.72,0.922-2.945,2.177-3.448,3.535c-0.424,1.145-0.341,2.433,0.227,3.536c0.569,1.103,1.643,2.058,2.946,2.619
							c0.99,0.426,2.165,0.652,3.4,0.652c1.002,0,2.047-0.149,3.022-0.431c1.923-0.555,3.774-1.624,5.502-3.176
							c1.065-0.956,1.827-1.865,2.331-2.778c0.263-0.477,0.459-0.975,0.582-1.479c0.279-1.145-0.129-2.293-1.091-3.069
							c-0.531-0.428-1.139-0.765-1.809-1.001C29.002,57.672,28.028,57.523,26.893,57.523z"/>
						<path class="st1" d="M17.605,39.37c-2.012,0.177-3.984,0.699-5.551,1.469c-2.446,1.202-4.109,3.17-4.449,5.262
							c-0.179,1.102-0.003,2.229,0.509,3.259c0.214,0.432,0.438,0.726,0.703,0.926l0.046,0.033c0.93,0.646,1.466,1.613,1.467,2.653
							c0.002,1.014,0.136,2.106,1.1,3.225c1.185,1.376,3.474,2.131,5.83,1.923c0.073-0.006,0.145-0.014,0.217-0.022
							c1.978-0.226,4.021-1.061,6.246-2.554c1.425-0.956,2.335-1.782,2.953-2.679c0.879-1.276,1.567-2.358,1.752-3.684
							c0.133-0.952,0.091-1.988-0.136-3.358c-0.209-1.261-0.552-2.705-1.512-3.845c-0.709-0.841-1.761-1.522-3.045-1.968
							C21.991,39.403,19.812,39.176,17.605,39.37z"/>
						<path class="st1" d="M12.748,5.839c-1.007,0-2.013,0.051-3.131,0.113c-2.171,0.12-4.23,0.316-5.561,1.379
							c-0.913,0.729-1.373,1.822-1.78,2.786c-0.332,0.789-0.651,1.31-0.959,1.815c-0.304,0.497-0.59,0.967-0.896,1.693
							C0.21,14.127-0.002,15.692,0,16.282c0.002,0.585,0.199,1.207,0.622,1.96c0.429,0.765,0.835,1.443,1.448,1.981
							c1.105,0.97,2.917,1.494,5.384,1.558c0.186,0.005,0.372,0.007,0.558,0.007c3.841,0,7.363-0.987,9.918-2.778
							c2.678-1.878,4.307-4.695,4.358-7.536c0.037-2.065-1.225-3.084-2.635-4.03c-1.172-0.786-2.795-1.305-4.695-1.502
							C14.284,5.873,13.561,5.839,12.748,5.839z"/>
						<path class="st1" d="M19.348,22.914c1.973,1.278,3.496,2.78,4.016,4.911c0.437,1.793,0.356,3.522-0.073,5.101
							c-0.54,1.987-2.081,3.688-4.291,4.53c-0.014,0.005-0.028,0.011-0.042,0.016c-1.306,0.491-2.735,0.829-4.204,1.16l-0.518,0.118
							c-1.685,0.384-3.424,0.779-5.114,0.779c-0.303,0-0.601-0.013-0.885-0.039c-1.819-0.165-4.216-0.936-4.982-2.58
							c-0.303-0.651-0.115-1.616,0.051-2.472c0.07-0.358,0.136-0.698,0.17-1.02c0.097-0.894,0.052-1.846,0.008-2.772
							c-0.096-2.046-0.188-4.003,1.116-5.417c0.974-1.057,3.132-1.565,5.042-2.015c0.514-0.121,1-0.236,1.451-0.358
							c1.487-0.402,3.323-0.693,5.016-0.693C17.801,22.165,18.441,22.518,19.348,22.914z"/>
					</g>
				</g>
			</g>
		</g>
	</g>
	<g>
		<g>
			<line class="st3" x1="74" y1="109" x2="74" y2="108"/>
			<line class="st4" x1="74" y1="105.981" x2="74" y2="2.009"/>
			<line class="st3" x1="74" y1="1" x2="74" y2="0"/>
		</g>
	</g>
	<g>
		<g>
			<line class="st3" x1="25.466" y1="16.769" x2="122.534" y2="16.769"/>
			<g>
				<path class="st5" d="M22.448,16.769c1.42,0.527,3.182,1.426,4.274,2.378l-0.86-2.378l0.86-2.377
					C25.63,15.344,23.868,16.243,22.448,16.769z"/>
			</g>
			<g>
				<path class="st5" d="M125.552,16.769c-1.42,0.527-3.182,1.426-4.274,2.378l0.86-2.378l-0.86-2.377
					C122.37,15.344,124.132,16.243,125.552,16.769z"/>
			</g>
		</g>
	</g>
	<g>
		<g>
			<line class="st3" x1="44.005" y1="71.132" x2="103.995" y2="71.132"/>
			<g>
				<path class="st5" d="M40.988,71.132c1.42,0.527,3.182,1.426,4.274,2.378l-0.86-2.378l0.86-2.377
					C44.169,69.706,42.408,70.605,40.988,71.132z"/>
			</g>
			<g>
				<path class="st5" d="M107.012,71.132c-1.42,0.527-3.182,1.426-4.274,2.378l0.86-2.378l-0.86-2.377
					C103.831,69.706,105.592,70.605,107.012,71.132z"/>
			</g>
		</g>
	</g>
	<g>
		<path class="st5" d="M85.531,51.921H62.469c-5.366,0-9.716-4.35-9.716-9.716V42.2c0-5.366,4.35-9.716,9.716-9.716h23.062
			c5.366,0,9.716,4.35,9.716,9.716v0.005C95.247,47.571,90.897,51.921,85.531,51.921z"/>
		<text transform="matrix(0.9995 0 0 1 65.0089 46.2352)" class="st2 st6 st7">넓음</text>
	</g>
</g>
</svg>
