<?xml version="1.0" encoding="utf-8"?>
<!-- Generator: Adobe Illustrator 26.0.3, SVG Export Plug-In . SVG Version: 6.00 Build 0)  -->
<svg version="1.1" id="Layer_1" xmlns="http://www.w3.org/2000/svg" xmlns:xlink="http://www.w3.org/1999/xlink" x="0px" y="0px"
	 viewBox="0 0 48 48" style="enable-background:new 0 0 48 48;" xml:space="preserve">
<style type="text/css">
	.st0{fill:none;}
	.st1{fill:#706F6E;}
</style>
<rect class="st0" width="48" height="48"/>
<g>
	<path class="st1" d="M12.037,16.872c3.534-4.176,8.288-6.558,10.584-11.924c0.22-0.584,0.778-0.928,1.378-0.928V4
		c0.678,0,1.238,0.444,1.438,1.05c2.256,5.246,7.07,7.708,10.524,11.824c3.654,4.318,5.012,10.29,3.314,15.798
		c-0.758,2.462-2.096,4.762-3.954,6.638c-6.19,6.254-16.474,6.254-22.644,0c-1.858-1.876-3.196-4.176-3.974-6.638
		C7.045,27.142,8.383,21.23,12.037,16.872L12.037,16.872z M15.411,24.176L15.411,24.176c0.24-0.544,0.52-1.07,0.858-1.574
		c0.34-0.504,0.718-0.968,1.138-1.412c0.36-0.344,0.36-0.928,0-1.292c-0.36-0.364-0.938-0.364-1.298,0
		c-0.5,0.504-0.958,1.07-1.358,1.674l0,0c-0.4,0.586-0.738,1.23-1.018,1.896c-0.2,0.464,0.02,1.008,0.5,1.21
		C14.673,24.862,15.231,24.66,15.411,24.176L15.411,24.176z M33.303,27.848L33.303,27.848c0,0.646-0.06,1.292-0.18,1.876
		c-0.12,0.606-0.32,1.21-0.56,1.796c-0.22,0.544-0.52,1.09-0.838,1.574c-0.34,0.504-0.718,0.968-1.138,1.392
		c-0.44,0.444-0.898,0.828-1.398,1.15l-0.04,0.04c-0.48,0.322-0.998,0.586-1.518,0.828c-0.46,0.182-0.678,0.746-0.48,1.19
		c0.2,0.464,0.718,0.686,1.198,0.484c0.64-0.282,1.258-0.606,1.838-1.008l0.04-0.02c0.6-0.404,1.178-0.868,1.678-1.372
		c0.48-0.504,0.938-1.07,1.358-1.654v-0.02c0.38-0.586,0.738-1.23,1.018-1.896c0.28-0.686,0.5-1.392,0.64-2.138
		c0.16-0.746,0.24-1.472,0.24-2.24c0-0.504-0.44-0.908-0.918-0.908C33.723,26.92,33.303,27.344,33.303,27.848L33.303,27.848z
		 M14.353,18.87L14.353,18.87c-2.996,3.552-4.134,8.354-2.736,12.872c0.64,1.998,1.718,3.854,3.234,5.366
		c5.012,5.084,13.32,5.064,18.332,0c1.478-1.514,2.576-3.37,3.196-5.346c1.378-4.52,0.24-9.342-2.736-12.892
		c-3.074-3.652-7.008-5.83-9.644-10.028C21.363,13.04,17.409,15.218,14.353,18.87L14.353,18.87z"/>
</g>
</svg>
