<?xml version="1.0" encoding="utf-8"?>
<!-- Generator: Adobe Illustrator 26.0.3, SVG Export Plug-In . SVG Version: 6.00 Build 0)  -->
<svg version="1.1" id="Layer_1" xmlns="http://www.w3.org/2000/svg" xmlns:xlink="http://www.w3.org/1999/xlink" x="0px" y="0px"
	 viewBox="0 0 48 48" style="enable-background:new 0 0 48 48;" xml:space="preserve">
<style type="text/css">
	.st0{fill:none;}
	.st1{fill:#6D6E70;}
</style>
<rect y="0" class="st0" width="48" height="48"/>
<g>
	<path class="st1" d="M20.12,35.308c0.5,0.92,0.72,1.958,0.64,2.978C20.62,41.462,17.98,44,14.8,44c-1.52,0-3.08-0.56-4.24-1.738
		c-0.64-0.64-1.1-1.378-1.38-2.178c-0.12-0.32-0.2-0.64-0.28-0.98c-0.32-0.06-0.64-0.14-0.98-0.26c-0.78-0.3-1.52-0.76-2.18-1.378
		l-0.08-0.08C4.54,36.188,4,34.69,4,33.21c0-3.196,2.52-5.814,5.72-5.974c1-0.04,2.04,0.16,2.98,0.64
		c2.68-2.298,5.28-4.676,7.84-7.172c2.54-2.518,5.02-5.154,7.38-7.932c-0.5-0.94-0.74-1.978-0.68-3.016C27.38,6.558,30.02,4,33.22,4
		c1.52,0,3.08,0.62,4.24,1.758c0.64,0.62,1.1,1.378,1.4,2.158c0.1,0.32,0.2,0.66,0.26,0.98c0.32,0.06,0.66,0.16,0.98,0.28
		c0.78,0.28,1.52,0.74,2.18,1.358C43.4,11.732,44,13.29,44,14.81c0,3.216-2.54,5.834-5.74,5.954c-1.04,0.04-2.08-0.18-3.02-0.68
		c-2.8,2.378-5.42,4.836-7.94,7.392C24.8,30.014,22.42,32.652,20.12,35.308L20.12,35.308z M17.7,38.166L17.7,38.166
		c0.04-0.7-0.18-1.398-0.62-1.958c-0.52-0.56-0.56-1.438-0.06-2.018c2.56-3.036,5.24-5.974,8.08-8.852
		c2.8-2.858,5.76-5.614,8.96-8.252c0.58-0.54,1.46-0.56,2.06-0.04c0.56,0.48,1.28,0.7,2.02,0.68c1.56-0.06,2.8-1.378,2.8-2.898
		c0-0.74-0.3-1.498-0.88-2.058v-0.04c-0.3-0.3-0.66-0.52-1.04-0.68c-0.38-0.14-0.82-0.2-1.22-0.18c-0.1,0.02-0.18,0.02-0.26,0
		c-0.86-0.06-1.48-0.8-1.42-1.638c0.04-0.42-0.02-0.86-0.16-1.258c-0.16-0.38-0.38-0.72-0.68-1.038c-0.56-0.56-1.34-0.84-2.08-0.84
		c-1.56,0-2.86,1.238-2.9,2.798c-0.02,0.7,0.2,1.418,0.7,1.978c0.46,0.56,0.48,1.398,0,1.978c-2.68,3.216-5.46,6.214-8.32,9.03
		c-2.86,2.838-5.84,5.494-8.86,8.072H13.8c-0.54,0.46-1.38,0.5-1.96,0.02c-0.58-0.5-1.28-0.68-1.98-0.66
		c-0.74,0.02-1.42,0.34-1.92,0.86c-0.36-0.32-0.86,1.918-0.86,2.058c0,0.72,0.26,1.438,0.8,1.998l0.06,0.04v0.02
		c0.3,0.3,0.66,0.52,1.04,0.66c0.38,0.14,0.84,0.2,1.22,0.16c0.08,0,0.18,0,0.26,0c0.86,0.06,1.48,0.8,1.42,1.638
		c-0.04,0.42,0.02,0.86,0.16,1.258c0.14,0.38,0.38,0.74,0.68,1.038c0.56,0.56,1.3,0.86,2.06,0.86
		C16.32,40.924,17.64,39.684,17.7,38.166L17.7,38.166z"/>
</g>
</svg>
