<?xml version="1.0" encoding="utf-8"?>
<!-- Generator: Adobe Illustrator 26.0.3, SVG Export Plug-In . SVG Version: 6.00 Build 0)  -->
<svg version="1.1" id="Layer_1" xmlns="http://www.w3.org/2000/svg" xmlns:xlink="http://www.w3.org/1999/xlink" x="0px" y="0px"
	 viewBox="0 0 48 48" style="enable-background:new 0 0 48 48;" xml:space="preserve">
<style type="text/css">
	.st0{fill:#706F6E;}
	.st1{fill:none;}
</style>
<g>
	<path class="st0" d="M16.8,22.506c0-2.16,0.675-3.24,2.268-4.374l0.086-0.054c0.623-0.468,1.264-1.008,1.264-2.808V7.368
		C20.434,6.612,21.007,6,21.768,6h0.034h4.466c0.725,0,1.314,0.612,1.314,1.368V7.44v7.848c0,1.872,0.693,2.358,1.332,2.844h0.018
		c1.161,0.846,2.268,1.638,2.268,4.374v18.09c0,0.792-0.607,1.404-1.35,1.404h-0.034H18.132c-0.725,0-1.332-0.612-1.332-1.404
		v-0.018V22.506L16.8,22.506z M19.466,34.692L19.466,34.692h9.068v-10.17h-9.068V34.692L19.466,34.692z M28.534,36.348
		L28.534,36.348h-9.068v2.898h9.068V36.348L28.534,36.348z M20.591,20.4L20.591,20.4c-0.572,0.396-1.125,0.792-1.143,2.07v0.036
		v0.36h9.07v-0.36c0-1.314-0.554-1.71-1.143-2.106c-1.107-0.81-2.268-1.656-2.457-4.302h-1.886c-0.191,2.592-1.3,3.456-2.407,4.248
		L20.591,20.4L20.591,20.4z M24.9,14.442L24.9,14.442v-5.67h-1.818v5.688H24.9V14.442z"/>
</g>
<rect class="st1" width="48" height="48"/>
</svg>
