<?xml version="1.0" encoding="utf-8"?>
<!-- Generator: Adobe Illustrator 26.0.3, SVG Export Plug-In . SVG Version: 6.00 Build 0)  -->
<svg version="1.1" id="Layer_1" xmlns="http://www.w3.org/2000/svg" xmlns:xlink="http://www.w3.org/1999/xlink" x="0px" y="0px"
	 viewBox="0 0 48 48" style="enable-background:new 0 0 48 48;" xml:space="preserve">
<style type="text/css">
	.st0{fill:none;}
	.st1{fill:#706F6E;}
</style>
<rect class="st0" width="48" height="48"/>
<g>
	<path class="st1" d="M39.048,28.498c-1.94-0.368-3.738-0.6-5.478-0.62c-2.598-0.058-5.158,0.31-7.976,1.298
		c-1.04,0.388-2.16,0.388-3.178,0c-2.84-0.988-5.38-1.356-7.958-1.298c-1.76,0.04-3.558,0.272-5.498,0.62
		c0.62,0.426,1.24,0.872,1.88,1.318c1.78,1.2,3.658,2.304,5.498,3.292c1.04,0.562,1.94,0.89,2.938,0.93
		c1.08,0.038,2.36-0.272,4.138-0.968c0.4-0.154,0.8-0.136,1.16,0c1.78,0.698,3.058,1.006,4.138,0.968c1-0.038,1.94-0.368,2.958-0.93
		c1.84-0.988,3.738-2.092,5.498-3.292C37.808,29.37,38.408,28.924,39.048,28.498L39.048,28.498z M22.094,21.992L22.094,21.992
		c-0.74-0.426-1.8-1.026-2.938-0.774c-1.26,0.29-2.24,0.522-3.178,0.756c-3.4,0.852-6.298,1.568-10.436,1.568
		c-1.48,0-2.06-1.782-1-2.614c0.66-0.62,6.038-5.44,9.836-8.112c4.698-3.292,7.456-1.298,8.936-0.254c0.74,0.522,0.62,0.562,1.4,0
		c1.44-1.046,4.198-3.04,8.896,0.252c4.058,2.846,9.896,8.132,9.896,8.132c1.04,0.948,0.3,2.576-1.02,2.576v0.02
		c-4.138,0-7.058-0.736-10.436-1.568c-0.94-0.232-1.94-0.484-3.198-0.756c-1.14-0.252-2.2,0.348-2.918,0.774
		C24.394,22.844,23.594,22.844,22.094,21.992L22.094,21.992z M24.634,19.262L24.634,19.262c1.16-0.638,2.718-1.432,4.878-0.948
		c1.04,0.212,2.2,0.504,3.258,0.774c1.84,0.446,3.518,0.852,5.318,1.124c-1.92-1.626-4.318-3.62-6.318-5.014
		c-2.858-2.014-4.438-0.872-5.258-0.272c-0.76,0.562-1.52,1.22-2.518,1.22c-1,0-1.78-0.638-2.518-1.182
		c-0.82-0.62-2.42-1.742-5.278,0.272c-1.98,1.374-4.4,3.388-6.318,5.014c1.82-0.29,3.498-0.698,5.318-1.142
		c1.1-0.272,2.24-0.562,3.278-0.774c2.08-0.464,3.638,0.252,4.778,0.89C24.054,19.67,23.854,19.708,24.634,19.262L24.634,19.262z
		 M33.61,24.916L33.61,24.916c2.918,0.038,5.858,0.562,9.196,1.316c1.18,0.252,1.62,1.742,0.7,2.536
		c-1.4,1.22-2.958,2.4-4.578,3.466c-1.9,1.278-3.858,2.44-5.738,3.446c-1.44,0.794-2.778,1.278-4.358,1.316
		c-1.4,0.038-2.898-0.252-4.818-0.988c-1.92,0.736-3.418,1.006-4.798,0.988c-1.6-0.038-2.918-0.522-4.378-1.316
		c-1.86-1.006-3.818-2.188-5.738-3.446c-1.6-1.046-3.118-2.208-4.498-3.388c-0.96-0.756-0.66-2.342,0.62-2.614
		c3.318-0.734,6.258-1.276,9.196-1.316c2.978-0.078,5.878,0.33,9.096,1.452c0.36,0.136,0.7,0.136,1.06,0
		C27.732,25.246,30.632,24.838,33.61,24.916L33.61,24.916z"/>
</g>
</svg>
