<?xml version="1.0" encoding="utf-8"?>
<!-- Generator: Adobe Illustrator 26.0.3, SVG Export Plug-In . SVG Version: 6.00 Build 0)  -->
<svg version="1.1" id="Layer_1" xmlns="http://www.w3.org/2000/svg" xmlns:xlink="http://www.w3.org/1999/xlink" x="0px" y="0px"
	 viewBox="0 0 24 16" style="enable-background:new 0 0 24 16;" xml:space="preserve">
<style type="text/css">
	.st0{fill:#706F6E;}
</style>
<path class="st0" d="M8.684,6.943h-0.02h-0.01l0,0h-0.01l-0.01,0.01h-0.02h-0.02L7.654,7.06c-0.1,0.01-0.2-0.01-0.28-0.049
	l-0.02-0.01l0,0c-0.53-0.244-1.01-0.361-1.48-0.352c-0.48,0.01-0.96,0.146-1.52,0.41c-0.28,0.127-0.6,0.029-0.73-0.244
	c-0.02-0.029-0.03-0.068-0.04-0.098c-0.03-0.146-0.04-0.332-0.04-0.547c0.01-0.41,0.1-0.967,0.26-1.445V4.697
	c0.21-0.566,0.55-1.045,1.05-1.162h0.01h0.03c0.09-0.02,0.18-0.029,0.26-0.029c0.1,0.01,0.18,0.029,0.25,0.068l0.31,0.127l0.03,0.01
	l0.08,0.049h0.02c0.42,0.195,0.73,0.146,0.91-0.01c0.18-0.146,0.28-0.391,0.3-0.635c0.03-0.234-0.01-0.469-0.12-0.615
	c-0.1-0.117-0.3-0.186-0.58-0.098h-0.01l0,0c-0.45,0.107-1.18,0.371-1.8,0.674c-0.4,0.195-0.75,0.41-0.88,0.586
	c-0.8,1.045-1.62,2.471-2.109,3.32c-0.2,0.332-0.33,0.576-0.42,0.703c-0.03,0.049-0.05,0.088-0.05,0.088v0.01v-0.01
	c0.03,0.078,0.12,0.146,0.33,0.273c0.17,0.098,0.35,0.225,0.58,0.391c0.82,0.586,2.219,1.592,3.609,1.406
	c2.569-0.352,3.509,5.508,3.519,5.527c0.05,0.293-0.15,0.547-0.45,0.605c-0.29,0.049-0.57-0.146-0.63-0.43
	c0-0.02-0.81-4.863-2.289-4.668c-1.83,0.264-3.469-0.918-4.409-1.592c-0.21-0.146-0.37-0.273-0.47-0.322
	c-0.46-0.254-0.72-0.537-0.82-0.85l0,0c-0.12-0.361-0.04-0.703,0.18-1.016c0.06-0.098,0.19-0.322,0.39-0.635
	c0.49-0.879,1.34-2.344,2.169-3.437c0.24-0.312,0.73-0.625,1.26-0.898c0.7-0.332,1.51-0.625,2-0.752
	c0.8-0.215,1.39,0.029,1.73,0.488c0.29,0.371,0.4,0.889,0.35,1.377c-0.06,0.478-0.28,0.967-0.65,1.289
	c-0.49,0.439-1.21,0.605-2.099,0.195v-0.01l-0.09-0.029v-0.01l-0.21-0.078c-0.08,0.068-0.15,0.234-0.23,0.43l-0.01,0.029
	c-0.08,0.234-0.14,0.498-0.17,0.732c0.41-0.127,0.79-0.195,1.18-0.205c0.6,0,1.19,0.127,1.84,0.391l0.8-0.078l0,0
	c0.1-0.029,0.58-0.117,0.88-0.176c-0.44-0.703-0.72-1.494-0.72-2.158c0-1.689,0.87-2.793,1.98-3.271C11.063,0.088,11.543,0,12.003,0
	s0.94,0.088,1.37,0.293c1.12,0.478,1.98,1.582,1.98,3.271c0,0.674-0.29,1.465-0.74,2.168c0.49,0.117,1.38,0.186,1.65,0.215
	c0.64-0.273,1.23-0.4,1.84-0.391c0.39,0.01,0.76,0.078,1.15,0.195c-0.03-0.234-0.08-0.459-0.15-0.684l-0.02-0.029
	c-0.06-0.195-0.13-0.342-0.21-0.43l-0.15,0.078l-0.01,0.01l-0.12,0.039c-0.91,0.43-1.64,0.254-2.129-0.186
	c-0.38-0.322-0.6-0.811-0.66-1.309c-0.05-0.498,0.06-1.025,0.34-1.396l0.04-0.039c0.36-0.439,0.94-0.674,1.73-0.469
	c0.48,0.137,1.3,0.41,1.99,0.762c0.55,0.254,1.04,0.576,1.28,0.898c0.84,1.084,1.69,2.558,2.199,3.428
	c0.17,0.303,0.3,0.518,0.38,0.625c0.22,0.332,0.31,0.674,0.18,1.055c-0.11,0.312-0.36,0.605-0.83,0.869
	c-0.1,0.059-0.27,0.186-0.46,0.322h-0.01c-0.94,0.674-2.579,1.855-4.429,1.601c-1.48-0.205-2.259,4.609-2.269,4.619
	c-0.03,0.303-0.33,0.518-0.64,0.478s-0.53-0.322-0.49-0.635c0-0.01,0.98-5.908,3.539-5.566c1.4,0.195,2.799-0.811,3.599-1.387
	c0.24-0.176,0.43-0.312,0.58-0.4c0.2-0.117,0.3-0.186,0.32-0.254L22.8,7.675c-0.07-0.098-0.22-0.361-0.42-0.713
	c-0.49-0.83-1.32-2.266-2.109-3.31c-0.13-0.166-0.48-0.371-0.87-0.576c-0.62-0.293-1.34-0.547-1.78-0.664
	c-0.28-0.078-0.46-0.029-0.55,0.068l-0.02,0.029c-0.1,0.137-0.14,0.361-0.11,0.586c0.03,0.234,0.12,0.478,0.28,0.615
	c0.19,0.166,0.48,0.205,0.89,0.01h0.01l0.14-0.059l0.03-0.01l0.27-0.117c0.07-0.049,0.17-0.068,0.27-0.068
	c0.1-0.01,0.19,0.01,0.28,0.029c0.51,0.127,0.85,0.605,1.06,1.182l0.01,0.02c0.18,0.478,0.26,1.035,0.27,1.455
	c0.01,0.215-0.01,0.41-0.04,0.557c-0.01,0.039-0.03,0.078-0.04,0.107c-0.14,0.283-0.48,0.391-0.77,0.273
	c-0.55-0.273-1.03-0.41-1.5-0.41c-0.46-0.01-0.93,0.098-1.47,0.342l-0.03,0.01h-0.01l0,0c-0.08,0.039-0.2,0.059-0.31,0.049
	c-0.62-0.068-1.78-0.146-2.419-0.43c-0.52,0.498-1.14,0.869-1.78,0.957c-0.05,0.01-0.11,0.01-0.16,0
	c-0.66-0.098-1.29-0.478-1.84-1.006C9.593,6.816,8.754,6.924,8.684,6.943L8.684,6.943L8.684,6.943z M11.083,1.25L11.083,1.25
	c-0.76,0.322-1.35,1.094-1.35,2.314c0,0.586,0.33,1.338,0.82,1.943c0.42,0.527,0.94,0.937,1.46,1.045
	c0.51-0.107,1.03-0.518,1.45-1.045c0.49-0.605,0.82-1.357,0.82-1.943c0-1.221-0.59-1.982-1.34-2.314
	c-0.28-0.127-0.6-0.195-0.93-0.195C11.673,1.055,11.363,1.123,11.083,1.25L11.083,1.25z M5.734,3.721L5.734,3.721l0.08,0.059
	C5.794,3.75,5.764,3.74,5.734,3.721L5.734,3.721z"/>
</svg>
