<?xml version="1.0" encoding="utf-8"?>
<!-- Generator: Adobe Illustrator 26.0.3, SVG Export Plug-In . SVG Version: 6.00 Build 0)  -->
<svg version="1.1" id="Layer_1" xmlns="http://www.w3.org/2000/svg" xmlns:xlink="http://www.w3.org/1999/xlink" x="0px" y="0px"
	 viewBox="0 0 48 48" style="enable-background:new 0 0 48 48;" xml:space="preserve">
<style type="text/css">
	.st0{fill:none;}
	.st1{fill:#706F6E;}
</style>
<rect class="st0" width="48" height="48"/>
<g>
	<g>
		<g>
			<path class="st1" d="M18.467,38c-0.311,0-0.626-0.079-0.913-0.243c-3.187-1.823-5.245-5.859-4.889-9.59
				c0.264-2.788,1.825-4.87,4.286-5.714c3.631-1.244,12.278-9.04,15.304-11.94c0.735-0.705,1.904-0.681,2.609,0.058
				c0.705,0.737,0.681,1.909-0.058,2.614c-1.172,1.125-11.609,11.037-16.66,12.766c-1.071,0.367-1.678,1.23-1.806,2.564
				c-0.189,1.998,0.898,4.798,3.045,6.029c0.887,0.507,1.193,1.636,0.688,2.522C19.731,37.666,19.108,38,18.467,38z"/>
		</g>
		<g>
			<path class="st1" d="M30.099,37.981c-1.02,0-1.846-0.828-1.846-1.85c0-2.247-2.361-3.409-2.462-3.458
				c-0.913-0.441-1.309-1.54-0.877-2.459c0.432-0.919,1.514-1.323,2.438-0.892c0.187,0.086,4.592,2.18,4.592,6.809
				C31.945,37.155,31.119,37.981,30.099,37.981z"/>
		</g>
	</g>
</g>
</svg>
