<?xml version="1.0" encoding="utf-8"?>
<!-- Generator: Adobe Illustrator 26.0.3, SVG Export Plug-In . SVG Version: 6.00 Build 0)  -->
<svg version="1.1" id="Layer_1" xmlns="http://www.w3.org/2000/svg" xmlns:xlink="http://www.w3.org/1999/xlink" x="0px" y="0px"
	 viewBox="0 0 48 48" style="enable-background:new 0 0 48 48;" xml:space="preserve">
<style type="text/css">
	.st0{fill:#6F6F6E;}
	.st1{fill:none;}
</style>
<g>
	<path class="st0" d="M37.442,31.947L37.442,31.947C26.737,31.909,16,31.924,5.262,31.916c-0.693-0.001-1.24,0.546-1.262,1.26
		l0.018,5.252l0.02-0.02c-0.021,0.694,0.536,1.251,1.219,1.262c10.726-0.004,21.443,0.004,32.17-0.002
		c0.714,0.022,1.271-0.534,1.261-1.259l0-0.084l0.003-5.127C38.704,32.515,38.136,31.947,37.442,31.947L37.442,31.947z M6.51,37.16
		L6.51,37.16l0.011-2.742l7.386,0.015l-0.003,2.732L6.51,37.16L6.51,37.16z M36.179,37.178L36.179,37.178l-19.763-0.002
		l-0.019-2.753l19.793,0.012L36.179,37.178L36.179,37.178z"/>
	<path class="st0" d="M34.794,14.139c0.506-0.462,1.258-0.462,1.735,0c0.478,0.478,0.478,1.243,0,1.735
		c-0.622,0.636-0.938,1.489-0.938,2.341c0,0.839,0.316,1.677,0.938,2.328c1.113,1.141,1.677,2.587,1.677,4.061
		c0,1.474-0.564,2.948-1.677,4.076c-0.477,0.462-1.228,0.462-1.735,0c-0.461-0.491-0.461-1.258,0-1.735l0,0
		c0.636-0.636,0.969-1.503,0.969-2.341c0-0.839-0.333-1.691-0.969-2.328c-1.098-1.113-1.662-2.587-1.662-4.061
		S33.696,15.267,34.794,14.139L34.794,14.139z"/>
	<path class="st0" d="M40.576,10.411L40.576,10.411c-0.448-0.463-0.448-1.273,0-1.734c0.505-0.463,1.256-0.463,1.735,0l0.071,0.072
		C43.451,9.863,44,11.307,44,12.753c0,1.459-0.564,2.933-1.69,4.046l0,0l-0.045,0.058c-0.622,0.607-0.91,1.446-0.91,2.283
		c0,0.867,0.318,1.691,0.955,2.328c0.477,0.477,0.477,1.256,0,1.733c-0.478,0.478-1.23,0.478-1.735,0
		c-1.085-1.113-1.662-2.615-1.662-4.061c0-1.431,0.549-2.875,1.617-3.988l0.044-0.058v-0.03h0.013
		c0.636-0.607,0.954-1.474,0.954-2.311c0-0.839-0.303-1.662-0.91-2.283L40.576,10.411L40.576,10.411z"/>
</g>
<rect class="st1" width="48" height="48"/>
</svg>
