<?xml version="1.0" encoding="utf-8"?>
<!-- Generator: Adobe Illustrator 26.0.3, SVG Export Plug-In . SVG Version: 6.00 Build 0)  -->
<svg version="1.1" id="Layer_1" xmlns="http://www.w3.org/2000/svg" xmlns:xlink="http://www.w3.org/1999/xlink" x="0px" y="0px"
	 viewBox="0 0 48 48" style="enable-background:new 0 0 48 48;" xml:space="preserve">
<style type="text/css">
	.st0{fill:none;}
	.st1{fill:#6D6E70;}
</style>
<rect class="st0" width="48" height="48"/>
<g>
	<g>
		<path class="st1" d="M11.41,11.66h25.168c0.784,0,1.422,0.62,1.422,1.4c0,0.08,0,0.16-0.02,0.24l-3.092,31.4
			c-0.082,0.94-0.536,1.76-1.196,2.34c-0.66,0.6-1.566,0.96-2.536,0.96H16.83c-0.968,0-1.876-0.36-2.514-0.94
			c-0.66-0.58-1.114-1.4-1.196-2.34L10.008,13.2c-0.082-0.76,0.494-1.44,1.278-1.54H11.41L11.41,11.66L11.41,11.66z M13.698,21.46
			L13.698,21.46c0.886-0.28,1.856-0.22,2.72,0.12l0.042,0.02c0.454,0.18,0.906,0.46,1.236,0.8l0.042,0.04
			c0.906,0.88,2.392,0.9,3.318,0.04l0.02-0.04c1.608-1.56,4.226-1.52,5.792,0l0.042,0.04c0.206,0.2,0.432,0.34,0.7,0.46l0.02,0.02
			c0.268,0.1,0.578,0.16,0.928,0.16c0.31,0,0.598-0.06,0.866-0.16l0.02-0.02c0.288-0.12,0.556-0.28,0.762-0.5l0.062-0.04
			c1.072-1.02,2.598-1.36,4.02-0.96l0.68-7H12.996L13.698,21.46L13.698,21.46z M34.124,23.18L34.124,23.18l-0.082-0.04
			c-0.866-0.36-1.876-0.16-2.536,0.46l-0.042,0.04c-0.372,0.36-0.824,0.66-1.32,0.86l-0.042,0.02c-0.474,0.18-0.99,0.3-1.504,0.3
			c-0.556,0-1.092-0.12-1.588-0.32l-0.02-0.02c-0.454-0.18-0.886-0.46-1.236-0.8l-0.042-0.04c-0.906-0.88-2.412-0.92-3.36,0
			l-0.02,0.04c-1.608,1.48-4.184,1.48-5.73-0.04L16.5,23.6c-0.186-0.18-0.432-0.34-0.68-0.46h-0.04
			c-0.556-0.24-1.216-0.24-1.794-0.02l-0.02,0.02l-0.082,0.04l2.082,21.28c0.02,0.2,0.144,0.4,0.288,0.56
			c0.144,0.12,0.35,0.2,0.578,0.2h14.326c0.226,0,0.432-0.08,0.598-0.2c0.144-0.14,0.248-0.34,0.288-0.56L34.124,23.18L34.124,23.18
			z"/>
		<path class="st1" d="M35.218,4.04L35.218,4.04c0.474,0,0.866,0.36,0.866,0.84c0,0.46-0.392,0.86-0.866,0.86
			c-0.494,0-0.886-0.38-0.886-0.86C34.352,4.42,34.744,4.04,35.218,4.04L35.218,4.04z"/>
		<path class="st1" d="M30.558,5.7L30.558,5.7C31.362,5.7,32,6.32,32,7.08s-0.638,1.4-1.442,1.4c-0.784,0-1.442-0.62-1.442-1.4
			S29.776,5.7,30.558,5.7L30.558,5.7z"/>
	</g>
	<path class="st1" d="M26.724,0L26.724,0c0.804,0,1.442,0.62,1.442,1.38c0,0.78-0.638,1.4-1.442,1.4c-0.784,0-1.422-0.62-1.422-1.4
		C25.302,0.62,25.942,0,26.724,0L26.724,0z"/>
</g>
</svg>
