<?xml version="1.0" encoding="utf-8"?>
<!-- Generator: Adobe Illustrator 26.0.3, SVG Export Plug-In . SVG Version: 6.00 Build 0)  -->
<svg version="1.1" id="Layer_1" xmlns="http://www.w3.org/2000/svg" xmlns:xlink="http://www.w3.org/1999/xlink" x="0px" y="0px"
	 viewBox="0 0 48 48" style="enable-background:new 0 0 48 48;" xml:space="preserve">
<style type="text/css">
	.st0{fill:none;}
	.st1{fill:#706F6E;}
</style>
<rect class="st0" width="48" height="48"/>
<g>
	<path class="st1" d="M13.84,11.2h20.32c1.6,0,3.072,0.637,4.112,1.638C39.344,13.824,40,15.219,40,16.736v14.53
		c0,1.531-0.656,2.912-1.728,3.928l-0.064,0.045c-1.072,0.97-2.496,1.562-4.048,1.562H13.84c-1.616,0-3.072-0.622-4.128-1.622
		l-0.016-0.014L9.68,35.149C8.64,34.162,8,32.766,8,31.264V16.736c0-1.531,0.656-2.912,1.696-3.912h0.016l0.016-0.03
		C10.784,11.822,12.24,11.2,13.84,11.2L13.84,11.2z M10.464,23.302L10.464,23.302h4.304l1.168-1.88
		c0.208-0.334,0.688-0.44,1.008-0.243c0.176,0.106,0.304,0.288,0.336,0.44l0.672,2.336l2.16-7.629
		c0.08-0.365,0.496-0.592,0.896-0.486c0.304,0.077,0.512,0.32,0.56,0.608l0.928,10.419l0.864-3.034
		c0.096-0.318,0.4-0.515,0.704-0.515h2.688c0.144-0.546,0.416-1.002,0.816-1.381l0.032-0.045c0.56-0.515,1.312-0.819,2.16-0.819
		c0.864,0,1.616,0.318,2.176,0.85c0.56,0.53,0.912,1.274,0.912,2.077c0,0.819-0.336,1.531-0.912,2.078l-0.048,0.03
		c-0.544,0.515-1.312,0.819-2.128,0.819c-0.864,0-1.648-0.318-2.192-0.864v0.014c-0.4-0.379-0.672-0.85-0.816-1.381H24.64
		l-1.776,6.339c-0.08,0.304-0.336,0.531-0.672,0.562c-0.4,0.03-0.768-0.274-0.8-0.653l-0.96-10.403l-1.76,6.309
		c-0.08,0.243-0.256,0.424-0.544,0.501c-0.4,0.106-0.8-0.122-0.896-0.501L16.32,23.56l-0.496,0.774
		c-0.128,0.213-0.368,0.363-0.64,0.363h-4.72v6.566c0,0.88,0.368,1.683,0.976,2.275h0.016c0.608,0.576,1.456,0.941,2.384,0.941
		h20.32c0.912,0,1.728-0.334,2.336-0.88l0.032-0.045c0.608-0.576,0.992-1.395,0.992-2.275V16.736c0-0.88-0.384-1.669-0.992-2.259
		c-0.608-0.576-1.456-0.941-2.384-0.941H13.84c-0.928,0-1.776,0.349-2.384,0.925l-0.016,0.014c-0.608,0.592-0.976,1.381-0.976,2.261
		V23.302L10.464,23.302z M30.896,22.909L30.896,22.909c-0.288-0.274-0.704-0.454-1.136-0.454s-0.832,0.166-1.12,0.41l-0.032,0.03
		c-0.272,0.258-0.448,0.653-0.464,1.062l0,0v0.03V24c0.016,0.41,0.192,0.789,0.464,1.062c0.304,0.274,0.704,0.454,1.168,0.454
		c0.416,0,0.816-0.166,1.104-0.41l0.032-0.03C31.2,24.819,31.376,24.41,31.376,24C31.36,23.576,31.184,23.197,30.896,22.909
		L30.896,22.909z"/>
</g>
</svg>
