<?xml version="1.0" encoding="utf-8"?>
<!-- Generator: Adobe Illustrator 26.0.3, SVG Export Plug-In . SVG Version: 6.00 Build 0)  -->
<svg version="1.1" id="Layer_1" xmlns="http://www.w3.org/2000/svg" xmlns:xlink="http://www.w3.org/1999/xlink" x="0px" y="0px"
	 viewBox="0 0 48 48" style="enable-background:new 0 0 48 48;" xml:space="preserve">
<style type="text/css">
	.st0{fill:none;}
	.st1{fill:#706F6E;}
</style>
<rect class="st0" width="48" height="48"/>
<g>
	<g>
		<g>
			<path class="st1" d="M13.983,46.96c0,0.557-0.48,1.014-1.048,1.014c-0.556,0-1.036-0.457-1.036-1.014
				c0-1.844,0.771-3.23,1.844-4.244c1.491-1.398,3.562-2.005,4.8-2.116c0.253-0.025,0.467-0.124,0.632-0.273
				c0.101-0.099,0.152-0.211,0.189-0.335c-0.973-0.792-1.427-1.868-1.794-2.784c-0.189-0.446-0.354-0.817-0.442-0.928l-0.025-0.013
				l-0.013-0.013h-0.013l0,0c-0.429-0.395-1.048-1.125-1.364-1.968c-0.328-0.829-0.404-1.744,0.076-2.586
				c-0.253-0.767-0.392-1.597-0.392-2.462c-0.013-1.101,0.164-2.216,0.518-3.243l0.051-0.087c0.505-1.435,1.352-2.487,2.451-3.205
				c1.162-0.779,2.602-1.138,4.232-1.163c0.606-0.013,1.427-0.025,2.236,0.124c0.922,0.16,1.794,0.508,2.324,1.238
				c1.086-0.099,2.034,0.495,2.779,1.362c0.909,1.04,1.566,2.549,1.705,3.452c0.114,0.668,0.114,1.362,0.013,2.092
				c-0.076,0.57-0.202,1.187-0.379,1.794c0.556,0.867,0.493,1.832,0.164,2.685c-0.328,0.841-0.922,1.584-1.364,1.968l-0.013,0.013
				l-0.013,0.013v0.013c-0.114,0.099-0.278,0.483-0.455,0.928c-0.366,0.903-0.796,1.968-1.743,2.747
				c0.025,0.136,0.101,0.273,0.202,0.371c0.152,0.149,0.379,0.235,0.632,0.273c1.225,0.111,3.309,0.717,4.787,2.116
				c1.061,1.014,1.844,2.4,1.844,4.257c0,0.556-0.467,1.013-1.036,1.013s-1.036-0.457-1.036-1.014c0-1.213-0.518-2.116-1.213-2.771
				c-1.099-1.027-2.627-1.497-3.537-1.559c-0.733-0.075-1.415-0.371-1.92-0.867c-0.556-0.532-1.352-2.549-0.316-3.192
				c0.733-0.421,1.112-1.336,1.415-2.116c0.291-0.681,0.518-1.275,0.998-1.695v0.013l0.013-0.013
				c0.253-0.222,0.644-0.681,0.834-1.187c0.152-0.371,0.177-0.755-0.076-1.014h0.013c-0.278-0.297-0.366-0.829-0.24-1.2
				c0.202-0.643,0.354-1.238,0.417-1.819c0.063-0.544,0.076-1.052-0.013-1.547c-0.088-0.606-0.556-1.659-1.225-2.425
				c-0.354-0.408-0.733-0.705-1.061-0.643c-0.366,0.049-0.72,0-1.036-0.149c-0.278-0.136-0.531-0.335-0.72-0.606l-0.063-0.075
				c-0.152-0.235-0.556-0.371-1.011-0.457c-0.606-0.111-1.301-0.099-1.819-0.075c-1.225,0.013-2.299,0.26-3.133,0.817
				c-0.72,0.47-1.276,1.187-1.642,2.19l-0.025,0.071c-0.278,0.805-0.429,1.683-0.417,2.549l0,0c0.013,0.767,0.139,1.509,0.392,2.141
				c0.114,0.198,0.164,0.446,0.114,0.668c-0.114,0.668-0.657,0.693-0.328,1.559c0.189,0.47,0.556,0.928,0.821,1.163l0.025,0.037
				h0.013c0.455,0.408,0.695,0.99,0.96,1.671c0.328,0.767,0.707,1.708,1.427,2.141c0.328,0.16,0.543,0.495,0.543,0.891
				c0,0.867-0.152,1.621-0.808,2.265c-0.48,0.495-1.175,0.792-1.933,0.867c-0.909,0.062-2.425,0.532-3.524,1.559
				C14.476,44.832,13.983,45.735,13.983,46.96L13.983,46.96z"/>
			<path class="st1" d="M17.785,13.352c0-0.557,0.467-1.003,1.036-1.003c0.581,0,1.023,0.457,1.036,1.014l-0.025,6.312
				c-0.013,0.57-0.48,1.014-1.061,1.014c-0.556,0-1.023-0.457-1.023-1.027L17.785,13.352L17.785,13.352z"/>
			<g>
				<path class="st1" d="M22.143,13.352c0-0.557,0.467-1.003,1.036-1.003c0.581,0,1.023,0.457,1.036,1.014l-0.025,6.323
					c-0.013,0.57-0.48,1.014-1.061,1.014c-0.556,0-1.023-0.457-1.023-1.027L22.143,13.352L22.143,13.352z"/>
			</g>
			<g>
				<path class="st1" d="M26.122,13.352c0-0.557,0.467-1.003,1.036-1.003c0.581,0,1.023,0.457,1.036,1.014l-0.025,6.323
					c-0.013,0.57-0.48,1.014-1.061,1.014c-0.556,0-1.023-0.457-1.023-1.027L26.122,13.352L26.122,13.352z"/>
			</g>
		</g>
		<path class="st1" d="M36.96,7.412c-1.364-1.336-3.259-2.165-5.318-2.165L31.364,5.26c-0.821-1.473-2.008-2.722-3.436-3.651
			C26.324,0.594,24.429,0,22.383,0c-2.804,0-5.368,1.114-7.213,2.933c-1.579,1.535-2.64,3.601-2.905,5.89
			c-2.021,0.94-3.423,2.944-3.423,5.271c0,3.23,2.678,5.853,5.975,5.853c0.303,0-0.341,0,0.328,0.013
			c0.568,0,1.023-0.446,1.023-0.99l0,0c0-0.544-0.455-0.99-1.011-0.99c-0.682-0.013-0.038-0.013-0.354-0.013
			c-2.173,0-3.941-1.732-3.941-3.86c0-1.93,1.465-3.527,3.36-3.811c0-0.099-0.013-0.198-0.013-0.297c0-4.43,3.663-8.019,8.185-8.019
			c3.448,0,6.392,2.092,7.604,5.049c0.227,0.235,0.556,0.346,0.897,0.309c0.101-0.013,0.24-0.025,0.354-0.037
			c0.101-0.013,0.24-0.013,0.379-0.013c1.491,0,2.855,0.594,3.84,1.559c0.985,0.965,1.604,2.289,1.604,3.774
			c0,1.473-0.619,2.809-1.604,3.774c-0.985,0.952-2.349,1.559-3.84,1.559h-1.112c-0.568,0-1.036,0.457-1.036,1.014l0,0
			c0,0.557,0.467,1.014,1.036,1.014h1.112c2.059,0,3.941-0.817,5.318-2.154c1.364-1.324,2.211-3.179,2.211-5.209
			S38.312,8.736,36.96,7.412z"/>
	</g>
</g>
</svg>
