<?xml version="1.0" encoding="utf-8"?>
<!-- Generator: Adobe Illustrator 26.0.3, SVG Export Plug-In . SVG Version: 6.00 Build 0)  -->
<svg version="1.1" id="Layer_1" xmlns="http://www.w3.org/2000/svg" xmlns:xlink="http://www.w3.org/1999/xlink" x="0px" y="0px"
	 viewBox="0 0 48 48" style="enable-background:new 0 0 48 48;" xml:space="preserve">
<style type="text/css">
	.st0{fill:none;}
	.st1{fill:#706F6E;}
</style>
<rect class="st0" width="48" height="48"/>
<g>
	<path class="st1" d="M39.356,21.02v0.419c3.654,2.133,3.474,7.695-0.252,9.592c0.18,0.401,0.252,0.875,0.252,1.35v2.444
		c0,1.951-1.602,3.575-3.528,3.575H12.177c-1.926,0-3.546-1.624-3.546-3.575v-2.425c0-0.473,0.09-0.931,0.252-1.35
		c-3.69-1.915-3.906-7.421-0.252-9.592V21.02C8.633,5.792,39.356,5.792,39.356,21.02L39.356,21.02z M19.773,14.492L19.773,14.492
		c0.45,0,0.846,0.383,0.846,0.857c0,0.455-0.378,0.839-0.846,0.839c-0.468-0.018-0.81-0.383-0.81-0.857
		C18.963,14.875,19.305,14.492,19.773,14.492L19.773,14.492z M20.997,17.373L20.997,17.373c0.45,0,0.846,0.383,0.846,0.857
		c0,0.455-0.378,0.839-0.846,0.839c-0.468,0-0.846-0.383-0.846-0.839C20.151,17.755,20.529,17.373,20.997,17.373L20.997,17.373z
		 M28.736,17.3L28.736,17.3c0.468,0,0.846,0.365,0.846,0.839s-0.378,0.839-0.846,0.839c-0.468,0-0.846-0.365-0.846-0.839
		C27.89,17.645,28.268,17.3,28.736,17.3L28.736,17.3z M32.354,16.169L32.354,16.169c0.45,0,0.846,0.365,0.846,0.857
		c0,0.455-0.378,0.839-0.846,0.839c-0.468,0-0.81-0.383-0.81-0.839C31.526,16.533,31.886,16.169,32.354,16.169L32.354,16.169z
		 M27.836,13.944L27.836,13.944c0.45,0,0.846,0.365,0.846,0.839c0,0.473-0.378,0.857-0.846,0.857c-0.468,0-0.846-0.383-0.846-0.857
		C26.99,14.29,27.368,13.944,27.836,13.944L27.836,13.944z M23.984,14.29L23.984,14.29c0.468,0,0.846,0.383,0.846,0.857
		c0,0.455-0.36,0.839-0.846,0.839c-0.45,0-0.846-0.383-0.846-0.839C23.138,14.673,23.534,14.29,23.984,14.29L23.984,14.29z
		 M15.795,15.768L15.795,15.768c0.45,0,0.846,0.383,0.846,0.857c0,0.455-0.378,0.857-0.846,0.857c-0.468,0-0.846-0.383-0.846-0.857
		C14.949,16.151,15.327,15.768,15.795,15.768L15.795,15.768z M37.484,23.664L37.484,23.664H10.523
		c-2.7,0.893-2.124,5.143,0.792,5.143h25.362C39.59,28.807,40.202,24.575,37.484,23.664L37.484,23.664z M11.421,20.711
		L11.421,20.711h25.146C36.116,9.641,11.871,9.641,11.421,20.711L11.421,20.711z M35.828,31.633L35.828,31.633H12.177
		c-0.432,0-0.756,0.346-0.756,0.767v2.444c0,0.401,0.324,0.767,0.756,0.767h23.652c0.414,0,0.756-0.346,0.756-0.767V32.4
		C36.584,31.98,36.242,31.633,35.828,31.633L35.828,31.633z"/>
</g>
</svg>
