<?xml version="1.0" encoding="utf-8"?>
<!-- Generator: Adobe Illustrator 26.0.3, SVG Export Plug-In . SVG Version: 6.00 Build 0)  -->
<svg version="1.1" id="Layer_1" xmlns="http://www.w3.org/2000/svg" xmlns:xlink="http://www.w3.org/1999/xlink" x="0px" y="0px"
	 viewBox="0 0 119 109" style="enable-background:new 0 0 119 109;" xml:space="preserve">
<style type="text/css">
	.st0{opacity:0.5;}
	.st1{fill:#FFFFFF;stroke:#010101;stroke-width:0.5;stroke-miterlimit:10;}
	.st2{fill:#FFFFFF;}
	.st3{fill:none;stroke:#1B449C;stroke-miterlimit:10;}
	.st4{fill:none;stroke:#1B449C;stroke-miterlimit:10;stroke-dasharray:2.0189,2.0189;}
	.st5{fill:#1B449C;}
	.st6{font-family:'NotoSansCJKkr-Medium-KSCpc-EUC-H';}
	.st7{font-size:10.5302px;}
</style>
<g>
	<g class="st0">
		<g>
			<g>
				<g>
					<g>
						<path class="st1" d="M65.229,88.454c1.02-0.009,2.049,0.41,2.975,1.213c1.142,0.989,1.826,2.066,2.488,3.106l0.08,0.125
							c1.053,1.654,2.141,3.364,2.408,5.133c0.034,0.222,0.04,0.551-0.118,0.857c-0.541,1.049-2.392,1.658-3.497,2.022l-0.128,0.042
							c-0.93,0.307-1.777,0.531-2.587,0.686c-0.784,0.092-1.816,0.198-2.875,0.207c-1.312,0.012-2.399-0.125-3.324-0.42
							c-0.156-0.05-0.532-0.197-0.643-0.491c-0.049-0.131-0.051-0.302-0.048-0.496c0.046-3.235,0.848-7.149,1.565-8.921
							c0.513-1.268,1.439-2.347,2.038-2.658c0.479-0.248,1.007-0.385,1.569-0.405C65.164,88.455,65.196,88.455,65.229,88.454z"/>
						<path class="st1" d="M75.454,85.712c0.9-0.275,1.919-0.172,2.946,0.296c1.266,0.577,2.149,1.351,3.004,2.099l0.103,0.09
							c1.359,1.189,2.764,2.418,3.457,3.914c0.087,0.188,0.178,0.477,0.117,0.789c-0.208,1.07-1.689,2.092-2.573,2.703l-0.102,0.071
							c-0.744,0.515-1.435,0.935-2.113,1.283c-0.67,0.286-1.557,0.649-2.491,0.934c-1.158,0.353-2.156,0.516-3.05,0.497
							c-0.151-0.003-0.522-0.036-0.696-0.266c-0.078-0.103-0.123-0.254-0.171-0.426c-0.795-2.875-1.095-6.549-0.918-8.305
							c0.127-1.257,0.668-2.454,1.118-2.885c0.36-0.345,0.792-0.603,1.284-0.768C75.397,85.73,75.426,85.721,75.454,85.712z"/>
						<path class="st1" d="M85.065,78.287c0.67,0,1.349,0.151,1.866,0.283c1.418,0.362,2.806,0.892,4.124,1.577
							c1.452,0.755,2.538,2.068,2.98,3.603c1.119,3.888-2.381,7.195-5.962,7.67c-0.834,0.111-1.742,0.097-2.483-0.355
							c-0.712-0.434-1.129-1.278-1.474-2.125c-0.867-2.13-1.462-4.357-1.768-6.617c-0.139-1.029-0.211-2.316,0.473-3.142
							c0.397-0.479,1.063-0.797,1.826-0.874C84.782,78.294,84.922,78.287,85.065,78.287z"/>
						<path class="st1" d="M92.611,68.328c0.562,0,1.148,0.083,1.742,0.248c1.211,0.336,2.344,0.975,3.196,1.493
							c1.003,0.611,2.027,1.31,2.725,2.286c0.651,0.911,0.982,2.03,0.93,3.152c-0.052,1.121-0.484,2.205-1.216,3.052
							c-0.979,1.131-2.536,1.806-4.166,1.806c-0.418,0-0.832-0.044-1.231-0.132c-1.879-0.413-3.61-1.763-4.631-3.611
							c-0.788-1.424-1.178-3.138-1.129-4.957c0.036-1.335,0.816-2.514,1.988-3.004c0.07-0.029,0.142-0.057,0.215-0.082
							C91.517,68.413,92.048,68.328,92.611,68.328z"/>
						<path class="st1" d="M97.377,57.523c0.762,0,1.613,0.106,2.602,0.325c1.811,0.4,3.244,0.963,4.383,1.722
							c1.383,0.922,2.368,2.177,2.772,3.535c0.341,1.145,0.275,2.433-0.183,3.536c-0.457,1.103-1.321,2.058-2.369,2.619
							c-0.796,0.426-1.741,0.652-2.734,0.652c-0.806,0-1.646-0.149-2.43-0.431c-1.546-0.555-3.035-1.624-4.424-3.176
							c-0.856-0.956-1.469-1.865-1.874-2.778c-0.212-0.477-0.369-0.975-0.468-1.479c-0.224-1.145,0.103-2.293,0.877-3.069
							c0.427-0.428,0.916-0.765,1.455-1.001C95.681,57.672,96.464,57.523,97.377,57.523z"/>
						<path class="st1" d="M104.844,39.37c1.618,0.177,3.204,0.699,4.463,1.469c1.967,1.202,3.304,3.17,3.577,5.262
							c0.144,1.102,0.003,2.229-0.409,3.259c-0.172,0.432-0.352,0.726-0.565,0.926l-0.037,0.033
							c-0.748,0.646-1.179,1.613-1.18,2.653c-0.001,1.014-0.11,2.106-0.885,3.225c-0.953,1.376-2.793,2.131-4.688,1.923
							c-0.058-0.006-0.117-0.014-0.175-0.022c-1.591-0.226-3.233-1.061-5.022-2.554c-1.146-0.956-1.878-1.782-2.374-2.679
							c-0.707-1.276-1.26-2.358-1.409-3.684c-0.107-0.952-0.073-1.988,0.109-3.358c0.168-1.261,0.443-2.705,1.216-3.845
							c0.57-0.841,1.416-1.522,2.448-1.968C101.318,39.403,103.07,39.176,104.844,39.37z"/>
						<path class="st1" d="M108.75,5.839c0.809,0,1.619,0.051,2.517,0.113c1.746,0.12,3.402,0.316,4.472,1.379
							c0.734,0.729,1.104,1.822,1.431,2.786c0.267,0.789,0.523,1.31,0.771,1.815c0.244,0.497,0.475,0.967,0.721,1.693
							c0.17,0.502,0.34,2.068,0.339,2.658c-0.002,0.585-0.16,1.207-0.5,1.96c-0.345,0.765-0.671,1.443-1.164,1.981
							c-0.889,0.97-2.345,1.494-4.329,1.558c-0.15,0.005-0.299,0.007-0.449,0.007c-3.088,0-5.92-0.987-7.974-2.778
							c-2.153-1.878-3.463-4.695-3.504-7.536c-0.03-2.065,0.985-3.084,2.119-4.03c0.942-0.786,2.247-1.305,3.775-1.502
							C107.515,5.873,108.096,5.839,108.75,5.839z"/>
						<path class="st1" d="M103.443,22.914c-1.586,1.278-2.811,2.78-3.229,4.911c-0.352,1.793-0.286,3.522,0.059,5.101
							c0.434,1.987,1.673,3.688,3.451,4.53c0.011,0.005,0.023,0.011,0.034,0.016c1.05,0.491,2.199,0.829,3.38,1.16l0.417,0.118
							c1.355,0.384,2.753,0.779,4.112,0.779c0.244,0,0.483-0.013,0.712-0.039c1.463-0.165,3.39-0.936,4.006-2.58
							c0.244-0.651,0.093-1.616-0.041-2.472c-0.056-0.358-0.109-0.698-0.137-1.02c-0.078-0.894-0.042-1.846-0.007-2.772
							c0.077-2.046,0.151-4.003-0.897-5.417c-0.783-1.057-2.518-1.565-4.054-2.015c-0.413-0.121-0.804-0.236-1.166-0.358
							c-1.196-0.402-2.672-0.693-4.033-0.693S104.173,22.518,103.443,22.914z"/>
					</g>
					<g>
						<path class="st1" d="M53.771,88.454c-1.02-0.009-2.048,0.41-2.975,1.213c-1.142,0.989-1.826,2.066-2.488,3.106l-0.08,0.125
							c-1.053,1.654-2.141,3.364-2.409,5.133c-0.033,0.222-0.04,0.551,0.118,0.857c0.541,1.049,2.392,1.658,3.497,2.022l0.128,0.042
							c0.93,0.307,1.777,0.531,2.587,0.686c0.784,0.092,1.816,0.198,2.875,0.207c1.312,0.012,2.399-0.125,3.324-0.42
							c0.156-0.05,0.532-0.197,0.643-0.491c0.05-0.131,0.051-0.302,0.049-0.496c-0.046-3.235-0.848-7.149-1.565-8.921
							c-0.513-1.268-1.439-2.347-2.038-2.658c-0.479-0.248-1.007-0.385-1.569-0.405C53.836,88.455,53.804,88.455,53.771,88.454z"/>
						<path class="st1" d="M43.546,85.712c-0.9-0.275-1.919-0.172-2.946,0.296c-1.266,0.577-2.15,1.351-3.004,2.099l-0.103,0.09
							c-1.359,1.189-2.764,2.418-3.457,3.914c-0.087,0.188-0.178,0.477-0.117,0.789c0.208,1.07,1.689,2.092,2.573,2.703l0.102,0.071
							c0.744,0.515,1.435,0.935,2.113,1.283c0.67,0.286,1.557,0.649,2.491,0.934c1.158,0.353,2.156,0.516,3.05,0.497
							c0.151-0.003,0.522-0.036,0.696-0.266c0.078-0.103,0.123-0.254,0.171-0.426c0.795-2.875,1.095-6.549,0.918-8.305
							c-0.127-1.257-0.668-2.454-1.118-2.885c-0.36-0.345-0.792-0.603-1.284-0.768C43.602,85.73,43.574,85.721,43.546,85.712z"/>
						<path class="st1" d="M33.935,78.287c-0.67,0-1.349,0.151-1.866,0.283c-1.418,0.362-2.806,0.892-4.124,1.577
							c-1.452,0.755-2.538,2.068-2.98,3.603c-1.119,3.888,2.381,7.195,5.962,7.67c0.834,0.111,1.742,0.097,2.483-0.355
							c0.712-0.434,1.129-1.278,1.474-2.125c0.867-2.13,1.462-4.357,1.768-6.617c0.139-1.029,0.211-2.316-0.473-3.142
							c-0.397-0.479-1.063-0.797-1.826-0.874C34.218,78.294,34.078,78.287,33.935,78.287z"/>
						<path class="st1" d="M26.389,68.328c-0.562,0-1.148,0.083-1.742,0.248c-1.211,0.336-2.344,0.975-3.196,1.493
							c-1.003,0.611-2.027,1.31-2.725,2.286c-0.652,0.911-0.982,2.03-0.93,3.152c0.052,1.121,0.483,2.205,1.216,3.052
							c0.979,1.131,2.536,1.806,4.166,1.806c0.418,0,0.832-0.044,1.231-0.132c1.879-0.413,3.61-1.763,4.632-3.611
							c0.788-1.424,1.178-3.138,1.129-4.957c-0.036-1.335-0.816-2.514-1.988-3.004c-0.07-0.029-0.142-0.057-0.215-0.082
							C27.483,68.413,26.952,68.328,26.389,68.328z"/>
						<path class="st1" d="M21.623,57.523c-0.762,0-1.613,0.106-2.602,0.325c-1.811,0.4-3.244,0.963-4.383,1.722
							c-1.383,0.922-2.368,2.177-2.772,3.535c-0.341,1.145-0.275,2.433,0.183,3.536c0.457,1.103,1.321,2.058,2.369,2.619
							c0.796,0.426,1.741,0.652,2.734,0.652c0.806,0,1.646-0.149,2.43-0.431c1.546-0.555,3.035-1.624,4.424-3.176
							c0.856-0.956,1.469-1.865,1.874-2.778c0.212-0.477,0.369-0.975,0.468-1.479c0.224-1.145-0.103-2.293-0.877-3.069
							c-0.427-0.428-0.916-0.765-1.455-1.001C23.319,57.672,22.536,57.523,21.623,57.523z"/>
						<path class="st1" d="M14.156,39.37c-1.618,0.177-3.203,0.699-4.463,1.469c-1.967,1.202-3.304,3.17-3.577,5.262
							c-0.144,1.102-0.003,2.229,0.409,3.259c0.172,0.432,0.352,0.726,0.565,0.926l0.037,0.033c0.748,0.646,1.179,1.613,1.18,2.653
							c0.001,1.014,0.11,2.106,0.885,3.225c0.953,1.376,2.793,2.131,4.688,1.923c0.058-0.006,0.117-0.014,0.175-0.022
							c1.591-0.226,3.233-1.061,5.022-2.554c1.146-0.956,1.878-1.782,2.374-2.679c0.707-1.276,1.26-2.358,1.409-3.684
							c0.107-0.952,0.073-1.988-0.109-3.358c-0.168-1.261-0.443-2.705-1.216-3.845c-0.57-0.841-1.416-1.522-2.448-1.968
							C17.682,39.403,15.93,39.176,14.156,39.37z"/>
						<path class="st1" d="M10.25,5.839c-0.809,0-1.619,0.051-2.517,0.113C5.987,6.072,4.332,6.268,3.262,7.33
							c-0.734,0.729-1.104,1.822-1.431,2.786c-0.267,0.789-0.523,1.31-0.771,1.815c-0.244,0.497-0.475,0.967-0.721,1.693
							c-0.17,0.502-0.34,2.068-0.339,2.658c0.001,0.585,0.16,1.207,0.5,1.96c0.345,0.765,0.671,1.443,1.164,1.981
							c0.889,0.97,2.345,1.494,4.329,1.558c0.149,0.005,0.299,0.007,0.449,0.007c3.088,0,5.92-0.987,7.974-2.778
							c2.153-1.878,3.463-4.695,3.504-7.536c0.03-2.065-0.985-3.084-2.119-4.03c-0.942-0.786-2.247-1.305-3.775-1.502
							C11.485,5.873,10.904,5.839,10.25,5.839z"/>
						<path class="st1" d="M15.557,22.914c1.586,1.278,2.811,2.78,3.229,4.911c0.352,1.793,0.286,3.522-0.059,5.101
							c-0.434,1.987-1.673,3.688-3.451,4.53c-0.011,0.005-0.023,0.011-0.034,0.016c-1.05,0.491-2.199,0.829-3.38,1.16l-0.417,0.118
							c-1.355,0.384-2.753,0.779-4.112,0.779c-0.244,0-0.483-0.013-0.712-0.039c-1.463-0.165-3.39-0.936-4.006-2.58
							c-0.244-0.651-0.093-1.616,0.041-2.472c0.056-0.358,0.109-0.698,0.137-1.02c0.078-0.894,0.042-1.846,0.007-2.772
							c-0.077-2.046-0.151-4.003,0.897-5.417c0.783-1.057,2.518-1.565,4.054-2.015c0.413-0.121,0.804-0.236,1.166-0.358
							c1.196-0.402,2.672-0.693,4.033-0.693S14.827,22.518,15.557,22.914z"/>
					</g>
				</g>
			</g>
		</g>
	</g>
	<g>
		<g>
			<line class="st3" x1="59.466" y1="109" x2="59.466" y2="108"/>
			<line class="st4" x1="59.466" y1="105.981" x2="59.466" y2="2.009"/>
			<line class="st3" x1="59.466" y1="1" x2="59.466" y2="0"/>
		</g>
	</g>
	<g>
		<g>
			<line class="st3" x1="23.386" y1="16.769" x2="94.132" y2="16.769"/>
			<g>
				<path class="st5" d="M20.369,16.769c1.42,0.527,3.182,1.426,4.274,2.378l-0.86-2.378l0.86-2.377
					C23.55,15.344,21.789,16.243,20.369,16.769z"/>
			</g>
			<g>
				<path class="st5" d="M97.15,16.769c-1.42,0.527-3.182,1.426-4.274,2.378l0.86-2.378l-0.86-2.377
					C93.968,15.344,95.73,16.243,97.15,16.769z"/>
			</g>
		</g>
	</g>
	<g>
		<g>
			<line class="st3" x1="38.793" y1="74.347" x2="79.238" y2="74.347"/>
			<g>
				<path class="st5" d="M35.775,74.347c1.42,0.527,3.182,1.426,4.274,2.378l-0.86-2.378l0.86-2.377
					C38.957,72.922,37.195,73.821,35.775,74.347z"/>
			</g>
			<g>
				<path class="st5" d="M82.255,74.347c-1.42,0.527-3.182,1.426-4.274,2.378l0.86-2.378l-0.86-2.377
					C79.074,72.922,80.835,73.821,82.255,74.347z"/>
			</g>
		</g>
	</g>
	<g>
		<path class="st5" d="M70.909,54.849H48.024c-5.351,0-9.69-4.338-9.69-9.69v-0.058c0-5.351,4.338-9.69,9.69-9.69h22.885
			c5.351,0,9.69,4.338,9.69,9.69v0.058C80.599,50.511,76.26,54.849,70.909,54.849z"/>
		<text transform="matrix(0.9941 0 0 1 50.5239 49.1654)" class="st2 st6 st7">보통</text>
	</g>
</g>
</svg>
