<?xml version="1.0" encoding="utf-8"?>
<!-- Generator: Adobe Illustrator 26.0.3, SVG Export Plug-In . SVG Version: 6.00 Build 0)  -->
<svg version="1.1" id="Layer_1" xmlns="http://www.w3.org/2000/svg" xmlns:xlink="http://www.w3.org/1999/xlink" x="0px" y="0px"
	 viewBox="0 0 48 48" style="enable-background:new 0 0 48 48;" xml:space="preserve">
<style type="text/css">
	.st0{fill:none;}
	.st1{fill:#706F6E;}
</style>
<rect y="0" class="st0" width="48" height="48"/>
<g>
	<path class="st1" d="M21.036,25.707c-0.4-0.338-0.84-0.636-1.28-0.896c1.32-1.792,3.242-5.194,2.282-8.836l-0.02-0.02l-0.02-0.02
		v-0.04l0,0v-0.02l0,0l-0.02-0.04v-0.04l0,0v-0.02h-0.02l-0.02-0.02l0,0l0,0l0,0l-0.02-0.02v-0.02l-0.02-0.02l-0.02-0.02l0,0l0,0
		l-0.02-0.02l0,0v-0.02h-0.02v-0.038l-0.02-0.02l-0.02-0.02v-0.02l0,0l-0.02-0.02h0.02v-0.02l-0.04-0.02l-0.02-0.02v-0.02h-0.02
		l-0.02-0.02l-0.04-0.04l-0.02-0.02h-0.02l-0.02-0.02h-0.02l-0.02-0.02l0,0l-0.12-0.06h-0.02h-0.02v-0.02l-0.08-0.02h-0.02l0,0
		h-0.02l-0.04-0.02h-0.02h-0.02l0,0h-0.14l0,0h-0.02h-0.02h-0.02l-0.04,0.02h-0.02h-0.02l-0.02,0.02h-0.02h-0.02l-0.02,0.02h-0.02
		l0,0h-0.02v0.02h-0.02h-0.02l0,0l-0.04,0.02l-0.02,0.02l0,0h-0.02l0,0l-0.02,0.02l0,0h-0.02h-0.02v0.02h-0.02l0,0l-0.04,0.02
		l-0.022,0.02l-0.02,0.04l-0.02,0.02l-0.02,0.02l-0.02,0.02l-0.02,0.02v0.02h-0.02v0.02l-0.04,0.04l-0.02,0.02v0.02h-0.02l0,0
		l-0.02,0.02l0,0v0.02l-0.02,0.02l-0.02,0.06l-0.02,0.06h-0.02v0.02l0,0v0.02l-0.02,0.08l0,0v0.02v0.02v0.02l-0.02,0.02v0.02l0,0
		l0,0v0.06c-0.1,2.21-1.16,3.364-2.322,3.98c0.66-1.552,0.8-3.224,0.46-4.716h0.02c-0.4-1.85-1.5-3.502-3.222-4.458
		c-1.72-0.996-3.702-1.134-5.502-0.578c-1.74,0.578-3.362,1.812-4.402,3.582c-1.58,2.726-1.58,7.642-0.32,12.26
		c0.58,2.23,1.48,4.398,2.602,6.27c2.14,3.542,5.722,6.468,10.104,5.294c3.782-0.996,6.562-4.796,5.502-8.738
		C22.756,27.677,22.016,26.563,21.036,25.707L21.036,25.707z M19.816,21.029L19.816,21.029c-0.4,0.936-0.88,1.732-1.34,2.388
		c-0.16-0.478-0.38-0.916-0.66-1.314C18.474,21.865,19.176,21.527,19.816,21.029L19.816,21.029z M16.814,34.783L16.814,34.783
		c-3.002,0.796-5.302-1.632-6.684-3.94c-0.98-1.592-1.74-3.502-2.262-5.454c-1.04-3.92-1.16-7.922,0-9.932v-0.02
		c0.64-1.094,1.62-1.85,2.682-2.19c1-0.318,2.1-0.238,3.022,0.278c0.94,0.538,1.54,1.434,1.78,2.468l0,0
		c0.24,1.094,0.06,2.328-0.58,3.424c-0.22,0.378-0.5,0.736-0.8,1.054c-0.2,0.14-0.36,0.358-0.44,0.578
		c-0.34,0.756,0,1.672,0.78,2.03c0.9,0.398,1.48,1.154,1.32,2.19c-0.14,0.836,0.44,1.612,1.26,1.732c0.8,0.16,1.52,0.498,2.12,0.996
		c0.52,0.458,0.92,1.074,1.1,1.772C20.756,32.095,18.976,34.205,16.814,34.783L16.814,34.783z M42.846,14.023L42.846,14.023
		l-0.04-0.1c-1-1.712-2.562-2.946-4.282-3.522l-0.14-0.06c-1.8-0.538-3.742-0.418-5.442,0.538l-0.04,0.04
		c-1.722,0.956-2.842,2.608-3.242,4.458c-0.32,1.492-0.18,3.164,0.48,4.716c-1.12-0.616-2.22-1.772-2.342-3.98v-0.06v-0.02l0,0
		v-0.02v-0.02v-0.02v-0.02l-0.02-0.02l0,0l0,0l-0.02-0.08l-0.02-0.02v-0.02v-0.02l-0.02-0.04l0,0l-0.04-0.06l0,0v-0.02l-0.02-0.02
		v-0.02h-0.02v-0.036l-0.02-0.02l-0.018-0.02v-0.02l-0.02-0.02l0,0l-0.02-0.02l-0.02-0.02l-0.02-0.02l-0.02-0.02h-0.02l0,0
		l-0.02-0.02l-0.02-0.02l-0.02-0.02l-0.02-0.02h-0.02l-0.02-0.02h-0.02l-0.02-0.02l0,0H27.3h-0.02v-0.02l-0.02-0.02h-0.02h-0.02
		H27.2h-0.02l0.02-0.02l0,0h-0.02h-0.02h-0.02v-0.02H27.1l0,0l-0.02-0.02h-0.02H27h-0.04h-0.02H26.8h-0.02h-0.02h-0.02l-0.02,0.02
		H26.7h-0.02h-0.02h-0.02h-0.02l-0.02,0.02h-0.02l0,0l-0.14,0.06l0,0l-0.02,0.02H26.4l-0.02,0.02l0,0l-0.04,0.02l-0.04,0.04
		l-0.04,0.02l0,0l-0.04,0.02l-0.02,0.02v0.02l-0.02,0.02l-0.02,0.02l-0.02,0.02h-0.02v0.02v0.02H26.1l-0.02,0.02l0.04,0.02l0,0
		l-0.02,0.02l0,0v0.02l0,0l-0.02,0.02v0.02v0.02l-0.02,0.02v0.02v0.02l-0.02,0.02l0,0v0.02l0,0v0.02H26v0.02v-0.04v0.02l0,0v0.02
		l0,0l-0.04,0.04v0.04c-0.98,3.662,0.96,7.046,2.282,8.836c-0.46,0.258-0.9,0.558-1.3,0.896c-0.96,0.876-1.7,1.97-2.08,3.304
		c-0.52,1.89-0.14,3.842,0.9,5.434c1,1.572,2.622,2.786,4.602,3.304c4.442,1.194,7.964-1.772,10.104-5.294
		c1.12-1.85,2-4.04,2.602-6.27C44.326,21.607,44.366,16.731,42.846,14.023L42.846,14.023z M28.2,21.029L28.2,21.029
		c0.62,0.498,1.32,0.856,1.96,1.094c-0.28,0.398-0.5,0.836-0.64,1.314C29.06,22.761,28.56,21.945,28.2,21.029L28.2,21.029z
		 M40.144,25.389L40.144,25.389c-0.52,1.95-1.3,3.862-2.262,5.454c-1.4,2.308-3.682,4.736-6.684,3.94
		c-1.22-0.318-2.2-1.074-2.802-2.01c-0.58-0.876-0.78-1.95-0.52-2.986c0.18-0.716,0.58-1.314,1.14-1.772
		c0.56-0.498,1.32-0.856,2.1-0.996c0.84-0.14,1.38-0.916,1.26-1.732c-0.14-0.976,0.46-1.812,1.34-2.19
		c0.76-0.338,1.12-1.234,0.78-2.03c-0.12-0.218-0.26-0.418-0.44-0.558c-0.12-0.14-0.26-0.278-0.4-0.458l0,0l-0.06-0.08
		c-0.12-0.14-0.22-0.298-0.32-0.458c-0.04-0.06-0.08-0.16-0.14-0.218c-0.56-1.074-0.74-2.25-0.5-3.304l0,0h0.02
		c0.22-1.016,0.78-1.89,1.66-2.428c0.08-0.02,0.12-0.04,0.18-0.08c0.9-0.498,1.96-0.558,2.942-0.238l0.1,0.02
		c1.02,0.358,1.96,1.094,2.562,2.17l0.06,0.06C41.286,17.527,41.166,21.507,40.144,25.389L40.144,25.389z"/>
</g>
</svg>
