<?xml version="1.0" encoding="utf-8"?>
<!-- Generator: Adobe Illustrator 26.0.3, SVG Export Plug-In . SVG Version: 6.00 Build 0)  -->
<svg version="1.1" id="Layer_1" xmlns="http://www.w3.org/2000/svg" xmlns:xlink="http://www.w3.org/1999/xlink" x="0px" y="0px"
	 viewBox="0 0 48 48" style="enable-background:new 0 0 48 48;" xml:space="preserve">
<style type="text/css">
	.st0{fill:none;}
	.st1{fill:#706F6E;}
</style>
<rect class="st0" width="48" height="48"/>
<g>
	<path class="st1" d="M24.1,8c3.48,0,6.68,1.094,9.3,2.962c2.46,1.73,4.4,4.134,5.54,6.936c1.28,0.258,2.42,0.874,3.26,1.768
		C43.32,20.78,44,22.31,44,24s-0.68,3.24-1.78,4.332c-0.86,0.894-2,1.51-3.26,1.768c-1.14,2.802-3.08,5.188-5.54,6.896
		C30.8,38.886,27.58,40,24.12,40c-3.5,0-6.72-1.114-9.34-3.002c-2.42-1.69-4.36-4.074-5.52-6.858c-1.3-0.218-2.5-0.854-3.4-1.75
		C4.7,27.28,4,25.71,4,24s0.7-3.28,1.84-4.432c0.9-0.894,2.1-1.51,3.4-1.73c1.16-2.762,3.1-5.148,5.52-6.876
		C17.38,9.094,20.6,8,24.1,8L24.1,8z M27.8,29.824L27.8,29.824c0.46-0.178,1,0.04,1.18,0.496c0.2,0.458-0.04,0.994-0.5,1.192
		c-1.42,0.616-2.98,0.914-4.52,0.914c-1.52,0-3.06-0.298-4.5-0.914c-0.46-0.198-0.68-0.736-0.5-1.192
		c0.2-0.458,0.74-0.676,1.22-0.496c1.18,0.516,2.5,0.756,3.78,0.756C25.28,30.578,26.58,30.34,27.8,29.824L27.8,29.824z
		 M18.92,22.45L18.92,22.45c0.84,0,1.52,0.696,1.52,1.53c0,0.854-0.68,1.53-1.52,1.53c-0.86,0-1.54-0.676-1.54-1.53
		C17.38,23.166,18.08,22.45,18.92,22.45L18.92,22.45z M29.06,22.45L29.06,22.45c0.86,0,1.54,0.696,1.54,1.53
		c0,0.854-0.68,1.53-1.54,1.53s-1.52-0.676-1.52-1.53C27.52,23.166,28.2,22.45,29.06,22.45L29.06,22.45z M30.26,12.612
		c-4.08-1.808-6.16-1.53-6.16-1.53c-0.64,0-3.24-0.358-7.56,2.386c-2.26,1.428-3.88,3.734-4.74,6.298h-0.04
		c-0.2,0.556-0.7,0.974-1.34,1.014l-0.16,0.02c-0.9,0-1.72,0.338-2.28,0.934C7.42,22.31,7.06,23.126,7.06,24
		c0,0.894,0.38,1.69,0.94,2.246v0.02v0.02c0.56,0.556,1.36,0.914,2.24,0.914c0.66-0.04,1.3,0.358,1.54,1.034
		c0.88,2.564,2.56,4.77,4.76,6.32c2.12,1.51,4.74,2.386,7.56,2.386c2.8,0,5.42-0.874,7.54-2.386c2.2-1.57,3.86-3.756,4.76-6.32
		c0.18-0.596,0.74-1.014,1.4-1.034c0.86-0.04,1.64-0.398,2.2-0.974c0.58-0.576,0.92-1.352,0.92-2.226c0-0.854-0.34-1.65-0.92-2.206
		c-0.52-0.536-1.28-0.914-2.1-0.974c-0.64,0.02-1.28-0.378-1.5-1.034c-0.9-2.564-2.58-4.79-4.76-6.32
		C31.22,13.148,30.74,12.87,30.26,12.612L30.26,12.612z"/>
</g>
</svg>
