<?xml version="1.0" encoding="utf-8"?>
<!-- Generator: Adobe Illustrator 26.0.3, SVG Export Plug-In . SVG Version: 6.00 Build 0)  -->
<svg version="1.1" id="Layer_1" xmlns="http://www.w3.org/2000/svg" xmlns:xlink="http://www.w3.org/1999/xlink" x="0px" y="0px"
	 viewBox="0 0 48 48" style="enable-background:new 0 0 48 48;" xml:space="preserve">
<style type="text/css">
	.st0{fill:none;}
	.st1{fill:#706F6E;}
</style>
<rect y="0" class="st0" width="48" height="48"/>
<g>
	<path class="st1" d="M14.06,29.501c-0.92,0.204-1.86,0.306-2.76,0.286h-0.02h-0.02c-1.38-0.04-2.7-0.386-3.84-1.038
		c-1.16-0.692-2.14-1.73-2.74-3.136c-0.46-1.12-0.7-2.404-0.68-3.91c0.08-3.176,1.76-5.945,4.12-8.165
		c2.92-2.792,6.919-4.768,10.039-5.723c2.5-0.754,5.499-0.998,8.539-0.672c2.92,0.286,5.879,1.1,8.439,2.362
		c2.2,1.1,3.82,2.424,5.099,4.094c1.26,1.63,2.12,3.524,2.8,5.783c0.88,2.932,1.3,5.233,0.64,7.025l-0.02,0.062
		c-0.5,1.304-1.5,2.24-3.18,2.728c-0.06,1.894-1.22,3.87-2.94,5.355c-0.84,0.712-1.82,1.344-2.84,1.772
		c-1.08,0.428-2.2,0.692-3.36,0.672c-0.64,0-1.26-0.082-1.86-0.286l1.64,2.892c0.26,0.448,0.1,1.018-0.34,1.282
		c-0.42,0.244-1,0.082-1.26-0.326l-3.88-6.903c-0.14-0.184-0.26-0.408-0.38-0.57c-0.66,0.428-1.4,0.754-2.12,0.958l-0.28,0.082
		l3.1,5.477c0.26,0.448,0.1,1.018-0.32,1.282c-0.44,0.244-1,0.082-1.26-0.326l-3.48-6.129c-0.24,0.02-0.5,0.02-0.74,0
		c-0.54-0.062-1.06-0.122-1.56-0.244c-1.32-0.386-2.5-1.1-3.34-2.078C14.64,31.352,14.22,30.477,14.06,29.501L14.06,29.501z
		 M31.716,21.925L31.716,21.925c0-0.51,0.42-0.936,0.92-0.936c0.52,0,0.92,0.428,0.92,0.936c0,0.916,0.18,1.792,0.5,2.586
		c0.32,0.774,0.8,1.506,1.38,2.118c0.64-0.04,1.28-0.062,1.92-0.082c0.38-0.02,0.76-0.04,1.1-0.082c0.08-0.04,0.18-0.04,0.28-0.04
		c1.2-0.184,1.84-0.55,2.06-1.1l0.02-0.04c0.36-0.958-0.02-2.688-0.72-4.989l0,0l0,0c-0.56-1.914-1.28-3.482-2.28-4.785
		c-0.98-1.282-2.26-2.322-4.04-3.218c-2.22-1.12-4.799-1.792-7.359-2.036c-1-0.102-2-0.142-2.98-0.102
		c-0.758,0.348-1.438,0.816-2.038,1.406c-1.2,1.202-1.94,2.892-1.94,4.746c0,0.53-0.4,0.936-0.9,0.936c-0.5,0-0.94-0.408-0.94-0.936
		c0-2.158,0.8-4.154,2.1-5.681c-0.22,0.06-0.44,0.122-0.64,0.182c-2.22,0.672-4.879,1.914-7.179,3.606
		c-0.28,0.63-0.46,1.302-0.58,1.994c-0.1,0.836-0.06,1.732,0.18,2.628c0.14,0.51-0.16,1.018-0.66,1.14
		c-0.48,0.142-0.98-0.162-1.12-0.652c-0.26-0.976-0.34-1.954-0.26-2.912c-1.38,1.528-2.34,3.3-2.4,5.191
		c-0.02,1.02,0.14,1.876,0.44,2.548c0.32,0.774,0.82,1.302,1.48,1.69c0.68,0.408,1.5,0.61,2.4,0.632c1.1,0.04,2.28-0.204,3.4-0.672
		c-0.42-0.572-0.78-1.202-1.04-1.874c-0.4-1.018-0.64-2.118-0.64-3.278c0-0.53,0.42-0.936,0.92-0.936c0.52,0,0.92,0.428,0.92,0.936
		c0,0.916,0.18,1.792,0.5,2.566c0.28,0.632,0.62,1.242,1.08,1.752c1.16-1.426,3.4-3.054,7.659-2.952
		c5.539,0.102,4.58-3.116,4.58-3.116c-0.14-0.53,0.12-1.038,0.62-1.182c0.5-0.142,1,0.122,1.14,0.632
		c0.02,0.02,1.74,5.721-6.379,5.539c-5.699-0.082-6.819,3.198-6.959,3.584l-0.02,0.02v0.02l0,0l0,0v0.02l-0.02,0.062v0.02v0.02
		c-0.04,0.184-0.08,0.346-0.08,0.53c-0.04,0.692,0.18,1.262,0.56,1.71c0.42,0.51,1.04,0.896,1.78,1.058
		c0.3,0.082,0.62,0.142,0.94,0.162c0.64,0.04,1.28-0.02,1.94-0.224c0.58-0.162,1.14-0.448,1.64-0.856
		c1.96-1.506,4.24-2.404,6.619-2.932c0.88-0.204,1.78-0.346,2.68-0.448c-0.36-0.488-0.64-1.038-0.86-1.608
		C31.956,24.185,31.716,23.085,31.716,21.925L31.716,21.925z M26.997,15.674L26.997,15.674c1.78-0.468,3.54-0.184,4.999,0.672
		c1.48,0.856,2.6,2.28,3.1,4.072c0.12,0.51,0.62,0.794,1.12,0.692c0.5-0.162,0.78-0.672,0.66-1.182c-0.6-2.28-2.06-4.094-3.94-5.213
		c-1.86-1.1-4.16-1.486-6.419-0.834c-0.48,0.122-0.78,0.632-0.64,1.14C25.997,15.51,26.517,15.796,26.997,15.674L26.997,15.674z
		 M37.336,29.643L37.336,29.643c-1.98,0.062-4.1,0.224-6.159,0.672c-1.16,0.244-2.28,0.59-3.34,1.1c0.98,1.69,2.18,2.444,3.5,2.444
		c0.72,0.02,1.46-0.162,2.18-0.448c0.74-0.306,1.42-0.754,2.04-1.262C36.436,31.372,37.116,30.477,37.336,29.643L37.336,29.643z"/>
</g>
</svg>
