<?xml version="1.0" encoding="utf-8"?>
<!-- Generator: Adobe Illustrator 26.0.3, SVG Export Plug-In . SVG Version: 6.00 Build 0)  -->
<svg version="1.1" id="Layer_1" xmlns="http://www.w3.org/2000/svg" xmlns:xlink="http://www.w3.org/1999/xlink" x="0px" y="0px"
	 viewBox="0 0 48 48" style="enable-background:new 0 0 48 48;" xml:space="preserve">
<style type="text/css">
	.st0{fill:none;}
	.st1{fill:#6D6E70;}
</style>
<rect y="0" class="st0" width="48" height="48"/>
<g>
	<g>
		<path class="st1" d="M28.058,36.823c0.632,1.373,0.94,3.099,0.927,4.892c-0.015,0.869-0.099,1.78-0.267,2.664l0.155-0.127
			c0.688-0.687,1.347-1.612,1.684-2.845c1.011-3.729-0.533-7.64,0.66-11.3c0.281-0.925,0.701-1.823,1.123-2.761
			c1.445-3.211,2.736-7.823-2.091-8.552c-2.596-0.392-4.351,1.444-6.904,1.444c-2.54,0-4.308-1.836-6.891-1.444
			c-4.841,0.729-3.551,5.355-2.091,8.552c0.421,0.939,0.828,1.836,1.123,2.761c1.193,3.659-0.337,7.584,0.645,11.3
			c0.323,1.233,0.996,2.159,1.699,2.845l0.127,0.127c-0.168-0.897-0.252-1.795-0.252-2.664c-0.015-1.808,0.309-3.519,0.927-4.892
			C20.704,32.211,25.98,32.211,28.058,36.823L28.058,36.823z M17.35,20.338L17.35,20.338c0.421,0.015,0.744,0.364,0.716,0.757
			c-0.015,0.392-0.351,0.715-0.757,0.701c-0.196-0.015-0.365,0.015-0.463,0.071c-0.155,0.056-0.267,0.183-0.323,0.323
			c-0.099,0.224-0.14,0.505-0.168,0.827c-0.043,1.233,0.477,2.817,0.871,3.743c0.155,0.351-0.015,0.799-0.379,0.953
			c-0.381,0.153-0.816-0.015-0.971-0.38c-0.449-1.024-1.039-2.888-0.983-4.36c0.028-0.505,0.112-0.967,0.309-1.373
			c0.224-0.463,0.561-0.827,1.052-1.037C16.564,20.394,16.943,20.338,17.35,20.338L17.35,20.338z M20.844,37.834L20.844,37.834
			c-0.477,1.065-0.716,2.439-0.716,3.869c0.015,1.373,0.267,2.832,0.772,4.205c0.099,0.267,0.127,0.533,0.099,0.785l-0.028,0.112
			c-0.071,0.224-0.168,0.448-0.351,0.659c-0.043,0.056-0.071,0.084-0.127,0.127c-0.239,0.211-0.505,0.351-0.813,0.392l0,0h-0.015
			c-0.281,0.043-0.604,0-0.884-0.14l0,0c-0.688-0.323-1.712-0.911-2.667-1.851c-0.968-0.94-1.895-2.229-2.344-3.953
			c-0.996-3.701,0.491-7.683-0.632-11.201c-0.252-0.785-0.632-1.627-1.024-2.509C9.954,23.534,9.448,17.38,16.072,16.37
			c3.116-0.491,4.561,1.416,7.269,1.416c2.695,0,4.168-1.892,7.255-1.416c6.624,1.009,6.132,7.149,3.972,11.959
			c-0.393,0.883-0.785,1.739-1.039,2.509c-1.137,3.519,0.365,7.5-0.632,11.201c-0.463,1.724-1.375,3.028-2.344,3.953
			c-0.912,0.883-1.867,1.457-2.568,1.795l-0.099,0.056c-0.224,0.112-0.463,0.168-0.729,0.155c-0.056,0-0.099-0.015-0.155-0.015
			c-0.323-0.043-0.589-0.168-0.813-0.392v-0.015c-0.239-0.211-0.393-0.491-0.477-0.771c-0.056-0.252-0.056-0.505,0.028-0.757
			c0-0.056,0.015-0.099,0.028-0.155c0.505-1.373,0.772-2.817,0.8-4.205c0-1.444-0.267-2.804-0.744-3.869
			C24.606,35.127,22.066,35.127,20.844,37.834L20.844,37.834z"/>
		<path class="st1" d="M24.002,19.413c-0.183,0.155,0.14,1.009,0.211,1.164c0.407,0.855,1.347,1.108,2.231,1.037
			c0.912-0.084,1.852-0.043,2.751,0.127c0.463,0.084,0.955,0.183,1.361,0.435c0.393,0.252,0.547,0.729,0.744,1.121
			c0.224,0.476,0.547,0.911,0.688,1.429c0.365,1.345,0.196,2.776-0.295,4.08c0,0.015-0.015,0.028-0.015,0.056
			c0,0,6.764-10.767-1.936-10.893C29.742,17.969,26.206,17.464,24.002,19.413z"/>
		<path class="st1" d="M27.58,3.753c0.323-0.295,0.813-0.295,1.123,0c0.309,0.308,0.309,0.813,0,1.121
			c-0.407,0.42-0.617,0.967-0.617,1.528c0,0.547,0.211,1.093,0.617,1.515c0.729,0.743,1.095,1.683,1.095,2.636
			s-0.365,1.92-1.095,2.649c-0.309,0.295-0.8,0.295-1.123,0c-0.295-0.323-0.295-0.813,0-1.121l0,0
			c0.421-0.42,0.632-0.981,0.632-1.528S28.002,9.46,27.58,9.038c-0.716-0.729-1.08-1.683-1.08-2.636
			C26.5,5.449,26.864,4.496,27.58,3.753L27.58,3.753z"/>
		<path class="st1" d="M31.342,1.342L31.342,1.342c-0.295-0.295-0.295-0.827,0-1.121c0.323-0.295,0.813-0.295,1.123,0l0.043,0.043
			c0.701,0.729,1.052,1.668,1.052,2.608c0,0.953-0.365,1.907-1.095,2.636l0,0L32.436,5.55c-0.407,0.392-0.589,0.939-0.589,1.487
			c0,0.561,0.211,1.093,0.617,1.515c0.309,0.308,0.309,0.813,0,1.121c-0.309,0.308-0.8,0.308-1.123,0
			c-0.701-0.729-1.08-1.696-1.08-2.636c0-0.925,0.351-1.864,1.052-2.593l0.028-0.043V4.356h0.015c0.421-0.392,0.617-0.953,0.617-1.5
			s-0.196-1.08-0.589-1.487L31.342,1.342L31.342,1.342z"/>
		<path class="st1" d="M35.116,3.753L35.116,3.753c0.309-0.295,0.813-0.295,1.123,0c0.309,0.308,0.309,0.813,0,1.121
			c-0.421,0.42-0.632,0.967-0.632,1.528c0,0.547,0.211,1.093,0.632,1.515l0,0l0.043,0.043c0.701,0.728,1.052,1.668,1.052,2.593
			c0,0.953-0.365,1.92-1.095,2.649c-0.323,0.295-0.813,0.295-1.123,0c-0.309-0.323-0.309-0.827,0.015-1.121
			c0.393-0.42,0.617-0.981,0.617-1.528c0-0.533-0.211-1.065-0.589-1.487l-0.043-0.028c-0.716-0.729-1.095-1.683-1.095-2.636
			S34.4,4.496,35.116,3.753L35.116,3.753L35.116,3.753z"/>
	</g>
</g>
</svg>
