<?xml version="1.0" encoding="utf-8"?>
<!-- Generator: Adobe Illustrator 26.0.3, SVG Export Plug-In . SVG Version: 6.00 Build 0)  -->
<svg version="1.1" id="Layer_1" xmlns="http://www.w3.org/2000/svg" xmlns:xlink="http://www.w3.org/1999/xlink" x="0px" y="0px"
	 viewBox="0 0 48 48" style="enable-background:new 0 0 48 48;" xml:space="preserve">
<style type="text/css">
	.st0{fill:none;}
	.st1{fill:#706F6E;}
</style>
<rect class="st0" width="48" height="48"/>
<g>
	<g>
		<g>
			<path class="st1" d="M18.616,4.679c0.412-0.366,1.022-0.366,1.421,0c0.385,0.379,0.385,0.993,0,1.398
				c-0.518,0.496-0.771,1.19-0.771,1.869s0.253,1.347,0.771,1.869c0.903,0.915,1.354,2.078,1.354,3.268s-0.465,2.366-1.368,3.28
				c-0.385,0.366-1.009,0.366-1.421,0c-0.371-0.392-0.371-1.007,0-1.398l0,0c0.518-0.51,0.797-1.203,0.797-1.882
				c0-0.68-0.265-1.359-0.797-1.869c-0.888-0.889-1.353-2.078-1.353-3.268S17.714,5.581,18.616,4.679L18.616,4.679z"/>
			<path class="st1" d="M27.95,4.679c0.412-0.366,1.022-0.366,1.421,0c0.385,0.379,0.385,0.993,0,1.398
				C28.867,6.588,28.6,7.268,28.6,7.96c0,0.68,0.253,1.347,0.771,1.869c0.903,0.915,1.368,2.078,1.368,3.268
				s-0.465,2.366-1.368,3.28c-0.385,0.366-1.009,0.366-1.421,0c-0.371-0.392-0.371-1.007,0-1.398l0,0
				c0.518-0.51,0.797-1.203,0.797-1.882s-0.265-1.359-0.797-1.869c-0.889-0.889-1.354-2.078-1.354-3.268S27.047,5.581,27.95,4.679
				L27.95,4.679z"/>
			<path class="st1" d="M23.329,1.673L23.329,1.673c-0.371-0.366-0.371-1.019,0-1.398c0.412-0.366,1.022-0.366,1.421,0l0.053,0.052
				c0.877,0.889,1.328,2.053,1.328,3.216c0,1.176-0.465,2.353-1.381,3.255l0,0L24.71,6.85c-0.504,0.484-0.744,1.163-0.744,1.83
				c0,0.692,0.265,1.359,0.783,1.869c0.385,0.379,0.385,1.007,0,1.398c-0.385,0.379-1.009,0.379-1.421,0
				c-0.888-0.889-1.353-2.106-1.353-3.269c0-1.151,0.451-2.314,1.314-3.202l0.04-0.052V5.412h0.014
				c0.518-0.484,0.783-1.19,0.783-1.856c0-0.68-0.253-1.334-0.744-1.83L23.329,1.673L23.329,1.673z"/>
		</g>
		<path class="st1" d="M13.612,46.902c0,0.601-0.518,1.098-1.128,1.098c-0.597,0-1.115-0.496-1.115-1.098
			c0-2,0.836-3.503,1.978-4.602c1.607-1.503,3.836-2.17,5.164-2.288c0.265-0.027,0.504-0.13,0.677-0.288
			c0.12-0.105,0.186-0.235,0.212-0.366c-1.048-0.85-1.54-2.026-1.938-3.006c-0.212-0.484-0.385-0.889-0.477-1.007l-0.027-0.013
			V35.32l0,0v-0.013c-0.465-0.418-1.128-1.215-1.46-2.117c-0.345-0.902-0.438-1.882,0.093-2.798
			c-0.292-0.824-0.438-1.725-0.438-2.667c-0.014-1.19,0.173-2.405,0.557-3.517l0.053-0.091c0.544-1.555,1.46-2.693,2.629-3.464
			c1.248-0.85,2.802-1.229,4.554-1.268c0.651-0.013,1.54-0.027,2.403,0.144c0.995,0.171,1.925,0.549,2.496,1.334
			c1.168-0.105,2.19,0.536,3,1.477c0.983,1.124,1.686,2.759,1.845,3.725c0.133,0.719,0.133,1.464,0.014,2.261
			c-0.08,0.614-0.226,1.281-0.412,1.935c0.597,0.941,0.518,1.987,0.173,2.902c-0.345,0.902-0.995,1.713-1.474,2.131l-0.014,0.013
			l-0.014,0.013v0.013c-0.12,0.105-0.292,0.523-0.491,0.993c-0.385,0.98-0.85,2.131-1.872,2.967
			c0.027,0.144,0.106,0.288,0.212,0.405c0.159,0.157,0.412,0.261,0.677,0.288c1.328,0.117,3.558,0.784,5.164,2.288
			c1.143,1.099,1.979,2.602,1.979,4.602c0,0.601-0.504,1.098-1.115,1.098c-0.624,0-1.115-0.496-1.115-1.098
			c0-1.307-0.557-2.288-1.314-3.006c-1.181-1.112-2.828-1.621-3.81-1.686c-0.797-0.078-1.527-0.405-2.058-0.941
			c-0.597-0.575-1.46-2.759-0.345-3.451c0.783-0.457,1.195-1.451,1.527-2.288c0.306-0.745,0.557-1.386,1.075-1.83v0.013l0.014-0.013
			c0.279-0.235,0.691-0.733,0.889-1.281c0.159-0.405,0.186-0.811-0.08-1.098h0.014c-0.292-0.327-0.398-0.902-0.265-1.295
			c0.226-0.692,0.385-1.347,0.451-1.96c0.067-0.589,0.093-1.137-0.014-1.674c-0.093-0.653-0.597-1.791-1.328-2.627
			c-0.385-0.445-0.797-0.772-1.142-0.706c-0.385,0.052-0.771,0-1.115-0.157c-0.306-0.144-0.571-0.366-0.783-0.653l-0.067-0.078
			c-0.173-0.249-0.597-0.405-1.089-0.496c-0.663-0.117-1.407-0.105-1.952-0.091c-1.328,0.013-2.47,0.274-3.371,0.889
			c-0.783,0.51-1.381,1.281-1.766,2.366l-0.027,0.091c-0.292,0.863-0.465,1.83-0.438,2.759l0,0c0.014,0.836,0.147,1.635,0.424,2.314
			c0.133,0.21,0.173,0.471,0.12,0.719c-0.12,0.719-0.704,0.745-0.359,1.686c0.212,0.51,0.597,1.007,0.877,1.268l0.027,0.052h0.014
			c0.477,0.445,0.744,1.072,1.036,1.804c0.345,0.836,0.757,1.843,1.54,2.314c0.345,0.171,0.584,0.536,0.584,0.968
			c0,0.941-0.159,1.752-0.877,2.444c-0.518,0.536-1.275,0.863-2.072,0.941c-0.969,0.066-2.615,0.575-3.783,1.686
			C14.156,44.615,13.612,45.582,13.612,46.902L13.612,46.902z"/>
	</g>
</g>
</svg>
