<?xml version="1.0" encoding="utf-8"?>
<!-- Generator: Adobe Illustrator 26.0.3, SVG Export Plug-In . SVG Version: 6.00 Build 0)  -->
<svg version="1.1" id="Layer_1" xmlns="http://www.w3.org/2000/svg" xmlns:xlink="http://www.w3.org/1999/xlink" x="0px" y="0px"
	 viewBox="0 0 48 48" style="enable-background:new 0 0 48 48;" xml:space="preserve">
<style type="text/css">
	.st0{fill:none;}
	.st1{fill:#706F6E;}
</style>
<rect y="0" class="st0" width="48" height="48"/>
<g>
	<path class="st1" d="M42.661,9.793c-0.882-0.568-2.302-0.792-4.704-0.792c-4.602,0-16.888,0-20.851,0l0,0h-0.04
		c-2.7,0-5.902,0.832-8.424,2.496C5.96,13.263,4,15.923,4,19.495v0.02c0,3.696,0.32,5.786,0.56,7.43l0.02,0.06
		c0.18,1.096,0.3,1.99,0.28,3.126c-0.04,1.116,0,2.112,0.02,2.984c0.08,1.3,0.1,2.334-0.14,2.78c-0.4,0.752-0.32,1.462,0.1,2.09l0,0
		l0,0c0.3,0.446,0.8,0.772,1.46,0.914c0.38,0.082,0.88,0.142,1.4,0.06c1.7-0.142,4.202-1.178,5.882-3.592
		c1.24,0.67,3.342,1.502,4.342-0.02v-0.04c0.38-0.608,0.56-1.36,0.76-2.132c0.14-0.608,0.3-1.218,0.54-1.664h0.1
		c2.902,0.02,4.762-1.746,6.344-3.288c0.76-0.73,1.42-1.36,1.66-1.36l0.3,0.04c2.642,0.244,8.284,0.792,10.986-4.284
		c0.98-1.826,2.062-3.268,2.922-4.486c1.34-1.806,2.322-3.166,2.422-4.79C44.101,11.681,43.921,10.625,42.661,9.793L42.661,9.793z
		 M16.886,32.712L16.886,32.712c-0.14,0.588-0.28,1.198-0.5,1.542l-0.02,0.02c-0.22,0.346-1.08-0.04-1.76-0.446
		c0.86-1.178,1.5-1.826,2.542-2.132C17.066,32.022,16.966,32.366,16.886,32.712L16.886,32.712z M24.611,24.957L24.611,24.957
		c-0.32,0.284-0.66,0.608-1.02,0.954l0,0h-0.02l-0.02,0.02c-1.16,1.136-2.522,2.456-4.162,2.436
		c-3.482-0.06-4.802,0.488-6.324,2.334c-1.54,1.908-2.482,4.426-5.122,5.054c0.1-0.812,0.06-1.726,0.02-2.78
		c-0.02-0.832-0.06-1.766-0.02-2.76c0.04-1.42-0.14-2.456-0.32-3.694v-0.06c-0.24-1.502-0.54-3.41-0.54-6.942v-0.02
		c0-2.354,1.38-4.162,3.262-5.4c2.022-1.32,4.582-1.97,6.764-1.97h0.02v-0.02l4.742,0.02c1.62,1.36,2.742,3.674,3.202,6.192
		C25.471,20.613,25.331,23.027,24.611,24.957L24.611,24.957z M27.993,22.257L27.993,22.257c0.12,0.548,0.26,1.056,0.42,1.522
		l-0.5-0.04l-0.3-0.04l0,0c-0.26-0.02-0.5-0.02-0.76,0.04c0.36-1.848,0.36-3.856-0.02-5.786c-0.4-2.172-1.24-4.262-2.462-5.846
		h4.282c-0.32,0.608-0.56,1.3-0.76,2.07c-0.28,1.278-0.4,2.7-0.36,4.12C27.593,19.679,27.733,21.079,27.993,22.257L27.993,22.257z
		 M40.919,13.121L40.919,13.121c-0.04,0.71-0.78,1.746-1.82,3.146c-0.94,1.278-2.062,2.842-3.142,4.852
		c-1.22,2.274-3.642,2.76-5.702,2.78c-0.1-0.466-0.28-1.178-0.46-2.01c-0.22-1.096-0.36-2.354-0.4-3.634
		c-0.02-1.258,0.06-2.538,0.32-3.634c0.24-1.036,0.64-1.908,1.26-2.496l6.964,0.02c1.8,0,2.742,0.06,3.062,0.264
		C41.039,12.431,40.959,12.655,40.919,13.121L40.919,13.121z"/>
</g>
</svg>
