<?xml version="1.0" encoding="utf-8"?>
<!-- Generator: Adobe Illustrator 26.0.3, SVG Export Plug-In . SVG Version: 6.00 Build 0)  -->
<svg version="1.1" id="Layer_1" xmlns="http://www.w3.org/2000/svg" xmlns:xlink="http://www.w3.org/1999/xlink" x="0px" y="0px"
	 viewBox="0 0 48 48" style="enable-background:new 0 0 48 48;" xml:space="preserve">
<style type="text/css">
	.st0{fill:none;}
	.st1{fill:#706F6E;}
</style>
<rect class="st0" width="48" height="48"/>
<path class="st1" d="M17.367,21.889h-0.04h-0.02l0,0h-0.02l-0.02,0.02h-0.04h-0.04l-1.88,0.214c-0.2,0.02-0.4-0.02-0.56-0.098
	l-0.04-0.02l0,0c-1.06-0.488-2.02-0.722-2.96-0.704c-0.96,0.02-1.92,0.292-3.04,0.82c-0.56,0.254-1.2,0.058-1.46-0.488
	c-0.04-0.058-0.06-0.136-0.08-0.196c-0.06-0.292-0.08-0.664-0.08-1.094c0.02-0.82,0.2-1.934,0.52-2.89v-0.056
	c0.42-1.132,1.1-2.09,2.1-2.324h0.02h0.06c0.18-0.04,0.36-0.058,0.52-0.058c0.2,0.02,0.36,0.058,0.5,0.136l0.62,0.254l0.06,0.02
	l0.16,0.098h0.04c0.84,0.39,1.46,0.292,1.82-0.02c0.36-0.292,0.56-0.782,0.6-1.27c0.06-0.468-0.02-0.938-0.24-1.23
	c-0.2-0.234-0.6-0.372-1.16-0.196h-0.02l0,0c-0.9,0.214-2.36,0.742-3.599,1.348c-0.8,0.39-1.5,0.82-1.76,1.172
	c-1.6,2.09-3.239,4.941-4.217,6.639c-0.4,0.664-0.66,1.152-0.84,1.406c-0.06,0.098-0.1,0.176-0.1,0.176v0.02v-0.02
	c0.06,0.156,0.24,0.292,0.66,0.546c0.34,0.196,0.7,0.45,1.16,0.782c1.64,1.172,4.437,3.183,7.217,2.812
	c5.137-0.704,7.017,11.014,7.037,11.052c0.1,0.586-0.3,1.094-0.9,1.21c-0.58,0.098-1.14-0.292-1.26-0.86
	c0-0.04-1.62-9.724-4.577-9.334c-3.659,0.528-6.937-1.836-8.817-3.183c-0.42-0.292-0.74-0.546-0.94-0.644
	c-0.92-0.508-1.44-1.074-1.64-1.7l0,0c-0.24-0.722-0.08-1.406,0.36-2.032c0.12-0.196,0.38-0.644,0.78-1.27
	c0.98-1.758,2.68-4.687,4.337-6.873c0.48-0.624,1.46-1.25,2.52-1.796c1.4-0.664,3.02-1.25,3.999-1.504
	c1.6-0.43,2.78,0.058,3.459,0.976c0.58,0.742,0.8,1.778,0.7,2.754c-0.12,0.956-0.56,1.934-1.3,2.578
	c-0.98,0.878-2.42,1.21-4.197,0.39v-0.02l-0.18-0.058v-0.02l-0.42-0.156c-0.16,0.136-0.3,0.468-0.46,0.86l-0.02,0.058
	c-0.16,0.468-0.28,0.996-0.34,1.464c0.82-0.254,1.58-0.39,2.36-0.41c1.2,0,2.38,0.254,3.679,0.782l1.6-0.156l0,0
	c0.2-0.058,1.16-0.234,1.76-0.352c-0.88-1.406-1.44-2.988-1.44-4.315c0-3.377,1.74-5.585,3.959-6.541
	c0.856-0.406,1.816-0.582,2.736-0.582c0.92,0,1.88,0.176,2.74,0.586c2.24,0.956,3.959,3.163,3.959,6.541
	c0,1.348-0.58,2.93-1.48,4.335c0.98,0.234,2.76,0.372,3.299,0.43c1.28-0.546,2.46-0.8,3.679-0.782c0.78,0.02,1.52,0.156,2.3,0.39
	c-0.06-0.468-0.16-0.918-0.3-1.368l-0.04-0.058c-0.12-0.39-0.26-0.684-0.42-0.86l-0.3,0.156l-0.02,0.02l-0.24,0.078
	c-1.82,0.86-3.279,0.508-4.257-0.372c-0.76-0.644-1.2-1.622-1.32-2.618c-0.1-0.996,0.12-2.05,0.68-2.792l0.08-0.078
	c0.72-0.878,1.88-1.348,3.459-0.938c0.96,0.274,2.6,0.82,3.979,1.524c1.1,0.508,2.08,1.152,2.56,1.796
	c1.68,2.168,3.379,5.115,4.397,6.855c0.34,0.606,0.6,1.036,0.76,1.25c0.44,0.664,0.62,1.348,0.36,2.11
	c-0.22,0.624-0.72,1.21-1.66,1.738c-0.2,0.118-0.54,0.372-0.92,0.644h-0.02c-1.88,1.348-5.157,3.709-8.857,3.201
	c-2.96-0.41-4.517,9.216-4.537,9.236c-0.06,0.606-0.66,1.036-1.28,0.956s-1.06-0.644-0.98-1.27c0-0.02,1.96-11.814,7.077-11.13
	c2.8,0.39,5.597-1.622,7.197-2.774c0.48-0.352,0.86-0.624,1.16-0.8c0.4-0.234,0.6-0.372,0.64-0.508l-0.106-0.152
	c-0.14-0.196-0.44-0.722-0.84-1.426c-0.98-1.66-2.64-4.531-4.217-6.619c-0.26-0.332-0.96-0.742-1.74-1.152
	c-1.24-0.586-2.68-1.094-3.559-1.328c-0.56-0.156-0.92-0.058-1.1,0.136l-0.04,0.058c-0.2,0.274-0.28,0.722-0.22,1.172
	c0.06,0.468,0.24,0.956,0.56,1.23c0.38,0.332,0.96,0.41,1.78,0.02h0.02l0.28-0.118l0.06-0.02l0.54-0.234
	c0.14-0.098,0.34-0.136,0.54-0.136c0.2-0.02,0.38,0.02,0.56,0.058c1.02,0.254,1.7,1.21,2.12,2.364l0.02,0.04
	c0.36,0.956,0.52,2.07,0.54,2.91c0.02,0.43-0.02,0.82-0.08,1.114c-0.02,0.078-0.06,0.156-0.08,0.214
	c-0.28,0.566-0.96,0.782-1.54,0.546c-1.1-0.546-2.06-0.82-3-0.82c-0.92-0.02-1.86,0.196-2.94,0.684l-0.06,0.02h-0.02l0,0
	c-0.16,0.078-0.4,0.118-0.62,0.098c-1.24-0.136-3.559-0.292-4.837-0.86c-1.04,0.996-2.28,1.738-3.559,1.914
	c-0.1,0.02-0.22,0.02-0.32,0c-1.32-0.196-2.58-0.956-3.679-2.012C19.184,21.635,17.507,21.851,17.367,21.889L17.367,21.889
	L17.367,21.889z M22.164,10.504L22.164,10.504c-1.52,0.644-2.7,2.188-2.7,4.627c0,1.172,0.66,2.676,1.64,3.885
	c0.84,1.054,1.88,1.874,2.92,2.09c1.02-0.214,2.06-1.036,2.9-2.09c0.98-1.21,1.64-2.714,1.64-3.885c0-2.442-1.18-3.963-2.68-4.627
	c-0.56-0.254-1.2-0.39-1.86-0.39C23.344,10.114,22.724,10.25,22.164,10.504L22.164,10.504z M11.468,15.446L11.468,15.446l0.16,0.118
	C11.588,15.504,11.528,15.484,11.468,15.446L11.468,15.446z"/>
</svg>
