<?xml version="1.0" encoding="utf-8"?>
<!-- Generator: Adobe Illustrator 26.0.3, SVG Export Plug-In . SVG Version: 6.00 Build 0)  -->
<svg version="1.1" id="Layer_1" xmlns="http://www.w3.org/2000/svg" xmlns:xlink="http://www.w3.org/1999/xlink" x="0px" y="0px"
	 viewBox="0 0 48 48" style="enable-background:new 0 0 48 48;" xml:space="preserve">
<style type="text/css">
	.st0{fill:none;}
	.st1{fill:#706F6E;}
</style>
<rect class="st0" width="48" height="48"/>
<g>
	<path class="st1" d="M1.117,38.414c-0.751-0.216-1.236-0.989-1.092-1.783c0.218-0.746,1.018-1.229,1.793-1.061l7.053,1.759h14.812
		c0.607,0,0.97-0.29,1.092-0.698c0.072-0.144,0.146-0.338,0.146-0.554c0-0.192-0.072-0.41-0.146-0.554
		c-0.122-0.386-0.509-0.698-1.066-0.698l0,0h-0.024h-1.625c-0.823,0-1.454-0.626-1.454-1.447c0-0.794,0.631-1.447,1.454-1.447
		c1.26,0,2.52,0,3.806,0c0.607,0,0.97-0.314,1.14-0.674c0.048-0.168,0.096-0.362,0.096-0.578c0-0.192-0.024-0.41-0.096-0.554
		c-0.17-0.384-0.559-0.674-1.092-0.674h-0.048h-3.806c-0.823,0-1.454-0.674-1.454-1.495c0-0.794,0.631-1.421,1.454-1.421
		c1.454,0,2.909,0,4.339,0c0.631,0,1.018-0.314,1.188-0.698c0.048-0.144,0.096-0.386,0.096-0.554c0-0.216-0.024-0.41-0.096-0.578
		c-0.146-0.386-0.509-0.65-1.116-0.674h-0.072h-4.339c-0.823,0-1.454-0.674-1.454-1.471s0.631-1.447,1.454-1.447
		c4.653,0,9.357,0,14.035,0c0.607,0,0.994-0.314,1.14-0.674c0.072-0.168,0.096-0.386,0.096-0.578c0-0.216-0.024-0.41-0.096-0.578
		c-0.122-0.482-0.509-0.794-1.116-0.794H10.717c-0.799,0-1.43-0.626-1.43-1.421c0-0.65,0.413-1.205,0.994-1.373l8.484-3.06
		c1.505-0.533,1.092-2.99-0.509-2.508l-8.726,2.916l-1.018,0.626l-6.158,4.675c-0.631,0.506-1.55,0.386-2.035-0.264
		c-0.485-0.629-0.389-1.519,0.266-2.002l6.23-4.795l0,0l0.17-0.096l1.212-0.674c0.048-0.024,0.17-0.096,0.29-0.12l8.873-2.964
		c2.933-0.967,5.357,1.37,5.285,4.142l0,0v0.072l-0.024,0.024c-0.096,1.495-0.97,3.012-2.909,3.686l-0.703,0.266h17.114
		c2.011,0,3.274,1.085,3.83,2.506c0.242,0.506,0.314,1.085,0.314,1.639s-0.072,1.109-0.314,1.639c-0.557,1.421-1.819,2.53-3.83,2.53
		h-5.697c0.122,0.41,0.146,0.842,0.146,1.253c0,0.554-0.096,1.133-0.266,1.639c-0.218,0.53-0.557,1.013-0.97,1.421
		c0.17,0.216,0.266,0.458,0.365,0.722c0.218,0.506,0.338,1.109,0.338,1.639c0,0.554-0.122,1.133-0.338,1.639
		c-0.389,0.965-1.116,1.783-2.158,2.218c0.194,0.506,0.338,1.037,0.338,1.567c0,0.554-0.146,1.109-0.338,1.639
		c-0.581,1.421-1.867,2.506-3.806,2.506H8.706c-0.096,0-0.194-0.024-0.338-0.048L1.117,38.414L1.117,38.414z"/>
	<path class="st1" d="M48,35.932c0,2.698-2.182,4.867-4.896,4.867c-2.714,0-4.896-2.17-4.896-4.867s4.896-8.073,4.896-8.073
		S48,33.256,48,35.932z"/>
</g>
</svg>
