<?xml version="1.0" encoding="utf-8"?>
<!-- Generator: Adobe Illustrator 26.0.3, SVG Export Plug-In . SVG Version: 6.00 Build 0)  -->
<svg version="1.1" id="Layer_1" xmlns="http://www.w3.org/2000/svg" xmlns:xlink="http://www.w3.org/1999/xlink" x="0px" y="0px"
	 viewBox="0 0 20 20" style="enable-background:new 0 0 20 20;" xml:space="preserve">
<style type="text/css">
	.st0{fill:#FFFFFF;}
</style>
<g>
	<path class="st0" d="M3.419,18.306c0,0.381-0.33,0.684-0.71,0.684C2.32,18.99,2,18.687,2,18.297c0-1.26,0.53-2.198,1.259-2.892
		c1.019-0.948,2.428-1.368,3.278-1.436c0.17-0.02,0.32-0.088,0.43-0.186c0.07-0.068,0.11-0.147,0.13-0.225
		c-0.66-0.537-0.979-1.27-1.229-1.895c-0.13-0.303-0.24-0.557-0.3-0.635l-0.01-0.01l-0.01-0.01h-0.02l0,0
		c-0.3-0.264-0.71-0.762-0.929-1.338c-0.22-0.567-0.28-1.192,0.06-1.758c-0.18-0.508-0.27-1.084-0.27-1.67
		c-0.01-0.752,0.11-1.514,0.36-2.208l0.03-0.059c0.34-0.977,0.929-1.69,1.669-2.178c0.79-0.528,1.779-0.772,2.888-0.791
		c0.41-0.01,0.979-0.02,1.519,0.088c0.63,0.107,1.219,0.342,1.579,0.84c0.74-0.068,1.389,0.342,1.899,0.928
		c0.62,0.703,1.069,1.739,1.169,2.345c0.08,0.449,0.08,0.928,0.01,1.426c-0.05,0.391-0.14,0.801-0.26,1.221
		c0.38,0.586,0.33,1.25,0.11,1.827c-0.22,0.567-0.63,1.084-0.939,1.338l-0.01,0.01l-0.01,0.01v0.01
		c-0.08,0.068-0.19,0.332-0.31,0.625c-0.25,0.615-0.54,1.338-1.189,1.866c0.01,0.098,0.07,0.186,0.14,0.254
		c0.1,0.098,0.26,0.166,0.43,0.186c0.839,0.078,2.259,0.488,3.268,1.436c0.718,0.683,1.258,1.63,1.258,2.9
		C18,18.697,17.68,19,17.3,19c-0.39,0-0.7-0.313-0.7-0.694c0-0.821-0.35-1.436-0.829-1.895c-0.75-0.703-1.799-1.016-2.418-1.065
		c-0.5-0.049-0.969-0.254-1.309-0.586c-0.38-0.361-0.919-1.729-0.22-2.169c0.5-0.293,0.76-0.918,0.969-1.436
		c0.2-0.469,0.36-0.869,0.68-1.153v0.01l-0.01-0.02c0.18-0.156,0.44-0.459,0.57-0.801c0.1-0.254,0.12-0.508-0.05-0.684l0,0
		c-0.19-0.205-0.25-0.567-0.17-0.821c0.14-0.44,0.24-0.84,0.29-1.241c0.05-0.371,0.06-0.713-0.01-1.055
		c-0.06-0.41-0.38-1.133-0.839-1.651c-0.24-0.283-0.5-0.479-0.72-0.44c-0.25,0.039-0.49,0-0.71-0.098
		c-0.19-0.098-0.36-0.234-0.49-0.41l-0.04-0.049c-0.11-0.156-0.38-0.254-0.69-0.313c-0.42-0.078-0.889-0.068-1.239-0.059
		C8.526,2.383,7.796,2.549,7.227,2.93c-0.5,0.332-0.879,0.821-1.129,1.495l-0.02,0.059c-0.18,0.547-0.29,1.153-0.28,1.739l0,0
		c0.01,0.528,0.1,1.036,0.27,1.456c0.08,0.137,0.11,0.303,0.08,0.449c-0.08,0.449-0.45,0.469-0.23,1.065
		c0.13,0.322,0.38,0.635,0.56,0.791l0.02,0.029h0.01c0.31,0.283,0.47,0.674,0.66,1.133c0.22,0.528,0.48,1.163,0.979,1.456
		c0.22,0.107,0.37,0.332,0.37,0.606c0,0.586-0.1,1.104-0.55,1.543c-0.33,0.332-0.8,0.537-1.319,0.586
		c-0.62,0.049-1.659,0.361-2.399,1.065C3.759,16.861,3.419,17.476,3.419,18.306L3.419,18.306z"/>
</g>
</svg>
