<?xml version="1.0" encoding="utf-8"?>
<!-- Generator: Adobe Illustrator 26.0.3, SVG Export Plug-In . SVG Version: 6.00 Build 0)  -->
<svg version="1.1" id="Layer_1" xmlns="http://www.w3.org/2000/svg" xmlns:xlink="http://www.w3.org/1999/xlink" x="0px" y="0px"
	 viewBox="0 0 20 20" style="enable-background:new 0 0 20 20;" xml:space="preserve">
<style type="text/css">
	.st0{fill:#FFFFFF;}
</style>
<g>
	<path class="st0" d="M10.345,0.074l8.307,4.101c0.277,0.133,0.431,0.406,0.431,0.69h0.009v10.272c0,0.321-0.22,0.615-0.507,0.709
		l-8.249,4.073c-0.23,0.114-0.488,0.104-0.689,0l-8.307-4.101c-0.277-0.133-0.43-0.406-0.43-0.681l0,0V4.874
		c0-0.321,0.211-0.605,0.497-0.718l8.249-4.073C9.875-0.031,10.125-0.021,10.345,0.074L10.345,0.074z M7.224,2.994L7.224,2.994
		l6.928,3.412l2.766-1.37L9.99,1.623L7.224,2.994L7.224,2.994z M3.072,5.035L3.072,5.035l6.919,3.421l3.11-1.54L6.192,3.495
		L3.072,5.035L3.072,5.035z M2.469,5.762L2.469,5.762v8.902l7.062,3.487V9.258L2.469,5.762L2.469,5.762z M10.469,18.151
		L10.469,18.151l7.053-3.487V5.762c-2.354,1.163-4.708,2.325-7.053,3.487L10.469,18.151L10.469,18.151z"/>
</g>
</svg>
