<?xml version="1.0" encoding="utf-8"?>
<!-- Generator: Adobe Illustrator 26.0.3, SVG Export Plug-In . SVG Version: 6.00 Build 0)  -->
<svg version="1.1" id="Layer_1" xmlns="http://www.w3.org/2000/svg" xmlns:xlink="http://www.w3.org/1999/xlink" x="0px" y="0px"
	 viewBox="0 0 20 20" style="enable-background:new 0 0 20 20;" xml:space="preserve">
<style type="text/css">
	.st0{fill:#212120;}
</style>
<g>
	<path class="st0" d="M10.305,1.08l7.285,3.679c0.126,0.075,0.232,0.171,0.295,0.288l2.032,3.669
		c0.179,0.341,0.063,0.757-0.263,0.938c-0.021,0.011-0.053,0.021-0.074,0.032l-1.6,0.81v4.127c0,0.299-0.189,0.544-0.432,0.64
		l-7.243,3.669c-0.2,0.096-0.432,0.085-0.611,0l0,0l-7.285-3.7c-0.232-0.117-0.379-0.363-0.379-0.608l0,0v-4.127L0.377,9.665
		C0.04,9.505-0.097,9.078,0.072,8.737l0.021-0.032l0,0l2.021-3.669c0.084-0.128,0.2-0.224,0.326-0.288L9.694,1.08
		C9.894,0.973,10.126,0.973,10.305,1.08L10.305,1.08z M9.599,17.343L9.599,17.343v-6.665l-1.137,2.037
		c-0.105,0.192-0.358,0.267-0.558,0.16h-0.01l-4.506-2.272v3.605L9.599,17.343L9.599,17.343z M9.599,8.396L9.599,8.396V2.68
		L3.936,5.538L9.599,8.396L9.599,8.396z M10.41,2.68L10.41,2.68v5.727l5.653-2.858L10.41,2.68L10.41,2.68z M10.41,10.688
		L10.41,10.688v6.654l6.19-3.146v-3.614l-4.516,2.282h-0.011c-0.189,0.117-0.442,0.043-0.558-0.16L10.41,10.688L10.41,10.688z
		 M16.884,6.05L16.884,6.05l-6.316,3.199l1.484,2.698l6.316-3.199L16.884,6.05L16.884,6.05z M3.072,9.494L3.072,9.494l4.864,2.453
		l1.495-2.698L3.114,6.05L1.62,8.758L2.957,9.43C2.999,9.451,3.041,9.462,3.072,9.494L3.072,9.494z"/>
</g>
</svg>
