<?xml version="1.0" encoding="utf-8"?>
<!-- Generator: Adobe Illustrator 26.0.3, SVG Export Plug-In . SVG Version: 6.00 Build 0)  -->
<svg version="1.1" id="Layer_1" xmlns="http://www.w3.org/2000/svg" xmlns:xlink="http://www.w3.org/1999/xlink" x="0px" y="0px"
	 viewBox="0 0 30 30" style="enable-background:new 0 0 30 30;" xml:space="preserve">
<style type="text/css">
	.st0{fill:#FFFFFF;}
	.st1{fill:#003CA6;}
</style>
<rect y="0" class="st0" width="30" height="30"/>
<path class="st1" d="M14.993,29.994C6.713,29.999-0.003,23.29-0.008,15.008C-0.012,8.974,3.599,3.525,9.157,1.18
	c7.629-3.224,16.426,0.349,19.649,7.98s-0.349,16.431-7.977,19.655C18.982,29.597,16.997,29.998,14.993,29.994z M14.993,7h-0.347
	c-1.835,0-2.127,0.01-2.949,0.047c-0.663,0.014-1.319,0.14-1.941,0.372C8.681,7.834,7.832,8.684,7.417,9.758
	c-0.233,0.621-0.358,1.277-0.372,1.941c-0.039,0.874-0.048,1.162-0.048,3.299s0.009,2.424,0.048,3.299
	c0.015,0.663,0.14,1.318,0.372,1.94c0.415,1.074,1.264,1.924,2.338,2.34c0.622,0.232,1.278,0.357,1.941,0.371
	c0.86,0.039,1.145,0.048,3.298,0.048s2.437-0.009,3.298-0.048c0.663-0.014,1.32-0.139,1.942-0.371
	c1.072-0.418,1.919-1.267,2.335-2.34c0.231-0.622,0.357-1.278,0.372-1.941c0.039-0.873,0.048-1.161,0.048-3.299
	s-0.009-2.424-0.048-3.299c-0.015-0.662-0.141-1.317-0.372-1.938c-0.415-1.075-1.264-1.924-2.339-2.339
	c-0.621-0.231-1.276-0.357-1.939-0.372C17.427,7.009,17.142,7,14.993,7z"/>
<path class="st1" d="M14.992,12.328c1.472,0,2.665,1.194,2.665,2.666s-1.193,2.666-2.665,2.666s-2.665-1.194-2.665-2.666
	S13.52,12.328,14.992,12.328L14.992,12.328z"/>
<path class="st1" d="M14.991,21.55c-2.128,0-2.382-0.008-3.231-0.047c-0.507-0.006-1.01-0.1-1.485-0.276
	c-0.347-0.129-0.662-0.334-0.919-0.6c-0.266-0.257-0.471-0.571-0.6-0.919c-0.175-0.475-0.268-0.976-0.273-1.483
	c-0.038-0.84-0.046-1.09-0.046-3.232s0.008-2.392,0.046-3.231c0.006-0.507,0.099-1.01,0.276-1.486
	C8.886,9.93,9.09,9.616,9.356,9.358c0.258-0.266,0.572-0.471,0.919-0.6c0.476-0.176,0.978-0.269,1.485-0.275
	c0.746-0.034,1.026-0.045,2.514-0.045c0.069,0,0.143,0,0.208,0h0.509c2.152,0,2.399,0.008,3.231,0.046
	c0.507,0.006,1.01,0.099,1.485,0.276c0.347,0.129,0.661,0.334,0.918,0.6c0.266,0.258,0.471,0.572,0.6,0.92
	c0.176,0.476,0.269,0.978,0.276,1.485c0.038,0.84,0.046,1.092,0.046,3.231s-0.008,2.391-0.046,3.231
	c-0.007,0.507-0.1,1.009-0.276,1.485c-0.27,0.697-0.82,1.247-1.517,1.517c-0.475,0.177-0.978,0.27-1.485,0.276
	C17.372,21.542,17.118,21.55,14.991,21.55z M14.991,10.89c-2.267,0-4.106,1.839-4.106,4.107s1.838,4.107,4.106,4.107
	s4.106-1.839,4.106-4.107C19.093,12.729,17.257,10.892,14.991,10.89z M19.259,9.768L19.259,9.768
	c-0.53,0.001-0.959,0.432-0.957,0.962s0.432,0.959,0.961,0.958c0.529-0.001,0.958-0.431,0.957-0.961
	C20.219,10.197,19.789,9.768,19.259,9.768c-0.001,0.001-0.001,0.001-0.002,0.001L19.259,9.768z"/>
</svg>
