<?xml version="1.0" encoding="utf-8"?>
<!-- Generator: Adobe Illustrator 26.0.3, SVG Export Plug-In . SVG Version: 6.00 Build 0)  -->
<svg version="1.1" id="Layer_1" xmlns="http://www.w3.org/2000/svg" xmlns:xlink="http://www.w3.org/1999/xlink" x="0px" y="0px"
	 viewBox="0 0 20 20" style="enable-background:new 0 0 20 20;" xml:space="preserve">
<style type="text/css">
	.st0{fill:#FFFFFF;}
</style>
<g>
	<path class="st0" d="M9.991,0.5c2.402,0,4.615,0.888,6.364,2.374c1.781,1.496,3.077,3.612,3.625,6.027
		c0.095,0.413-0.169,0.815-0.59,0.898c-0.042,0.01-0.084,0.021-0.116,0.021v0.01c-0.727,0.031-1.423,0.186-2.086,0.433
		c-0.674,0.258-1.328,0.619-1.886,1.063c-0.285,0.227-0.674,0.206-0.948,0l0,0c-0.622-0.475-1.328-0.857-2.076-1.115
		c-0.485-0.175-0.991-0.299-1.517-0.351c0,2.518,0,5.036,0,7.555c0,1.146-0.969,2.085-2.139,2.085s-2.129-0.939-2.129-2.085
		c0-0.423,0.337-0.753,0.769-0.753c0.421,0,0.78,0.32,0.78,0.753c0,0.32,0.274,0.588,0.59,0.588c0.327,0,0.601-0.268,0.601-0.588
		c0-2.518,0-5.047,0-7.555C8.706,9.923,8.2,10.036,7.715,10.212c-0.748,0.258-1.444,0.64-2.076,1.115
		c-0.295,0.237-0.717,0.217-0.991-0.031c-0.558-0.423-1.18-0.784-1.844-1.032C2.152,10.015,1.446,9.861,0.729,9.83
		C0.308,9.788-0.03,9.448,0.002,9.025c0-0.052,0.011-0.103,0.032-0.165c0.558-2.415,1.855-4.5,3.614-5.986
		C5.387,1.388,7.589,0.5,9.991,0.5L9.991,0.5z M11.709,2.182L11.709,2.182c0.917,0.98,1.633,2.033,2.16,3.168
		c0.632,1.331,1.043,2.756,1.275,4.242c0.464-0.279,0.969-0.537,1.496-0.743c0.516-0.196,1.064-0.341,1.623-0.423
		c-0.558-1.765-1.581-3.303-2.908-4.427C14.301,3.111,13.068,2.492,11.709,2.182L11.709,2.182z M14.175,9.396L14.175,9.396
		c-0.232-1.29-0.59-2.508-1.138-3.653c-0.643-1.373-1.57-2.632-2.845-3.726l-0.2-0.01l-0.211,0.01
		C8.516,3.101,7.599,4.36,6.946,5.743C6.398,6.888,6.04,8.106,5.819,9.396c0.443-0.248,0.896-0.444,1.38-0.63
		c1.812-0.619,3.793-0.619,5.595,0C13.268,8.952,13.743,9.138,14.175,9.396L14.175,9.396z M4.839,9.592L4.839,9.592
		C5.081,8.096,5.471,6.671,6.103,5.35c0.548-1.135,1.254-2.188,2.171-3.168c-1.359,0.31-2.592,0.929-3.646,1.816
		C3.29,5.124,2.278,6.651,1.72,8.426c0.558,0.083,1.096,0.237,1.623,0.423C3.869,9.056,4.375,9.314,4.839,9.592L4.839,9.592z"/>
</g>
</svg>
