<?xml version="1.0" encoding="utf-8"?>
<!-- Generator: Adobe Illustrator 26.0.3, SVG Export Plug-In . SVG Version: 6.00 Build 0)  -->
<svg version="1.1" id="Layer_1" xmlns="http://www.w3.org/2000/svg" xmlns:xlink="http://www.w3.org/1999/xlink" x="0px" y="0px"
	 viewBox="0 0 20 20" style="enable-background:new 0 0 20 20;" xml:space="preserve">
<style type="text/css">
	.st0{fill-rule:evenodd;clip-rule:evenodd;fill:#212120;}
</style>
<g>
	<path class="st0" d="M15.643,13.486c0.421,0,0.768,0.324,0.768,0.717s-0.347,0.717-0.768,0.717s-0.768-0.324-0.768-0.717
		C14.885,13.81,15.222,13.486,15.643,13.486L15.643,13.486z M13.527,10.304L13.527,10.304h4.242l-1.242-2.317h-3L13.527,10.304
		L13.527,10.304z M18.233,11.168L18.233,11.168h-4.705v2.327c0.368,0.059,0.663,0.353,0.663,0.717c0,0.373,0.168,0.717,0.432,0.962
		l0,0v0.01c0.263,0.236,0.632,0.393,1.021,0.393s0.747-0.147,1-0.363l0.032-0.029c0.263-0.245,0.421-0.579,0.421-0.942v-0.02
		c0-0.393,0.347-0.717,0.779-0.717h0.579V11.61L18.233,11.168L18.233,11.168z M18.548,14.92L18.548,14.92h0.663h0.021
		c0.411,0,0.768-0.324,0.768-0.717v-2.778l0,0c0-0.108-0.032-0.226-0.084-0.314l-2.2-4.104c-0.115-0.265-0.389-0.452-0.715-0.452
		h-3.474V3.736v-0.02C13.527,3.324,13.18,3,12.759,3H0.789h-0.01C0.347,3,0,3.324,0,3.717v10.476v0.02
		c0,0.393,0.347,0.717,0.779,0.717h1.663c0.137,0.491,0.4,0.913,0.779,1.257c0.547,0.51,1.295,0.814,2.116,0.814
		c0.832,0,1.579-0.314,2.126-0.815c0.368-0.344,0.642-0.766,0.779-1.257h4.505h0.011c0.137,0.491,0.421,0.913,0.779,1.257
		l0.011-0.01c0.536,0.511,1.284,0.825,2.115,0.825c0.811,0,1.537-0.295,2.084-0.785l0.053-0.039
		C18.148,15.843,18.422,15.401,18.548,14.92L18.548,14.92z M11.99,4.433L11.99,4.433v2.818v0.02v6.215H7.568
		c-0.421,0-0.768,0.324-0.768,0.717v0.02c-0.011,0.373-0.179,0.707-0.432,0.942c-0.263,0.245-0.632,0.393-1.032,0.393
		c-0.389,0-0.768-0.157-1.021-0.393c-0.263-0.245-0.421-0.589-0.421-0.962c0-0.393-0.347-0.717-0.779-0.717h-0.02H1.537V4.433H11.99
		L11.99,4.433z M5.326,13.486L5.326,13.486c0.432,0,0.779,0.324,0.779,0.717S5.768,14.92,5.326,14.92
		c-0.411,0-0.768-0.324-0.768-0.717C4.568,13.81,4.916,13.486,5.326,13.486L5.326,13.486z"/>
</g>
</svg>
