<?xml version="1.0" encoding="utf-8"?>
<!-- Generator: Adobe Illustrator 26.0.3, SVG Export Plug-In . SVG Version: 6.00 Build 0)  -->
<svg version="1.1" id="Layer_1" xmlns="http://www.w3.org/2000/svg" xmlns:xlink="http://www.w3.org/1999/xlink" x="0px" y="0px"
	 viewBox="0 0 30 30" style="enable-background:new 0 0 30 30;" xml:space="preserve">
<style type="text/css">
	.st0{fill:#FFFFFF;}
</style>
<g transform="translate(0 0)">
	<path class="st0" d="M15.001,30C6.722,30.005,0.005,23.296,0,15.014C-0.004,8.98,3.608,3.531,9.165,1.186
		c7.629-3.224,16.426,0.349,19.649,7.98s-0.349,16.431-7.977,19.655C18.991,29.603,17.006,30.004,15.001,30z M15.001,9.505
		c-2.088-0.025-4.175,0.089-6.247,0.343c-0.698,0.198-1.237,0.753-1.414,1.457c-0.23,1.304-0.341,2.625-0.334,3.949
		c-0.008,1.324,0.104,2.645,0.334,3.949c0.179,0.701,0.718,1.255,1.414,1.452c2.072,0.255,4.159,0.372,6.247,0.348
		c2.088,0.025,4.175-0.089,6.247-0.343c0.698-0.198,1.237-0.753,1.414-1.457c0.23-1.304,0.341-2.625,0.334-3.949
		c0.007-1.325-0.105-2.648-0.335-3.953c-0.179-0.701-0.717-1.254-1.413-1.452C19.176,9.595,17.089,9.48,15.001,9.505z"/>
	<path class="st0" d="M13.502,18.003v-4.999l3.998,2.499L13.502,18.003z"/>
</g>
</svg>
