<?xml version="1.0" encoding="utf-8"?>
<!-- Generator: Adobe Illustrator 26.0.3, SVG Export Plug-In . SVG Version: 6.00 Build 0)  -->
<svg version="1.1" id="Layer_1" xmlns="http://www.w3.org/2000/svg" xmlns:xlink="http://www.w3.org/1999/xlink" x="0px" y="0px"
	 viewBox="0 0 20 20" style="enable-background:new 0 0 20 20;" xml:space="preserve">
<style type="text/css">
	.st0{fill:#212120;}
</style>
<g>
	<path class="st0" d="M1.655,6.08h0.019h16.671c0.412,0,0.746,0.338,0.746,0.745v0.019v3.393c0,0.425-0.335,0.754-0.746,0.754
		h-0.019h-0.067v8.256c0,0.415-0.335,0.754-0.737,0.754h-0.019H2.478c-0.412,0-0.737-0.338-0.737-0.754v-0.019v-8.236H1.655
		c-0.412,0-0.746-0.338-0.746-0.754v-0.01V6.825C0.909,6.418,1.243,6.08,1.655,6.08L1.655,6.08z M11.445,18.503L11.445,18.503
		v-7.501H8.555v7.501H11.445L11.445,18.503z M7.665,18.503L7.665,18.503v-7.501H3.224v7.501H7.665L7.665,18.503z M12.335,11.001
		L12.335,11.001v7.501h4.44v-7.501L12.335,11.001L12.335,11.001z M10.038,1.556L10.038,1.556c0.364,0,0.698,0.116,0.985,0.28
		c0.134-0.396,0.364-0.754,0.641-1.054C12.153,0.3,12.804,0,13.541,0s1.406,0.3,1.876,0.783c0.488,0.484,0.785,1.16,0.785,1.905
		c0,0.735-0.296,1.411-0.785,1.895c-0.469,0.484-1.139,0.793-1.876,0.793l0,0c-2.354,0-4.727,0-7.081,0l0,0
		c-0.737,0-1.406-0.309-1.886-0.793c-0.488-0.474-0.785-1.15-0.785-1.885c0-0.745,0.296-1.421,0.785-1.905
		C5.053,0.309,5.713,0.01,6.459,0.01c0.727,0,1.397,0.3,1.876,0.783c0.296,0.309,0.526,0.676,0.66,1.093
		C9.283,1.673,9.655,1.556,10.038,1.556L10.038,1.556z M10.737,2.755L10.737,2.755c-0.182-0.174-0.431-0.29-0.698-0.29
		c-0.277,0-0.526,0.116-0.717,0.29C9.158,2.938,9.043,3.19,9.043,3.47S9.157,4.002,9.33,4.176c0.182,0.194,0.431,0.3,0.708,0.3
		c0.258,0,0.497-0.096,0.679-0.271l0.019-0.029c0.182-0.174,0.287-0.425,0.287-0.705C11.024,3.19,10.919,2.938,10.737,2.755
		L10.737,2.755z M11.789,2.736L11.789,2.736c0.086,0.223,0.134,0.474,0.134,0.725c0,0.377-0.105,0.715-0.287,1.005h1.905
		c0.497,0,0.938-0.194,1.244-0.513C15.109,3.624,15.3,3.179,15.3,2.696c0-0.503-0.192-0.947-0.516-1.266
		c-0.305-0.328-0.745-0.521-1.243-0.521c-0.488,0-0.928,0.194-1.235,0.522C11.981,1.75,11.79,2.195,11.79,2.697L11.789,2.736
		L11.789,2.736z M8.431,4.467L8.431,4.467c-0.173-0.29-0.278-0.629-0.278-1.006c0-0.213,0.029-0.415,0.095-0.609
		C8.23,2.804,8.22,2.746,8.22,2.687c0-0.503-0.192-0.947-0.516-1.266S6.947,0.909,6.459,0.909S5.522,1.102,5.215,1.431
		C4.881,1.75,4.689,2.195,4.689,2.697c0,0.493,0.192,0.928,0.516,1.256C5.522,4.273,5.971,4.467,6.45,4.467H8.431L8.431,4.467z
		 M17.608,7.589L17.608,7.589H2.401v1.905c5.455,0,9.732,0,15.197,0V7.589H17.608z"/>
</g>
</svg>
