<?xml version="1.0" encoding="utf-8"?>
<!-- Generator: Adobe Illustrator 26.0.3, SVG Export Plug-In . SVG Version: 6.00 Build 0)  -->
<svg version="1.1" id="Layer_1" xmlns="http://www.w3.org/2000/svg" xmlns:xlink="http://www.w3.org/1999/xlink" x="0px" y="0px"
	 viewBox="0 0 20 20" style="enable-background:new 0 0 20 20;" xml:space="preserve">
<style type="text/css">
	.st0{fill:#212120;}
	.st1{fill:#1C449B;}
</style>
<g>
	<g>
		<path class="st0" d="M11.933,3.746c-0.048,0-0.097-0.007-0.144-0.021c-0.251-0.075-0.389-0.326-0.309-0.561l0.705-2.07
			c0.079-0.234,0.348-0.365,0.597-0.289c0.251,0.075,0.389,0.326,0.309,0.561l-0.705,2.07C12.322,3.625,12.135,3.746,11.933,3.746z"
			/>
	</g>
	<g>
		<path class="st0" d="M14.829,19.173c-0.142,0-0.286-0.018-0.429-0.053L1.225,15.81c-0.645-0.162-1.107-0.647-1.205-1.265
			c-0.099-0.615,0.19-1.203,0.753-1.533c2.302-1.343,3.072-3.763,3.079-3.787l0.77-2.54c0.468-1.439,1.5-2.615,2.909-3.32
			c1.41-0.707,3.026-0.855,4.551-0.419c1.527,0.436,2.782,1.403,3.535,2.723c0.753,1.321,0.912,2.834,0.448,4.263l-0.618,2.004
			c-0.538,1.772-0.287,3.401,0.747,4.837c0.385,0.538,0.374,1.225-0.026,1.751C15.851,18.939,15.354,19.173,14.829,19.173z
			 M10.339,3.592c-0.813,0-1.621,0.188-2.36,0.558C6.794,4.744,5.926,5.733,5.535,6.936L4.766,9.47
			c-0.035,0.113-0.871,2.77-3.491,4.299c-0.239,0.14-0.357,0.382-0.316,0.645c0.043,0.265,0.233,0.465,0.511,0.535l13.174,3.31
			c0.43,0.106,0.681-0.166,0.746-0.252c0.066-0.086,0.258-0.392,0.012-0.737c-1.197-1.664-1.49-3.542-0.872-5.581l0.62-2.009
			c0-0.002,0.001-0.004,0.002-0.006c0.39-1.201,0.257-2.474-0.376-3.585c-0.634-1.111-1.689-1.924-2.972-2.29
			C11.322,3.66,10.83,3.592,10.339,3.592z"/>
	</g>
	<g>
		<path class="st0" d="M7.995,20c-0.326,0-0.665-0.039-1.012-0.119c-0.886-0.206-1.635-0.689-2.108-1.36
			c-0.489-0.695-0.638-1.531-0.419-2.356c0.063-0.24,0.323-0.387,0.577-0.326c0.255,0.06,0.41,0.301,0.347,0.54
			c-0.154,0.58-0.051,1.165,0.29,1.649c0.34,0.483,0.888,0.834,1.543,0.986c1.159,0.271,2.573-0.045,2.926-1.379
			c0.064-0.24,0.324-0.387,0.576-0.326c0.256,0.06,0.411,0.301,0.347,0.54C10.709,19.186,9.489,20,7.995,20z"/>
	</g>
	<g>
		<path class="st1" d="M1.272,6.922c-0.038,0-0.076-0.004-0.114-0.013C0.903,6.85,0.747,6.608,0.81,6.369
			c0.05-0.192,1.283-4.711,5.26-6.333C6.31-0.06,6.591,0.041,6.697,0.268C6.802,0.493,6.691,0.756,6.45,0.854
			C2.899,2.302,1.745,6.54,1.734,6.583C1.68,6.786,1.486,6.922,1.272,6.922z"/>
	</g>
	<g>
		<path class="st1" d="M19.034,11.374c-0.059,0-0.117-0.01-0.175-0.031c-0.244-0.09-0.364-0.35-0.268-0.579
			c1.417-3.36-0.959-7.133-0.984-7.171c-0.135-0.211-0.062-0.485,0.163-0.612c0.224-0.127,0.517-0.059,0.652,0.152
			c0.109,0.169,2.645,4.185,1.054,7.96C19.402,11.268,19.223,11.374,19.034,11.374z"/>
	</g>
</g>
</svg>
