<?xml version="1.0" encoding="utf-8"?>
<!-- Generator: Adobe Illustrator 26.0.3, SVG Export Plug-In . SVG Version: 6.00 Build 0)  -->
<svg version="1.1" id="Layer_1" xmlns="http://www.w3.org/2000/svg" xmlns:xlink="http://www.w3.org/1999/xlink" x="0px" y="0px"
	 viewBox="0 0 20 20" style="enable-background:new 0 0 20 20;" xml:space="preserve">
<g>
	<path d="M14.587,0c-0.369,0.01-0.779,0.082-1.295,0.216C11.827,0.597,3.37,2.882,3.37,2.882c-0.011,0-0.032,0.01-0.042,0.01
		C2.001,3.387,1.159,3.85,0.642,4.529C0.126,5.198,0.021,6.001,0.011,6.958c0,0.01,0,0.01,0,0.01v0.288C0.011,7.319,0,7.38,0,7.432
		v9.954C0,18.827,1.211,20,2.675,20h14.65C18.799,20,20,18.816,20,17.385V7.36c0-1.482-1.359-2.717-2.854-2.717H2.854
		c-0.537,0-1.011,0.144-1.411,0.391C1.79,4.622,2.443,4.22,3.633,3.778c0.011-0.01,0.021-0.01,0.032-0.01
		c0.053-0.01,8.447-2.285,9.868-2.645c0.474-0.124,0.821-0.185,1.074-0.185c0.242,0,0.358,0.031,0.421,0.072
		c0.053,0.041,0.105,0.113,0.147,0.309c0.042,0.185,0.074,0.473,0.074,0.844v1.554h0.948V2.151c0-0.401-0.021-0.741-0.105-1.06
		c-0.074-0.319-0.232-0.628-0.506-0.834C15.313,0.062,14.966,0,14.587,0z M2.854,5.579h14.292c0.927,0,1.906,0.906,1.906,1.791
		v10.026c0,0.937-0.769,1.688-1.727,1.688H2.675c-0.958,0-1.727-0.751-1.727-1.688V8.121l0.011-0.772
		c0.042-0.319,0.2-0.772,0.516-1.122C1.811,5.847,2.275,5.579,2.854,5.579z M16.44,11.158c-0.664,0-1.19,0.525-1.19,1.163
		s0.537,1.163,1.19,1.163c0.653,0,1.19-0.525,1.19-1.163S17.093,11.158,16.44,11.158z"/>
</g>
</svg>
