<?xml version="1.0" encoding="utf-8"?>
<!-- Generator: Adobe Illustrator 26.0.3, SVG Export Plug-In . SVG Version: 6.00 Build 0)  -->
<svg version="1.1" id="Layer_1" xmlns="http://www.w3.org/2000/svg" xmlns:xlink="http://www.w3.org/1999/xlink" x="0px" y="0px"
	 viewBox="0 0 20 20" style="enable-background:new 0 0 20 20;" xml:space="preserve">
<style type="text/css">
	.st0{fill:#003CA6;}
</style>
<g>
	<g>
		<path class="st0" d="M19.496,17H0.504C0.226,17,0,16.779,0,16.506V3.494C0,3.221,0.226,3,0.504,3h18.991
			C19.774,3,20,3.221,20,3.494v13.012C20,16.779,19.774,17,19.496,17z M1.009,16.012h17.982V3.988H1.009V16.012z"/>
	</g>
	<g>
		<path class="st0" d="M6.152,12.118H2.893c-0.279,0-0.504-0.221-0.504-0.494V8.376c0-0.273,0.226-0.494,0.504-0.494h3.259
			c0.279,0,0.504,0.221,0.504,0.494v3.248C6.656,11.896,6.43,12.118,6.152,12.118z M3.398,11.13h2.25V8.869h-2.25
			C3.398,8.869,3.398,11.13,3.398,11.13z"/>
	</g>
</g>
</svg>
