<?xml version="1.0" encoding="utf-8"?>
<!-- Generator: Adobe Illustrator 26.0.3, SVG Export Plug-In . SVG Version: 6.00 Build 0)  -->
<svg version="1.1" id="Layer_1" xmlns="http://www.w3.org/2000/svg" xmlns:xlink="http://www.w3.org/1999/xlink" x="0px" y="0px"
	 viewBox="0 0 20 20" style="enable-background:new 0 0 20 20;" xml:space="preserve">
<style type="text/css">
	.st0{fill:#333333;}
	.st1{fill:#212120;}
	.st2{fill:#1C449B;}
</style>
<g>
	<path class="st0" d="M19.57,5.198H7.916c-0.23,0-0.42-0.182-0.42-0.403c0-0.221,0.19-0.403,0.42-0.403H19.58
		c0.23,0,0.42,0.182,0.42,0.403C20,5.016,19.8,5.198,19.57,5.198z"/>
	<path class="st1" d="M17.911,10H9.585c-1.149,0-2.079-0.893-2.079-1.998V3.998C7.506,2.893,8.436,2,9.585,2h8.326
		c1.149,0,2.079,0.893,2.079,1.998v4.005C19.99,9.107,19.06,10,17.911,10z M9.575,2.797c-0.69,0-1.249,0.538-1.249,1.2v4.005
		c0,0.663,0.56,1.2,1.249,1.2h8.326c0.69,0,1.249-0.538,1.249-1.2V3.998c0-0.663-0.56-1.2-1.249-1.2L9.575,2.797L9.575,2.797z"/>
	<path class="st1" d="M19.57,18H0.42C0.19,18,0,17.827,0,17.606c0-0.221,0.19-0.403,0.42-0.403h19.16c0.23,0,0.42,0.182,0.42,0.403
		C19.99,17.827,19.8,18,19.57,18z"/>
	<path class="st1" d="M17.911,18c-0.23,0-0.42-0.182-0.42-0.403v-5.599c0-0.221,0.19-0.403,0.42-0.403s0.42,0.182,0.42,0.403v5.599
		C18.321,17.827,18.141,18,17.911,18z"/>
	<path class="st1" d="M2.079,18c-0.23,0-0.42-0.182-0.42-0.403v-9.2c0-0.884,0.75-1.604,1.669-1.604h2.079
		c0.23,0,0.42,0.182,0.42,0.403c0,0.221-0.19,0.403-0.42,0.403H3.328c-0.46,0-0.83,0.355-0.83,0.797v9.2
		C2.499,17.827,2.309,18,2.079,18z"/>
	<rect x="8.326" y="4.401" class="st2" width="10.825" height="1.45"/>
</g>
</svg>
