<?xml version="1.0" encoding="utf-8"?>
<!-- Generator: Adobe Illustrator 26.0.3, SVG Export Plug-In . SVG Version: 6.00 Build 0)  -->
<svg version="1.1" id="Layer_1" xmlns="http://www.w3.org/2000/svg" xmlns:xlink="http://www.w3.org/1999/xlink" x="0px" y="0px"
	 viewBox="0 0 20 20" style="enable-background:new 0 0 20 20;" xml:space="preserve">
<style type="text/css">
	.st0{fill:#15191D;}
</style>
<g>
	<g>
		<path class="st0" d="M10,11.056c-2.527,0-4.582-2.031-4.582-4.528S7.474,2,10,2c2.527,0,4.582,2.031,4.582,4.528
			S12.527,11.056,10,11.056z M10,2.951c-1.996,0-3.62,1.605-3.62,3.577s1.624,3.577,3.62,3.577s3.62-1.605,3.62-3.577
			S11.996,2.951,10,2.951z"/>
	</g>
	<g>
		<path class="st0" d="M18,18h-0.963c0-3.835-3.157-6.954-7.037-6.954S2.962,14.165,2.962,18H2c0-4.359,3.589-7.905,8-7.905
			S18,13.641,18,18z"/>
	</g>
</g>
</svg>
