<?xml version="1.0" encoding="utf-8"?>
<!-- Generator: Adobe Illustrator 26.0.3, SVG Export Plug-In . SVG Version: 6.00 Build 0)  -->
<svg version="1.1" id="Layer_1" xmlns="http://www.w3.org/2000/svg" xmlns:xlink="http://www.w3.org/1999/xlink" x="0px" y="0px"
	 viewBox="0 0 30 30" style="enable-background:new 0 0 30 30;" xml:space="preserve">
<style type="text/css">
	.st0{fill:#003CA6;}
</style>
<g>
	<path class="st0" d="M15,30C6.716,30,0,23.285,0,15.001c0-3.979,1.58-7.794,4.394-10.608c5.858-5.858,15.355-5.858,21.213,0
		s5.858,15.356,0,21.214l0,0C22.8,28.429,18.98,30.011,15,30z M8.766,7.75c-1.621,0.005-2.933,1.322-2.931,2.943v6.981
		c-0.001,1.621,1.31,2.937,2.931,2.942h4.376l1.493,2.429c0.014,0.025,0.03,0.049,0.048,0.071c0.138,0.239,0.443,0.322,0.683,0.184
		c0.077-0.044,0.14-0.108,0.184-0.184c0.02-0.022,0.037-0.047,0.05-0.074l1.491-2.429h4.376c1.62-0.004,2.932-1.319,2.933-2.939
		v-6.981c0.001-1.622-1.311-2.939-2.933-2.943H8.766z M20.721,17.978h-0.446v-1.007h0.275c0.2,0.013,0.396-0.062,0.537-0.206
		c0.137-0.178,0.203-0.401,0.186-0.625v-0.265c-0.248,0.28-0.606,0.439-0.98,0.434h-0.018c-0.399,0.017-0.788-0.131-1.075-0.409
		c-0.307-0.357-0.479-0.81-0.486-1.28c-0.095-0.861,0.527-1.635,1.387-1.73c0.066-0.007,0.132-0.01,0.199-0.009h0.024
		c0.366-0.002,0.715,0.156,0.954,0.433v-0.322h1.105V16.2c0.072,0.907-0.604,1.7-1.511,1.773
		C20.822,17.977,20.771,17.979,20.721,17.978z M20.6,13.9c-0.403,0-0.729,0.326-0.729,0.729s0.326,0.729,0.729,0.729
		c0.402,0,0.728-0.326,0.729-0.728C21.328,14.228,21.002,13.901,20.6,13.9z M16.222,16.362c-0.52,0.033-1.031-0.151-1.41-0.509
		c-0.3-0.337-0.467-0.772-0.469-1.223c0-1.732,1.86-1.752,1.878-1.752c0.534-0.035,1.059,0.154,1.449,0.521
		c0.303,0.339,0.471,0.777,0.473,1.231c-0.004,1.712-1.907,1.736-1.926,1.736L16.222,16.362z M16.222,13.9
		c-0.403,0-0.729,0.326-0.729,0.729s0.326,0.729,0.729,0.729c0.402,0,0.728-0.326,0.729-0.728c-0.001-0.404-0.328-0.731-0.732-0.73
		h-0.001H16.222z M9.959,16.366C9.576,16.381,9.212,16.194,9,15.874v0.372H7.856v-4.735H8.99v1.8
		c0.258-0.261,0.602-0.421,0.968-0.449c1.525,0,1.6,1.712,1.6,1.729c0.05,0.93-0.663,1.724-1.592,1.775
		C9.964,16.366,9.962,16.366,9.959,16.366z M9.707,13.9c-0.403,0.001-0.729,0.327-0.728,0.73s0.327,0.729,0.73,0.728
		c0.402-0.001,0.727-0.326,0.728-0.728C10.437,14.227,10.11,13.901,9.707,13.9z M13.538,16.242h-1.1v-2.8
		c0-0.918-0.462-0.944-0.515-0.944v-1.1c0.417-0.021,0.824,0.134,1.123,0.426c0.319,0.38,0.493,0.86,0.491,1.356v3.061
		L13.538,16.242z"/>
</g>
</svg>
