<?xml version="1.0" encoding="utf-8"?>
<!-- Generator: Adobe Illustrator 26.0.3, SVG Export Plug-In . SVG Version: 6.00 Build 0)  -->
<svg version="1.1" id="Layer_1" xmlns="http://www.w3.org/2000/svg" xmlns:xlink="http://www.w3.org/1999/xlink" x="0px" y="0px"
	 viewBox="0 0 20 20" style="enable-background:new 0 0 20 20;" xml:space="preserve">
<style type="text/css">
	.st0{fill:#15191D;}
</style>
<g>
	<g>
		<path class="st0" d="M12.07,14.708H4.694c-0.231,0-0.417-0.187-0.417-0.418c0-0.231,0.187-0.417,0.417-0.417h7.057l3.011-11.286
			c0.049-0.182,0.215-0.31,0.403-0.31h2.141c0.231,0,0.417,0.187,0.417,0.417s-0.186,0.417-0.417,0.417h-1.821l-3.011,11.285
			C12.425,14.58,12.259,14.708,12.07,14.708z"/>
	</g>
	<g>
		<path class="st0" d="M12.948,11.426H4.275c-0.53,0-0.992-0.355-1.123-0.863L2.308,7.418c-0.07-0.246-0.019-0.512,0.141-0.723
			c0.159-0.211,0.41-0.336,0.672-0.336h10.957c0.231,0,0.417,0.187,0.417,0.417c0,0.23-0.186,0.417-0.417,0.417H3.12l0.838,3.157
			c0.036,0.141,0.169,0.24,0.317,0.24h8.673c0.231,0,0.418,0.187,0.418,0.418S13.179,11.426,12.948,11.426z"/>
	</g>
	<g>
		<path class="st0" d="M4.694,17.613c-1.033,0-1.873-0.837-1.873-1.866c0-1.029,0.84-1.867,1.873-1.867s1.872,0.838,1.872,1.867
			C6.566,16.776,5.725,17.613,4.694,17.613z M4.694,14.715c-0.572,0-1.038,0.463-1.038,1.032c0,0.569,0.466,1.031,1.038,1.031
			s1.038-0.462,1.038-1.031C5.731,15.178,5.266,14.715,4.694,14.715z"/>
	</g>
	<g>
		<path class="st0" d="M11.961,17.723c-1.033,0-1.873-0.838-1.873-1.867c0-1.029,0.84-1.867,1.873-1.867s1.873,0.837,1.873,1.867
			C13.835,16.885,12.995,17.723,11.961,17.723z M11.961,14.824c-0.572,0-1.039,0.463-1.039,1.032c0,0.569,0.466,1.031,1.039,1.031
			S13,16.424,13,15.855C13,15.287,12.534,14.824,11.961,14.824z"/>
	</g>
</g>
</svg>
