<?xml version="1.0" encoding="utf-8"?>
<!-- Generator: Adobe Illustrator 26.0.3, SVG Export Plug-In . SVG Version: 6.00 Build 0)  -->
<svg version="1.1" id="Layer_1" xmlns="http://www.w3.org/2000/svg" xmlns:xlink="http://www.w3.org/1999/xlink" x="0px" y="0px"
	 viewBox="0 0 20 20" style="enable-background:new 0 0 20 20;" xml:space="preserve">
<style type="text/css">
	.st0{fill:#8D9091;}
	.st1{fill:#FFFFFF;}
</style>
<g>
	<g>
		<path class="st0" d="M16.595,7.289H0.513C0.23,7.289,0,7.058,0,6.773V2.555C0,2.27,0.23,2.039,0.513,2.039h16.082
			c0.283,0,0.513,0.231,0.513,0.516v4.218C17.107,7.058,16.878,7.289,16.595,7.289z M1.025,6.258h15.057V3.071H1.025V6.258z"/>
	</g>
	<g>
		<path class="st0" d="M11.951,17.047H0.513C0.23,17.047,0,16.816,0,16.531V6.763c0-0.285,0.23-0.516,0.513-0.516h16.082
			c0.283,0,0.513,0.231,0.513,0.516v3.657c0,0.285-0.23,0.516-0.513,0.516s-0.513-0.231-0.513-0.516V7.279H1.025v8.736H11.95
			c0.283,0,0.513,0.231,0.513,0.516S12.234,17.047,11.951,17.047z"/>
	</g>
	<g>
		<path class="st0" d="M4.027,4.359c-0.283,0-0.513-0.231-0.513-0.516V1.516C3.514,1.231,3.744,1,4.027,1s0.512,0.231,0.512,0.516
			v2.328C4.539,4.128,4.31,4.359,4.027,4.359z"/>
	</g>
	<g>
		<path class="st0" d="M8.65,4.359c-0.283,0-0.513-0.231-0.513-0.516V1.516C8.138,1.231,8.367,1,8.65,1s0.513,0.231,0.513,0.516
			v2.328C9.163,4.128,8.933,4.359,8.65,4.359z"/>
	</g>
	<g>
		<path class="st0" d="M13.275,4.359c-0.283,0-0.513-0.231-0.513-0.516V1.516c0-0.285,0.23-0.516,0.513-0.516
			s0.513,0.231,0.513,0.516v2.328C13.787,4.128,13.558,4.359,13.275,4.359z"/>
	</g>
	<g>
		<path class="st0" d="M4.719,10.209H3.181c-0.283,0-0.513-0.231-0.513-0.516s0.23-0.516,0.513-0.516h1.538
			c0.283,0,0.513,0.231,0.513,0.516S5.002,10.209,4.719,10.209z"/>
	</g>
	<g>
		<path class="st0" d="M9.414,10.209H7.887c-0.283,0-0.513-0.231-0.513-0.516s0.23-0.516,0.513-0.516h1.528
			c0.283,0,0.513,0.231,0.513,0.516S9.697,10.209,9.414,10.209z"/>
	</g>
	<g>
		<path class="st0" d="M14.12,10.209h-1.538c-0.283,0-0.513-0.231-0.513-0.516s0.23-0.516,0.513-0.516h1.538
			c0.283,0,0.513,0.231,0.513,0.516S14.403,10.209,14.12,10.209z"/>
	</g>
	<g>
		<path class="st0" d="M4.719,13.482H3.181c-0.283,0-0.513-0.231-0.513-0.516s0.23-0.516,0.513-0.516h1.538
			c0.283,0,0.513,0.231,0.513,0.516S5.002,13.482,4.719,13.482z"/>
	</g>
	<g>
		<path class="st0" d="M9.414,13.482H7.887c-0.283,0-0.513-0.231-0.513-0.516s0.23-0.516,0.513-0.516h1.528
			c0.283,0,0.513,0.231,0.513,0.516S9.697,13.482,9.414,13.482z"/>
	</g>
	<g>
		<path class="st0" d="M15.454,19c-2.507,0-4.546-2.078-4.546-4.63s2.039-4.63,4.546-4.63S20,11.817,20,14.37S17.961,19,15.454,19z
			 M15.454,10.771c-1.942,0-3.521,1.615-3.521,3.599s1.579,3.599,3.521,3.599s3.521-1.615,3.521-3.599S17.396,10.771,15.454,10.771z
			"/>
	</g>
	<g>
		<polyline class="st1" points="15.454,12.728 15.454,15.346 17.124,14.037 		"/>
		<path class="st0" d="M15.454,15.862c-0.077,0-0.153-0.017-0.225-0.052c-0.176-0.087-0.287-0.267-0.287-0.464v-2.618
			c0-0.285,0.23-0.516,0.513-0.516s0.513,0.231,0.513,0.516v1.563l0.843-0.661c0.222-0.176,0.545-0.136,0.72,0.09
			c0.174,0.225,0.134,0.549-0.09,0.724l-1.671,1.309C15.677,15.825,15.566,15.862,15.454,15.862z"/>
	</g>
</g>
</svg>
