<?xml version="1.0" encoding="utf-8"?>
<!-- Generator: Adobe Illustrator 26.0.3, SVG Export Plug-In . SVG Version: 6.00 Build 0)  -->
<svg version="1.1" id="Layer_1" xmlns="http://www.w3.org/2000/svg" xmlns:xlink="http://www.w3.org/1999/xlink" x="0px" y="0px"
	 viewBox="0 0 20 20" style="enable-background:new 0 0 20 20;" xml:space="preserve">
<style type="text/css">
	.st0{fill:#212120;}
	.st1{fill:#1C449B;stroke:#1C449B;stroke-width:0.2344;stroke-miterlimit:10;}
</style>
<g>
	<path class="st0" d="M7.041,10.042c-0.15,0-0.292-0.083-0.367-0.217L1.715,0.608C1.649,0.483,1.649,0.325,1.724,0.2
		C1.799,0.075,1.932,0,2.082,0H6.25C6.4,0,6.541,0.083,6.616,0.217l4.518,8.392c0.108,0.2,0.033,0.458-0.167,0.567
		S10.509,9.208,10.4,9.008L5.999,0.833H2.782l4.626,8.592c0.108,0.2,0.033,0.458-0.167,0.567
		C7.175,10.025,7.108,10.042,7.041,10.042z"/>
	<path class="st0" d="M12.958,10.042c-0.067,0-0.133-0.017-0.2-0.05c-0.2-0.108-0.275-0.367-0.167-0.567l4.626-8.592H14l-3.634,6.75
		C10.258,7.783,10,7.858,9.8,7.75C9.6,7.642,9.525,7.392,9.633,7.183l3.751-6.967C13.458,0.083,13.6,0,13.75,0h4.168
		c0.15,0,0.283,0.075,0.358,0.2c0.075,0.125,0.075,0.283,0.008,0.408l-4.96,9.208C13.25,9.958,13.108,10.042,12.958,10.042
		L12.958,10.042z"/>
	<path class="st0" d="M10,20c-3.217,0-5.834-2.617-5.834-5.833S6.783,8.333,10,8.333s5.834,2.617,5.834,5.833S13.216,20,10,20z
		 M10,9.167c-2.758,0-5.001,2.242-5.001,5s2.242,5,5.001,5s5.001-2.242,5.001-5S12.758,9.167,10,9.167z"/>
	<path class="st1" d="M10,17.483c-1.842,0-3.333-1.492-3.333-3.333S8.158,10.817,10,10.817s3.333,1.492,3.333,3.333
		S11.841,17.483,10,17.483z M10,11.65c-1.375,0-2.5,1.125-2.5,2.5s1.125,2.5,2.5,2.5s2.5-1.125,2.5-2.5S11.375,11.65,10,11.65z"/>
</g>
</svg>
