<?xml version="1.0" encoding="utf-8"?>
<!-- Generator: Adobe Illustrator 26.0.3, SVG Export Plug-In . SVG Version: 6.00 Build 0)  -->
<svg version="1.1" id="Layer_1" xmlns="http://www.w3.org/2000/svg" xmlns:xlink="http://www.w3.org/1999/xlink" x="0px" y="0px"
	 viewBox="0 0 20 20" style="enable-background:new 0 0 20 20;" xml:space="preserve">
<style type="text/css">
	.st0{fill:#212120;}
	.st1{fill:#1C449B;}
</style>
<g>
	<path class="st0" d="M17.92,16.5H2.08C0.93,16.5,0,15.583,0,14.462v-1.083c0-0.497,0.33-0.936,0.81-1.092
		c1.01-0.332,1.69-1.248,1.69-2.292s-0.68-1.96-1.69-2.292C0.33,7.547,0,7.108,0,6.611V5.529C0,4.407,0.93,3.5,2.08,3.5h15.83
		c1.15,0,2.08,0.907,2.08,2.029v1.092c0,0.497-0.32,0.936-0.81,1.092c-1,0.322-1.68,1.239-1.68,2.282s0.68,1.96,1.69,2.292
		c0.48,0.156,0.81,0.595,0.81,1.092v1.083C20,15.583,19.07,16.5,17.92,16.5L17.92,16.5z M2.08,4.309c-0.69,0-1.25,0.546-1.25,1.219
		V6.62c0,0.146,0.1,0.273,0.24,0.322C2.42,7.371,3.33,8.6,3.33,9.995s-0.91,2.624-2.26,3.062c-0.14,0.049-0.24,0.176-0.24,0.322
		v1.083c0,0.673,0.56,1.219,1.25,1.219h15.83c0.69,0,1.25-0.546,1.25-1.219v-1.083c0-0.146-0.1-0.273-0.24-0.322
		c-1.35-0.439-2.26-1.668-2.26-3.062s0.91-2.623,2.26-3.062c0.14-0.049,0.24-0.176,0.24-0.322V5.529c0-0.673-0.56-1.219-1.25-1.219
		L2.08,4.309L2.08,4.309z"/>
	<path class="st1" d="M12.32,14.062c-0.08,0-0.16-0.02-0.23-0.068L10,12.609l-2.08,1.385c-0.14,0.098-0.33,0.098-0.47,0
		s-0.21-0.273-0.16-0.429l0.65-2.487L5.99,9.459C5.86,9.351,5.81,9.176,5.87,9.02s0.2-0.263,0.37-0.273L8.72,8.61l0.9-2.389
		c0.12-0.322,0.66-0.322,0.78,0l0.9,2.389l2.48,0.137c0.17,0.01,0.32,0.117,0.37,0.273s0.01,0.332-0.12,0.439l-1.95,1.619
		l0.65,2.487c0.04,0.166-0.02,0.332-0.16,0.429C12.48,14.033,12.4,14.062,12.32,14.062L12.32,14.062z M10,11.712
		c0.08,0,0.16,0.02,0.23,0.068l1.41,0.936l-0.44-1.697c-0.04-0.146,0.01-0.312,0.13-0.41l1.35-1.131L10.96,9.38
		c-0.17-0.01-0.31-0.117-0.37-0.263L10,7.518L9.4,9.117C9.34,9.273,9.2,9.371,9.03,9.381L7.31,9.478l1.35,1.132
		c0.12,0.098,0.17,0.263,0.13,0.41l-0.44,1.696l1.41-0.936C9.84,11.731,9.92,11.712,10,11.712L10,11.712z"/>
</g>
</svg>
