<?xml version="1.0" encoding="utf-8"?>
<!-- Generator: Adobe Illustrator 26.0.3, SVG Export Plug-In . SVG Version: 6.00 Build 0)  -->
<svg version="1.1" id="Layer_1" xmlns="http://www.w3.org/2000/svg" xmlns:xlink="http://www.w3.org/1999/xlink" x="0px" y="0px"
	 viewBox="0 0 30 30" style="enable-background:new 0 0 30 30;" xml:space="preserve">
<style type="text/css">
	.st0{fill:#003CA6;}
	.st1{fill:none;}
</style>
<g>
	<g>
		<path class="st0" d="M28.814,9.166c-3.223-7.631-12.02-11.204-19.649-7.98C3.608,3.531-0.004,8.98,0,15.014
			C0.005,23.296,6.722,30.005,15.001,30c2.005,0.004,3.99-0.397,5.836-1.179C28.465,25.597,32.037,16.797,28.814,9.166z
			 M18.816,15.663h-2.252v8.159h-3.375v-8.158h-1.686v-2.812h1.684v-1.689c-0.079-0.967,0.212-1.928,0.815-2.688
			c0.766-0.715,1.801-1.068,2.844-0.969h2.253v2.811h-1.413c-1.07,0-1.122,0.407-1.122,1.127v1.407h2.553L18.816,15.663z"/>
	</g>
</g>
<rect y="0" class="st1" width="30" height="30"/>
</svg>
