<?xml version="1.0" encoding="utf-8"?>
<!-- Generator: Adobe Illustrator 26.0.3, SVG Export Plug-In . SVG Version: 6.00 Build 0)  -->
<svg version="1.1" id="Layer_1" xmlns="http://www.w3.org/2000/svg" xmlns:xlink="http://www.w3.org/1999/xlink" x="0px" y="0px"
	 viewBox="0 0 20 20" style="enable-background:new 0 0 20 20;" xml:space="preserve">
<style type="text/css">
	.st0{fill:none;}
	.st1{fill:#084FA2;}
</style>
<g>
	<g>
		<polygon class="st0" points="11.899,10.855 8.096,10.855 7.448,13.265 11.26,13.265 		"/>
	</g>
	<g>
		<polygon class="st0" points="12.109,10.038 12.993,6.702 9.206,6.702 8.314,10.038 		"/>
	</g>
	<g>
		<path class="st0" d="M3.644,9.794c0.034,0.143,0.168,0.236,0.311,0.236h4.358l0.892-3.336H2.828L3.644,9.794z"/>
	</g>
	<g>
		<path class="st0" d="M4.36,14.082c-0.564,0-1.018,0.455-1.018,1.019c0,0.565,0.454,1.019,1.018,1.019s1.018-0.455,1.018-1.019
			S4.924,14.082,4.36,14.082z"/>
	</g>
	<g>
		<path class="st0" d="M10.452,15.202c0,0.565,0.454,1.019,1.018,1.019s1.018-0.455,1.018-1.019c0-0.565-0.454-1.019-1.018-1.019
			C10.906,14.192,10.452,14.646,10.452,15.202z"/>
	</g>
	<g>
		<path d="M4.36,13.265c-1.01,0-1.834,0.826-1.834,1.837s0.825,1.837,1.834,1.837s1.834-0.826,1.834-1.837
			c0-0.379-0.118-0.725-0.311-1.019h1.346l0.218-0.817C7.448,13.265,4.36,13.265,4.36,13.265z M4.36,16.113
			c-0.564,0-1.018-0.455-1.018-1.019s0.454-1.019,1.018-1.019s1.018,0.455,1.018,1.019S4.924,16.113,4.36,16.113z"/>
	</g>
	<g>
		<path d="M3.956,10.038c-0.143,0-0.27-0.101-0.311-0.236l-0.816-3.1h6.378l0.218-0.817H2.828c-0.261,0-0.497,0.118-0.656,0.32
			c-0.159,0.202-0.21,0.463-0.143,0.716l0.825,3.092c0.134,0.497,0.589,0.842,1.102,0.842h4.139l0.218-0.817L3.956,10.038
			L3.956,10.038z"/>
	</g>
	<g>
		<path d="M17.579,1.866h-2.087c-0.185,0-0.345,0.126-0.395,0.303l-0.985,3.706h-3.786l-0.218,0.817h3.786l-0.883,3.336H9.215
			l-0.218,0.817H12.8l-0.64,2.402H8.356l-0.218,0.817h2.802c-0.244,0.312-0.395,0.699-0.395,1.129c0,1.011,0.825,1.837,1.834,1.837
			s1.826-0.826,1.826-1.837c0-0.809-0.53-1.491-1.254-1.735l2.861-10.783h1.775C17.815,2.675,18,2.489,18,2.262
			C18,2.035,17.806,1.866,17.579,1.866z M13.388,15.194c0,0.565-0.454,1.019-1.018,1.019c-0.564,0-1.018-0.455-1.018-1.019
			c0-0.565,0.454-1.019,1.018-1.019C12.934,14.175,13.388,14.638,13.388,15.194z"/>
	</g>
	<g>
		<path class="st1" d="M6.556,20c-0.035,0-0.072-0.005-0.107-0.014c-0.218-0.059-0.347-0.283-0.287-0.501l5.217-19.183
			c0.058-0.217,0.282-0.348,0.502-0.287c0.218,0.059,0.347,0.284,0.287,0.501L6.95,19.698C6.9,19.881,6.736,20,6.556,20z"/>
	</g>
</g>
</svg>
