<?xml version="1.0" encoding="utf-8"?>
<!-- Generator: Adobe Illustrator 26.0.3, SVG Export Plug-In . SVG Version: 6.00 Build 0)  -->
<svg version="1.1" id="Layer_1" xmlns="http://www.w3.org/2000/svg" xmlns:xlink="http://www.w3.org/1999/xlink" x="0px" y="0px"
	 viewBox="0 0 20 20" style="enable-background:new 0 0 20 20;" xml:space="preserve">
<style type="text/css">
	.st0{fill:#1C449B;}
	.st1{fill:#212120;}
</style>
<g>
	<g>
		<path class="st0" d="M14.58,20c-2.99,0-5.42-2.43-5.42-5.419s2.43-5.419,5.42-5.419S20,11.601,20,14.581S17.57,20,14.58,20z
			 M14.58,10.001c-2.52,0-4.58,2.06-4.58,4.579c0,2.53,2.06,4.579,4.58,4.579s4.58-2.06,4.58-4.579S17.11,10.001,14.58,10.001z"/>
	</g>
	<g>
		<path class="st0" d="M13.75,16.67c-0.11,0-0.22-0.04-0.3-0.12l-1.67-1.67c-0.16-0.16-0.16-0.43,0-0.59s0.43-0.16,0.59,0l1.35,1.35
			l2.62-3c0.15-0.17,0.41-0.19,0.59-0.04c0.17,0.15,0.19,0.41,0.04,0.59l-2.92,3.33c-0.08,0.09-0.19,0.14-0.3,0.14
			C13.76,16.67,13.75,16.67,13.75,16.67z"/>
	</g>
	<g>
		<path class="st1" d="M7.08,16.67H4.17c-0.92,0-1.67-0.75-1.67-1.67V9.171H0.83C0.37,9.171,0,8.791,0,8.331
			c0-0.23,0.1-0.47,0.27-0.62l8.2-7.599c0.16-0.15,0.41-0.15,0.57,0l2.63,2.44v-1.3c0-0.23,0.19-0.42,0.42-0.42h2.5
			c0.23,0,0.42,0.19,0.42,0.42v4.389l1.38,1.28c0.17,0.16,0.18,0.42,0.02,0.59c-0.16,0.17-0.42,0.18-0.59,0.02l-1.52-1.4
			c-0.08-0.08-0.13-0.19-0.13-0.31V1.672H12.5v1.84c0,0.17-0.1,0.32-0.25,0.38c-0.15,0.07-0.33,0.03-0.45-0.08l-3.05-2.83
			L0.83,8.331h2.08c0.23,0,0.42,0.19,0.42,0.42v6.249c0,0.46,0.37,0.83,0.83,0.83h2.92c0.23,0,0.42,0.19,0.42,0.42
			S7.31,16.67,7.08,16.67z"/>
	</g>
</g>
</svg>
