<?xml version="1.0" encoding="utf-8"?>
<!-- Generator: Adobe Illustrator 26.0.3, SVG Export Plug-In . SVG Version: 6.00 Build 0)  -->
<svg version="1.1" id="Layer_1" xmlns="http://www.w3.org/2000/svg" xmlns:xlink="http://www.w3.org/1999/xlink" x="0px" y="0px"
	 viewBox="0 0 20 20" style="enable-background:new 0 0 20 20;" xml:space="preserve">
<style type="text/css">
	.st0{fill:#003CA6;}
</style>
<g>
	<path class="st0" d="M10,0.5c-2.881,0-5.211,2.324-5.211,5.175c0,1.549,0.69,2.93,1.78,3.883h-1.13c-0.36,0-0.65,0.288-0.65,0.646
		s0.29,0.646,0.65,0.646h9.122c0.36,0,0.65-0.288,0.65-0.646s-0.29-0.646-0.65-0.646h-1.13c1.09-0.953,1.78-2.334,1.78-3.883
		C15.211,2.824,12.881,0.5,10,0.5z M10,1.364c2.411,0,4.351,1.927,4.351,4.32S12.411,9.995,10,9.995s-4.351-1.927-4.351-4.32
		S7.589,1.364,10,1.364z M9.57,2.228v0.914c-0.12,0.02-0.25,0.05-0.38,0.109C8.77,3.42,8.27,3.887,8.27,4.602
		c0,0.497,0.27,0.904,0.6,1.122C9.2,5.943,9.56,6.032,9.89,6.122c0.32,0.089,0.61,0.189,0.77,0.288
		c0.16,0.109,0.22,0.169,0.22,0.437v0.01c0,0,0,0.119-0.08,0.258c-0.09,0.139-0.23,0.298-0.78,0.298c-0.52,0-0.65-0.189-0.76-0.407
		C9.15,6.787,9.15,6.559,9.15,6.559l-0.87-0.02c0,0-0.02,0.417,0.2,0.844c0.17,0.348,0.55,0.705,1.11,0.834v0.914h0.87V8.227
		c0.53-0.099,0.9-0.367,1.08-0.656c0.23-0.358,0.22-0.735,0.22-0.735c0-0.507-0.27-0.914-0.6-1.142
		c-0.33-0.228-0.7-0.318-1.02-0.407C9.81,5.198,9.52,5.108,9.36,4.999C9.2,4.9,9.15,4.85,9.15,4.602c0-0.387,0.15-0.467,0.38-0.556
		c0.22-0.09,0.46-0.09,0.47-0.09s0.24,0.02,0.47,0.139c0.23,0.119,0.42,0.268,0.42,0.725h0.87c0-0.765-0.46-1.261-0.88-1.48
		c-0.15-0.079-0.29-0.129-0.42-0.159V2.228H9.57z M1.308,3.956c-0.71,0-1.3,0.586-1.3,1.291v9.426c-0.01,0.04-0.01,0.089,0,0.139
		v0.795c0,0.705,0.59,1.291,1.3,1.291H7.32l-0.29,1.728H6.09c-0.16,0-0.3,0.079-0.38,0.219c-0.08,0.139-0.08,0.298,0,0.437
		C5.789,19.421,5.939,19.5,6.089,19.5h7.822c0.16,0,0.3-0.079,0.38-0.219s0.08-0.298,0-0.437s-0.23-0.219-0.38-0.219h-0.94
		l-0.29-1.728h6.012c0.71,0,1.3-0.586,1.3-1.291v-0.795c0.01-0.05,0.01-0.099,0-0.139V5.248c0-0.705-0.59-1.291-1.3-1.291h-2.861
		c0.08,0.278,0.14,0.566,0.19,0.864h2.671c0.25,0,0.43,0.189,0.43,0.427v9.058H0.878V5.248c0-0.248,0.19-0.427,0.43-0.427h2.671
		c0.04-0.298,0.1-0.586,0.19-0.864L1.308,3.956L1.308,3.956z M0.878,15.17h18.255v0.427c0,0.248-0.19,0.427-0.43,0.427H1.308
		c-0.25,0-0.43-0.189-0.43-0.427C0.878,15.597,0.878,15.17,0.878,15.17z M8.2,16.898h3.611l0.29,1.728H7.909L8.2,16.898z"/>
</g>
</svg>
